<?xml version="1.0" encoding="UTF-8" standalone="no"?>
<!-- Created with Inkscape (http://www.inkscape.org/) -->

<svg
   xmlns:dc="http://purl.org/dc/elements/1.1/"
   xmlns:cc="http://creativecommons.org/ns#"
   xmlns:rdf="http://www.w3.org/1999/02/22-rdf-syntax-ns#"
   xmlns:svg="http://www.w3.org/2000/svg"
   xmlns="http://www.w3.org/2000/svg"
   xmlns:sodipodi="http://sodipodi.sourceforge.net/DTD/sodipodi-0.dtd"
   xmlns:inkscape="http://www.inkscape.org/namespaces/inkscape"
   width="180"
   height="202.5"
   id="svg3240"
   version="1.1"
   inkscape:version="0.48.4 r9939"
   sodipodi:docname="libreboot-simple-bold-2.00x2.50-diecut-2.svg">
  <defs
     id="defs3242" />
  <sodipodi:namedview
     id="base"
     pagecolor="#ffffff"
     bordercolor="#666666"
     borderopacity="1.0"
     inkscape:pageopacity="0.0"
     inkscape:pageshadow="2"
     inkscape:zoom="1.12"
     inkscape:cx="90"
     inkscape:cy="101.25"
     inkscape:document-units="in"
     inkscape:current-layer="layer3"
     showgrid="false"
     units="in"
     inkscape:showpageshadow="false"
     inkscape:window-width="1366"
     inkscape:window-height="713"
     inkscape:window-x="0"
     inkscape:window-y="33"
     inkscape:window-maximized="1"
     borderlayer="false">
    <inkscape:grid
       empspacing="1"
       visible="true"
       enabled="true"
       snapvisiblegridlinesonly="true"
       units="in"
       spacingx="0.125in"
       spacingy="0.125in"
       originx="1.4196in"
       type="xygrid"
       id="grid5122" />
  </sodipodi:namedview>
  <metadata
     id="metadata3245">
    <rdf:RDF>
      <cc:Work
         rdf:about="">
        <dc:format>image/svg+xml</dc:format>
        <dc:type
           rdf:resource="http://purl.org/dc/dcmitype/StillImage" />
        <dc:title></dc:title>
      </cc:Work>
    </rdf:RDF>
  </metadata>
  <g
     inkscape:groupmode="layer"
     id="layer3"
     inkscape:label="Background"
     transform="translate(0,-22.5)">
    <rect
       style="fill:#ff00ff;fill-opacity:1;fill-rule:nonzero;stroke:none"
       id="rect3158"
       width="1980"
       height="2002.5"
       x="-900"
       y="-877.5" />
  </g>
  <g
     inkscape:groupmode="layer"
     id="layer2"
     inkscape:label="Outline"
     style="display:none"
     transform="translate(0,-22.5)">
    <path
       style="fill:#ffffff;display:inline"
       d="m 128.3125,0 c -0.84353,0.02174373 -2.29955,0.1585342 -3.96875,0.875 0.0413,-0.0190474 -0.68134,0.1825268 -2,0.9375 -2.28127,1.3037906 -3.99849,3.9493507 -4.65625,5.96875 L 117.65625,7.75 c -0.0254,0.080316 -0.038,0.1696837 -0.0625,0.25 -0.0254,0.086983 -0.0727,0.1971242 -0.0937,0.28125 l 0.0312,0 c -0.80306,2.74869 -1.15625,5.481839 -1.15625,8.0625 0,3.402586 0.59302,6.711783 1.625,9.8125 0.0811,0.255461 0.17738,0.502956 0.28125,0.75 0.29251,0.669609 0.81791,1.811603 1.625,3.15625 l -0.0312,0.03125 c 0.45147,0.783735 0.83353,1.589881 1.21875,2.40625 -1.74869,0.36228 -3.48013,0.848911 -5.1875,1.53125 l 0,-0.03125 c -0.0286,0.0127 -0.0653,0.02014 -0.0937,0.03125 -0.019,0.0063 -0.0428,0.0249 -0.0625,0.03125 -2.54679,1.00516 -4.61735,2.458394 -6.375,4.21875 -0.23141,0.232417 -0.45202,0.493299 -0.65625,0.75 -0.42327,0.5305 -1.26748,1.36158 -2,3.5625 -1.36303,4.082206 0.75904,9.029019 4.65625,10.84375 l 0.3125,0.15625 0.125,0.09375 0.75,0.4375 0.34375,0.21875 c 0.0565,0.03778 0.10035,0.05725 0.15625,0.09375 0.39154,0.252694 0.78313,0.406515 1.15625,0.59375 -0.10767,0.471739 -0.27763,0.929876 -0.375,1.40625 -0.001,0.0063 10e-4,0.0249 0,0.03125 -0.98737,4.794883 -1.98246,9.199922 -3.0625,13.625 -0.0139,0.05944 -0.0186,0.127789 -0.0312,0.1875 -0.0375,0.168251 -0.29059,0.80961 -0.6875,1.53125 -0.01,0.01905 0.009,0.01062 0,0.03125 -1.87831,3.292365 -4.60124,5.890398 -7.90625,7.5625 -0.0531,0.02592 -0.10369,0.06677 -0.15625,0.09375 -1.56226,0.828337 -3.369431,1.436665 -5.40625,1.8125 -0.02541,0.0032 -0.06739,-0.0032 -0.09375,0 -4.283702,0.650023 -8.555388,1.079609 -12.71875,1.21875 -0.0127,4.13e-4 -0.01696,-4.44e-4 -0.03125,0 -3.874947,0.112697 -7.94535,0.476468 -12.0625,1.28125 -0.0127,0.0025 -0.02014,-0.0025 -0.03125,0 -0.02541,0.0063 -0.06644,-0.0032 -0.09375,0 -1.580773,0.287932 -3.215459,0.622418 -4.90625,1 -0.02541,0.0063 -0.03551,-0.0032 -0.0625,0 -0.0343,0.0063 -0.05945,0.0249 -0.09375,0.03125 -3.292495,0.68526 -6.488391,1.713416 -9.53125,3 -0.0127,0.0063 -0.04821,-0.0063 -0.0625,0 -3.651591,1.527597 -7.13808,3.534676 -10.3439,6.09375 C 46.54027,93.95337 46.52191,93.98254 46.5,94 c -3.228593,2.559836 -5.726841,5.970958 -7.21875,9.875 l -0.03125,0 c -0.02541,0.0619 -0.03741,0.12592 -0.0625,0.1875 -0.04764,0.12762 -0.110833,0.24643 -0.15625,0.375 l 0.0625,0 c -0.530619,1.45547 -0.75,2.84278 -0.75,4.0625 0,1.88718 0.527188,3.82078 1.40625,5.5625 -0.103539,0.35412 -0.247199,0.6637 -0.34375,1.03125 -0.0095,0.0362 -0.02331,0.0885 -0.03125,0.125 l 0.03125,0 c -0.711463,2.60542 -1.293186,5.16473 -1.84375,7.75 -0.377471,0.12222 -0.72536,0.24775 -1.125,0.34375 l 0,0.0312 c -1.737669,0.37406 -3.280934,0.74107 -4.65625,1.0625 -0.146141,0.0294 -0.293033,0.0571 -0.4375,0.0937 -3.005509,0.8605 -4.194761,1.95471 -5.75,4.03125 -0.09643,0.13634 -0.192675,0.26466 -0.28125,0.40625 -0.784002,1.17789 -1.662987,2.9889 -2.0625,5.09375 l -0.03125,0 c -0.0095,0.0495 -0.04599,0.30008 -0.0625,0.375 -0.0064,0.0438 -0.05615,0.0808 -0.0625,0.125 l 0.03125,0 c -0.06034,0.27491 -0.138396,0.70417 -0.21875,1.25 -0.385189,2.31454 -0.979659,4.63943 -1.6875,6.6875 -6.6e-5,0.0198 -6.6e-5,0.0427 0,0.0625 -0.732393,2.15972 -1.694982,4.34076 -2.8125,6.5 -0.0095,0.0222 -0.02013,0.0409 -0.03125,0.0625 -0.288701,0.5418 -0.536815,0.93063 -0.90625,1.46875 -0.02009,0.0395 -0.043,0.0852 -0.0625,0.125 -0.227404,0.34187 -0.614974,1.14631 -0.9375,1.6875 -0.740682,0.25968 -1.534658,0.56097 -2.3125,0.96875 -0.115925,0.0581 -0.199434,0.0991 -0.3125,0.15625 -0.0127,0.006 -0.01696,-0.006 -0.03125,0 -0.933086,0.47098 -1.810857,0.93607 -2.625,1.34375 -0.05309,0.0259 -0.103689,0.0668 -0.15625,0.0937 C 7.1147607,156.98858 3.9487823,160.01472 1.5,164 1.3647304,164.21927 1.2406609,164.45725 1.125,164.6875 0.4220811,166.09609 0,167.26576 0,169.46875 L 0,213.75 C 0,219.9632 5.0367966,225 11.25,225 l 157.5,0 c 6.2132,0 11.25,-5.0368 11.25,-11.25 l 0,-44.28125 0,-34.46875 0,-10.53125 0,-18.09375 -0.0312,0 c -0.005,-2.29049 -0.59226,-4.49729 -1.75,-6.46875 -0.082,-0.141359 -0.16032,-0.269653 -0.25,-0.40625 -1.1314,-1.699721 -2.8576,-3.340082 -4.71875,-4.34375 -0.22618,-0.122506 -0.48277,-0.241449 -0.71875,-0.34375 -0.80395,-0.34482 -1.17197,-0.382382 -1.625,-0.5 -1.21493,-0.680339 -2.43316,-1.210302 -3.65625,-1.53125 l 0,-0.03125 c -0.0769,-0.02222 -0.11318,-0.01185 -0.1875,-0.03125 -0.0727,-0.01905 -0.14634,-0.07661 -0.21875,-0.09375 l 0,0.0625 c -1.17507,-0.299043 -2.14605,-0.4375 -3.25,-0.4375 -0.0925,-0.0015 -0.15748,-0.0015 -0.25,0 l -3.1875,0.09375 c -0.0794,0.0053 -0.17079,0.02383 -0.25,0.03125 l -1.5625,0.09375 0,-0.03125 -2.71875,0.125 -5.28125,0 c 0.11784,-0.701069 0.29954,-1.450636 0.34375,-2.0625 6.3e-4,0.08667 4.4e-4,0.216349 0,0.25 0.001,-0.03492 0.0249,-0.262887 0.0312,-0.40625 0.001,-0.02857 0,-0.06201 0,-0.09375 0.01,-0.219997 0.0182,-0.310535 0.0312,-0.5625 l -0.0312,0 c 0.25884,-5.159798 0.19852,-8.405429 -0.15625,-11.46875 -0.003,-0.02857 0.003,-0.06487 0,-0.09375 -0.17468,-1.63877 -0.28125,-3.117214 -0.28125,-4.46875 0.001,-0.09258 0.001,-0.188667 0,-0.28125 C 150.23165,71.787594 150.17056,70.132518 150,68.34375 149.9778,68.058358 149.9688,67.629229 149.9688,67 c 0,-0.360947 0.10721,-0.682144 0.125,-1.03125 1.53526,-0.962177 2.9699,-2.043161 4.3125,-3.25 0.95535,-0.113967 1.90873,-0.297507 2.84375,-0.53125 0.0781,-0.01905 0.14062,-0.01062 0.21875,-0.03125 l 0,-0.03125 c 2.18577,-0.533199 4.13028,-1.266543 5.84375,-2.0625 0.006,-0.0025 0.0283,0.0025 0.0312,0 1.55318,-0.719894 2.80902,-1.607935 3.9375,-2.625 0.1153,-0.109427 0.2345,-0.228261 0.34375,-0.34375 0.80039,-0.801576 1.3515,-1.529185 1.8125,-2.25 1.2168,-0.884368 2.42137,-2.041644 3.34375,-3.75 l 0.0625,0.03125 c 0.0686,-0.12349 0.0621,-0.250875 0.125,-0.375 0.0896,-0.18349 0.23247,-0.338523 0.3125,-0.53125 l -0.0937,-0.03125 c 1.40543,-3.230525 1.04485,-6.56218 -0.375,-9.125 -0.0448,-0.08679 -0.10856,-0.195995 -0.15625,-0.28125 -1.20229,-2.007145 -2.75861,-3.650944 -5.5625,-4.6875 l 0.0312,-0.03125 c -1.08351,-0.452311 -1.66153,-0.653051 -1.53125,-0.59375 -0.0132,-0.0064 -0.018,0.0063 -0.0312,0 -0.89891,-0.405137 -1.5871,-0.722461 -2.25,-1.03125 -0.0597,-0.02857 -0.12842,-0.06582 -0.1875,-0.09375 l 0,0.03125 c -1.91772,-0.941225 -2.74656,-1.145135 -4.15625,-1.46875 -0.14673,-0.04349 -0.23296,-0.0528 -0.375,-0.09375 -0.04,-0.0095 -0.0524,-0.0217 -0.0937,-0.03125 -1.41089,-0.4012 -2.62602,-0.688995 -3.5625,-0.9375 -0.12164,-0.04698 -1.11632,-0.433636 -1.65625,-0.78125 -0.0849,-0.05438 -0.16325,-0.136067 -0.25,-0.1875 -1.74682,-1.040652 -3.64758,-1.969592 -5.59375,-2.8125 0.0524,-0.06571 0.13541,-0.09022 0.1875,-0.15625 l 0.0312,0 c 0.0568,-0.06508 0.07,-0.151767 0.125,-0.21875 0.0775,-0.1 0.17409,-0.180617 0.25,-0.28125 L 148,27.375 c 1.75008,-2.322665 2.42282,-5.450089 2.0625,-7.96875 l 0.0312,0 c -0.0191,-0.132062 -0.0705,-0.245478 -0.0937,-0.375 -0.006,-0.03175 0.006,-0.06264 0,-0.09375 -0.97644,-5.188719 -5.36052,-8.34375 -10.125,-8.34375 -0.23662,0 -0.47524,0.04917 -0.71875,0.0625 -0.0737,-0.9575416 -0.25541,-1.8597977 -0.53125,-2.6875 -0.0864,-0.2691073 -0.16959,-0.5216466 -0.28125,-0.78125 0.0343,0.077142 -0.0637,-0.4775389 -0.96875,-2.0625 l -0.0625,0.03125 c -1.47314,-2.6976751 -4.09653,-4.62904597 -7.125,-5.0625 -0.41299,-0.05572833 -0.83329,-0.09686872 -1.25,-0.09375 -0.12791,0 -0.34382,-0.00724791 -0.625,0 z"
       id="path3133-8"
       inkscape:connector-curvature="0" />
  </g>
  <g
     inkscape:groupmode="layer"
     id="layer4"
     inkscape:label="Outline bigger"
     style="display:none"
     transform="translate(0,-22.5)">
    <path
       style="fill:#ffffff"
       d="m 128.28125,-0.03125 c -0.83419,0.02726003 -2.26868,0.18973383 -3.9375,0.90625 0.0412,-0.017661 -0.68165,0.1199589 -2,0.875 -2.28076,1.3040886 -3.99864,3.9488964 -4.65625,5.96875 -0.0254,0.080503 -0.0692,0.2007593 -0.0937,0.28125 -0.0254,0.087105 -0.0727,0.1346013 -0.0937,0.21875 -0.8029,2.749335 -1.09375,5.543736 -1.09375,8.125 0,3.403372 0.53075,6.617308 1.5625,9.71875 0.081,0.255517 0.2087,0.565393 0.3125,0.8125 0.29261,0.66976 0.78685,1.811278 1.59375,3.15625 0.45137,0.78393 0.80238,1.683427 1.1875,2.5 -1.74829,0.362356 -3.44927,0.786257 -5.15625,1.46875 -0.0286,0.01111 -0.0652,-0.01111 -0.0937,0 -2.54623,1.005386 -4.7115,2.520485 -6.46875,4.28125 -0.23135,0.232464 -0.38957,0.430742 -0.59375,0.6875 -0.42318,0.530647 -1.36139,1.361063 -2.09375,3.5625 -0.68136,2.041583 -0.53686,4.397663 0.3125,6.375 0.84936,1.977336 2.42684,3.654923 4.375,4.5625 l 0.375,0.09375 0.125,0.09375 0.6875,0.5 0,-0.09375 0.375,0.28125 c 0.0566,0.03772 0.069,0.05752 0.125,0.09375 0.39147,0.252881 0.81446,0.437705 1.1875,0.625 -0.10774,0.471837 -0.30884,0.898533 -0.40625,1.375 -0.98714,4.796026 -1.9827,9.167615 -3.0625,13.59375 -0.014,0.05941 0.0127,0.127804 0,0.1875 -0.0373,0.168386 -0.32209,0.871937 -0.71875,1.59375 -1.87788,3.29314 -4.63325,5.983771 -7.9375,7.65625 -0.0531,0.02604 -0.0412,-0.02699 -0.0937,0 -1.56189,0.828525 -3.401166,1.49906 -5.4375,1.875 -4.282742,0.650169 -8.556367,1.04833 -12.71875,1.1875 -0.01302,4.38e-4 -0.0807,-4.32e-4 -0.09375,0 -9.829941,0.970703 -9.836418,0.981644 -22.3125,2.875 C 61.40289,85.45036 61.34705,85.45599 61.3125,85.5 26.718989,89.975379 0,119.46903 0,155.28125 c 0,0.0657 -1.7960468e-4,0.12186 0,0.1875 L 0,225 l 180,0 0,-94.15625 0,-82.53125 c 0,-4.781068 -3.05212,-8.768691 -7.34375,-10.21875 0.006,-0.03915 -0.006,-0.08477 0,-0.125 -4.30311,-1.51681 -4.35742,-1.536401 -5.5625,-1.96875 -1.08326,-0.45242 -1.59898,-0.559314 -1.46875,-0.5 L 165.5,35.40625 c -0.8987,-0.405229 -1.49349,-0.691119 -2.15625,-1 -0.0597,-0.02794 -0.15959,-0.06609 -0.21875,-0.09375 -1.91727,-0.941442 -2.74688,-1.082573 -4.15625,-1.40625 -0.14657,-0.04353 -0.26429,-0.05298 -0.40625,-0.09375 -0.0401,-0.0095 -0.0524,0.0098 -0.0937,0 -1.41055,-0.401307 -2.62624,-0.720216 -3.5625,-0.96875 -0.12167,-0.04715 -1.05397,-0.464802 -1.59375,-0.8125 -0.0849,-0.05438 -0.22575,-0.136032 -0.3125,-0.1875 -1.74676,-1.040712 -3.58555,-1.938146 -5.53125,-2.78125 0.0526,-0.06564 0.13548,-0.152694 0.1875,-0.21875 0.0569,-0.06518 0.0387,-0.120644 0.0937,-0.1875 0.0644,-0.08324 0.11758,-0.202715 0.1875,-0.28125 1.74955,-2.323205 2.45399,-5.418244 2.09375,-7.9375 l 0.0937,0 c -0.0189,-0.132194 -0.0707,-0.276578 -0.0937,-0.40625 -0.006,-0.03112 0.006,-0.06284 0,-0.09375 l -0.0937,0 c -0.97609,-5.189918 -5.26784,-8.34375 -10.03125,-8.34375 -0.23656,0 -0.53778,-0.01334 -0.78125,0 -0.0735,-0.9577947 -0.22431,-1.8596308 -0.5,-2.6875 -0.0863,-0.2692725 -0.20085,-0.5214881 -0.3125,-0.78125 0.0342,0.07706 -0.064,-0.4146627 -0.96875,-2 -1.47279,-2.6983118 -4.12846,-4.62895588 -7.15625,-5.0625 -0.41354,-0.05597273 -0.86397,-0.09684407 -1.28125,-0.09375 -0.12788,0 -0.34694,-0.0090867 -0.625,0 z"
       id="path3133"
       inkscape:connector-curvature="0" />
  </g>
  <g
     inkscape:groupmode="layer"
     id="layer6"
     inkscape:label="Outline fixed"
     transform="translate(0,-22.5)">
    <path
       style="fill:#ffffff;display:inline"
       d="M 127.15625 0 C 126.17185 0.024459422 124.38374 0.18718325 122.34375 1.0625 C 122.50152 0.99484 121.69364 1.227193 120.125 2.125 C 117.34338 3.714439 115.22097 6.955671 114.40625 9.40625 L 114.34375 9.375 C 114.30075 9.511497 114.2907 9.644888 114.25 9.78125 C 114.2262 9.86469 114.17645 9.981522 114.15625 10.0625 L 114.21875 10.0625 C 113.38393 12.968834 113 15.828895 113 18.5 C 113 22.110265 113.63445 25.586477 114.71875 28.84375 C 114.8258 29.170193 114.95729 29.497247 115.09375 29.8125 C 115.32886 30.350306 115.75442 31.321321 116.40625 32.5 C 115.68903 32.727548 114.9604 32.90492 114.25 33.1875 C 114.1868 33.21265 114.12564 33.22442 114.0625 33.25 L 114.0625 33.28125 C 111.22572 34.4052 108.91269 35.990933 106.96875 37.9375 C 106.66969 38.229634 106.38968 38.551315 106.125 38.875 C 105.64782 39.472967 104.64983 40.453169 103.75 43.15625 C 102.88999 45.743634 103.01677 48.651623 104.09375 51.15625 C 105.17073 53.660876 107.18813 55.753806 109.65625 56.90625 L 109.84375 57 L 110 57.09375 L 110.0625 57.125 L 110.375 57.3125 L 110.5 57.375 C 109.58215 61.805231 108.65837 65.926171 107.65625 70.03125 C 107.64265 70.10817 107.60575 70.204061 107.59375 70.28125 C 107.63225 70.107562 107.51683 70.525746 107.25 71.03125 C 107.2285 71.07206 107.2113 71.05134 107.1875 71.09375 C 105.61639 73.834695 103.35669 75.961972 100.625 77.34375 C 100.5606 77.37524 100.50132 77.43603 100.4375 77.46875 C 99.169781 78.140793 97.651232 78.64559 95.84375 78.96875 C 95.82251 78.97275 95.80249 78.96505 95.78125 78.96875 C 91.776307 79.56997 87.807687 79.96439 83.9375 80.09375 C 83.92482 80.09417 83.91893 80.09333 83.90625 80.09375 C 80.043308 80.206 75.966075 80.59803 71.8125 81.40625 L 71.8125 81.375 C 71.75752 81.385 71.680148 81.4275 71.625 81.4375 C 70.118401 81.71185 68.540709 82.00438 66.875 82.375 L 66.875 82.34375 C 66.80897 82.35715 66.753434 82.39255 66.6875 82.40625 C 66.67525 82.40825 66.6685 82.40425 66.65625 82.40625 C 63.294648 83.10947 60.046262 84.16873 56.96875 85.46875 C 56.95022 85.47675 56.92478 85.4922 56.90625 85.5 C 53.17655 87.06138 49.564444 89.07647 46.25 91.71875 C 46.2429 91.72375 46.22583 91.7444 46.21875 91.75 C 46.2004 91.7647 46.20578 91.76665 46.1875 91.78125 C 42.709199 94.53961 39.996993 98.23569 38.375 102.4375 C 38.34761 102.51303 38.312218 102.57968 38.28125 102.65625 C 38.22449 102.80783 38.147654 102.97208 38.09375 103.125 L 38.15625 103.125 C 37.522864 104.86947 37.25 106.53242 37.25 107.96875 C 37.25 109.84714 37.686164 111.76284 38.4375 113.5625 C 38.4281 113.5977 38.41561 113.62095 38.40625 113.65625 L 38.375 113.65625 C 37.803374 115.74379 37.405343 117.83363 36.9375 119.90625 C 35.473287 120.23103 34.052057 120.54477 32.90625 120.8125 C 32.732063 120.8533 32.547041 120.9197 32.375 120.96875 C 28.665 122.03076 27.29028 123.29743 25.40625 125.8125 C 25.286328 125.97628 25.173383 126.14245 25.0625 126.3125 C 24.180718 127.63702 23.160976 129.74702 22.6875 132.21875 L 22.59375 132.21875 C 22.58224 132.27635 22.52917 132.6808 22.5 132.8125 C 22.44521 133.05986 22.389817 133.47235 22.3125 133.96875 C 21.959004 136.09253 21.440131 138.21559 20.8125 140.03125 C 20.806 140.05045 20.7876 140.07445 20.78125 140.09375 C 20.12197 142.03753 19.246405 144.07511 18.21875 146.0625 C 18.20514 146.0888 18.16992 146.0986 18.15625 146.125 C 17.926994 146.55377 17.741105 146.87032 17.4375 147.3125 C 17.41161 147.3509 17.40041 147.39882 17.375 147.4375 C 17.196246 147.706 16.944341 148.12133 16.6875 148.53125 C 16.213537 148.72954 15.73904 148.87029 15.25 149.125 L 15.25 149.09375 C 14.166993 149.63602 13.216753 150.12541 12.34375 150.5625 C 12.28575 150.5941 12.244931 150.62365 12.1875 150.65625 C 7.8782256 152.91182 4.5019561 156.163 1.875 160.4375 C 1.7020477 160.71919 1.5537311 161.01663 1.40625 161.3125 C 0.54412205 163.03579 0.03125 164.41929 0.03125 167.125 L 0 167.125 L 0 185.65625 C 0 194.9512 7.5487978 202.5 16.84375 202.5 L 38.6875 202.5 L 163.15625 202.5 C 172.4512 202.5 180 194.9512 180 185.65625 L 180 167.125 L 180 106.8125 C 180.17985 103.78336 179.48884 100.83772 177.96875 98.25 C 177.85847 98.06695 177.74553 97.8952 177.625 97.71875 C 176.30913 95.74229 174.29202 93.8559 172.125 92.6875 C 171.83007 92.53289 171.52623 92.37775 171.21875 92.25 C 170.40982 91.90309 170.14688 91.88618 169.65625 91.75 C 168.34851 91.04396 167.0482 90.46745 165.75 90.125 C 165.64679 90.0955 165.56775 90.0893 165.46875 90.0625 C 165.39255 90.0436 165.32602 89.98665 165.25 89.96875 L 165.25 90 C 163.85474 89.64342 162.79607 89.53125 161.5 89.53125 C 161.38458 89.52925 161.27167 89.52925 161.15625 89.53125 L 158.0625 89.625 C 157.95981 89.63 157.85251 89.64845 157.75 89.65625 L 156.28125 89.71875 L 153.625 89.84375 L 151.65625 89.84375 C 151.91201 84.76083 151.79882 81.37872 151.4375 78.25 L 151.46875 78.25 C 151.29984 76.68422 151.1875 75.328054 151.1875 74.125 C 151.1895 74.009423 151.1895 73.896827 151.1875 73.78125 C 151.1397 72.245807 151.07729 70.595117 150.90625 68.78125 L 150.9375 68.78125 C 150.9305 68.69081 150.91095 68.364472 150.90625 68.15625 C 151.88337 67.485874 152.8211 66.768572 153.71875 66 C 154.46289 65.885043 155.20518 65.745114 155.9375 65.5625 L 155.9375 65.59375 C 156.0272 65.57279 156.09874 65.52164 156.1875 65.5 C 158.51157 64.931383 160.55247 64.160166 162.3125 63.34375 C 162.3195 63.34065 162.33665 63.31583 162.34375 63.3125 C 164.11043 62.491078 165.56648 61.494701 166.84375 60.34375 C 166.98856 60.206278 167.11272 60.082506 167.25 59.9375 C 167.98792 59.198586 168.56686 58.507918 169.03125 57.84375 C 170.36058 56.809033 171.67184 55.365964 172.6875 53.5 L 172.75 53.53125 C 172.8493 53.352366 172.8794 53.179736 172.96875 53 C 173.07029 52.790613 173.22118 52.625722 173.3125 52.40625 L 173.21875 52.34375 C 174.92855 48.383225 174.44731 44.307031 172.71875 41.1875 C 172.65655 41.077282 172.59714 40.98305 172.53125 40.875 C 171.09389 38.475905 169.28113 36.478278 165.90625 35.21875 L 165.875 35.21875 C 164.72842 34.741158 164.1754 34.508498 164.5 34.65625 C 164.4872 34.64985 164.48165 34.66264 164.46875 34.65625 C 163.63647 34.28122 163.01798 34.003272 162.40625 33.71875 C 162.32495 33.6809 162.23634 33.59992 162.15625 33.5625 L 162.15625 33.59375 C 159.61934 32.350824 159.06708 32.365464 157.15625 31.90625 C 155.84372 31.536824 154.71711 31.242924 153.90625 31.03125 C 154.16982 31.11042 153.20343 30.722544 152.90625 30.53125 C 152.79833 30.4652 152.67259 30.406113 152.5625 30.34375 C 151.65056 29.800771 150.68965 29.282765 149.71875 28.78125 C 150.91089 26.290694 151.27262 23.465237 150.9375 21.09375 L 151 21.09375 C 150.9835 20.978065 150.92555 20.895357 150.90625 20.78125 C 150.89155 20.69594 150.92345 20.583827 150.90625 20.5 L 150.84375 20.5 C 149.74042 14.671155 145.18026 10.996579 139.9375 10.40625 C 139.8619 10.126624 139.8401 9.832867 139.75 9.5625 C 139.64486 9.2441827 139.53938 8.9013843 139.40625 8.59375 C 139.40394 8.5926594 139.40987 8.5679189 139.40625 8.5625 C 139.37836 8.4081733 139.12896 7.7108963 138.3125 6.28125 L 138.25 6.34375 C 136.41569 3.020768 133.17873 0.660353 129.4375 0.125 C 128.90889 0.04849 128.37785 0.000421 127.84375 0 C 127.71147 0 127.48439 -0.0081531406 127.15625 0 z M 169.78125 91.8125 C 170.24414 92.01232 170.55643 92.19623 170.75 92.3125 L 170.71875 92.34375 C 170.40532 92.14399 170.09776 91.98684 169.78125 91.8125 z "
       transform="translate(0,22.5)"
       id="path5124" />
  </g>
  <g
     inkscape:label="Foreground"
     inkscape:groupmode="layer"
     id="layer1"
     transform="translate(0,-849.85975)"
     style="display:inline">
    <path
       inkscape:connector-curvature="0"
       id="path10"
       d="m 136.51463,952.49186 0.48873,-1.32223 c 1.12411,-2.93833 2.15051,-6.02355 2.93249,-9.20671 0.24445,-0.83252 0.34232,-1.61609 0.39098,-2.39963 -0.0979,1.714 -0.0487,0.63665 0,-0.39176 0.24446,-4.84824 0.19535,-7.34582 -0.0979,-9.84338 -0.19534,-1.81195 -0.34194,-3.57493 -0.34194,-5.33792 -0.0487,-1.5671 -0.0979,-3.03627 -0.24447,-4.50543 -0.0487,-0.63664 -0.0487,-1.27324 -0.0487,-1.95887 0,-2.20374 0.24446,-4.3585 0.78201,-6.51325 l 0.78197,-0.34301 c 2.93248,-1.32227 5.52283,-3.28114 7.62444,-5.72972 l 1.02637,0 c 1.173,0 2.34596,-0.14689 3.47007,-0.44075 1.46624,-0.34301 2.88362,-0.88148 4.25208,-1.51812 0.63537,-0.29378 1.22185,-0.68562 1.71062,-1.12634 0.34232,-0.34301 0.63534,-0.78358 0.87972,-1.22433 0.29321,-0.6366 0.78202,-1.12635 1.41735,-1.42017 0.58652,-0.2938 1.07526,-0.6856 1.31964,-1.27328 0.24446,-0.44072 0.19534,-0.97942 -0.0487,-1.42018 -0.2932,-0.48971 -0.78201,-0.93046 -1.31964,-1.0774 -0.58648,-0.24494 -1.17296,-0.44072 -1.71059,-0.68559 -0.9775,-0.44075 -1.75948,-0.78357 -2.4926,-1.12634 -0.39098,-0.19574 -1.61284,-0.63664 -2.83469,-0.93047 -1.31964,-0.39177 -2.59035,-0.68563 -3.8611,-1.02841 -0.9775,-0.29378 -2.49259,-0.93046 -3.86109,-1.81197 -1.80833,-1.0774 -3.66556,-2.00783 -5.57168,-2.74244 -1.36846,-0.53867 -2.88359,-0.83253 -4.39868,-0.93047 l -1.90612,0 -0.14661,-0.343 -0.63537,-2.93829 -0.39099,-2.39963 -0.19534,-1.22429 0.43988,-0.24494 c 2.15047,-1.37123 4.0077,-3.08527 5.52279,-5.09308 0.34232,-0.39177 0.43988,-0.88152 0.34232,-1.37123 -0.0979,-0.68559 -0.73312,-1.17534 -1.41735,-1.17534 -0.2932,0 -0.58647,0.0981 -0.78201,0.29379 l -1.95497,1.27328 c -1.3196,0.93047 -2.6881,1.71404 -4.10544,2.44862 l -0.29321,-0.3918 c -1.61288,-1.86094 -2.54149,-4.26056 -2.54149,-6.75813 l 0,-0.97942 c 0.1466,-1.02841 0.2932,-2.15476 0.43988,-3.33009 0.0487,-0.34301 0,-0.68559 -0.0979,-0.97945 -0.19534,-0.44072 -0.34194,-0.88148 -0.53759,-1.22429 -0.0979,-0.34301 -0.39098,-0.58766 -0.73312,-0.63665 -0.39099,0 -0.73312,0 -1.07525,0.1469 -0.34232,0.14689 -0.73312,0.29378 -1.07522,0.48971 -0.34232,0.19573 -0.53763,0.4897 -0.63537,0.88147 -0.58652,1.86093 -0.83087,3.77085 -0.83087,5.72972 0,2.30169 0.39099,4.60337 1.12411,6.80712 0.34232,0.78353 0.68423,1.56706 1.12411,2.25269 0.73312,1.27328 1.36849,2.54653 1.95497,3.86879 0.78202,1.90988 1.173,3.91774 1.173,5.97456 l 0,0.44076 -0.63537,0.343 c -1.56399,0.93046 -2.83473,2.30169 -3.61671,3.96673 l -0.58648,0 c -2.24825,0.19573 -4.44757,0.68559 -6.50033,1.51812 -1.27072,0.4897 -2.44372,1.27327 -3.37233,2.20374 -0.19534,0.24495 -0.39098,0.5387 -0.48873,0.83252 l 0.53759,0.24495 0.73312,0.44076 0.73312,0.44072 0.63537,0.3918 c 0.2932,0.19573 0.63538,0.343 0.97751,0.44072 0.83087,0.14689 1.61284,0.29379 2.4437,0.29379 1.41736,0.0488 2.83474,0.29378 4.20323,0.68562 l -0.34232,0.6856 c -0.39102,0.78357 -0.73312,1.5671 -1.02636,2.35068 -0.68427,2.15475 -1.27074,4.3095 -1.71062,6.46426 -0.97751,4.7503 -1.95498,9.15775 -3.03023,13.56524 -0.29321,1.32223 -0.87972,2.64446 -1.56399,3.86879 -2.6392,4.65232 -6.54915,8.42313 -11.29,10.82276 -2.49261,1.32223 -5.1807,2.15479 -7.966542,2.6445 -4.496427,0.68559 -8.992892,1.12635 -13.44047,1.27324 -3.421213,0.0981 -6.989067,0.44076 -10.459137,1.12639 -1.612879,0.29378 -3.17683,0.58764 -4.691961,0.93046 -2.639201,0.5387 -5.278439,1.37118 -7.819899,2.44858 -2.932477,1.22429 -5.669464,2.79139 -8.113174,4.75027 -2.052717,1.61609 -3.616704,3.77084 -4.496465,6.26841 -0.146604,0.34301 -0.195343,0.73458 -0.195343,1.12635 0,0.83253 0.293202,1.61606 0.879761,2.2527 0.586478,0.63663 1.417346,0.88151 2.248213,0.73458 l -0.684226,1.17534 c -0.293202,0.39176 -0.488736,0.83252 -0.684227,1.27328 -0.391031,1.07735 -0.733125,2.1058 -1.026401,3.23215 -0.830868,3.03623 -1.515095,5.97455 -2.101573,8.96183 -0.195343,1.12635 -0.928616,2.30169 -2.05276,3.1342 -0.390988,0.2938 -0.830868,0.5877 -1.270711,0.73459 -1.221856,0.5387 -2.492597,0.93046 -3.714453,1.22429 -1.612879,0.343 -3.127974,0.73458 -4.594213,1.0774 -0.342322,0.0981 -0.781975,0.39176 -1.075257,0.78353 -0.390987,0.58768 -0.684227,1.17534 -0.781975,1.86093 -0.09786,0.48975 -0.195337,0.9305 -0.244457,1.42021 -0.43988,2.64446 -1.075257,5.33791 -1.954975,7.88447 -0.87976,2.59551 -2.003867,5.14204 -3.274615,7.59063 -0.439843,0.8325 -0.879718,1.5671 -1.417346,2.3507 -0.390988,0.5876 -0.830868,1.2732 -1.124107,1.9588 -0.293202,0.5877 -0.586484,1.1264 -0.928616,1.6651 -0.195343,0.343 -0.586515,0.6366 -0.977503,0.7835 l -0.537629,0.098 c -1.026358,0.1957 -2.00383,0.4897 -2.883584,0.9794 -0.977472,0.4898 -1.906082,0.9795 -2.883554,1.4692 -2.150503,1.1263 -4.34983,3.1832 -5.913817,5.7297 -0.09786,0.1957 -0.195343,0.4897 -0.195343,0.7835 0,0.1958 0.04873,0.4408 0.146604,0.6857 0.293202,0.5876 0.928616,0.9304 1.563987,0.9304 6.158163,0.1469 12.023087,-2.3996 16.17742,-7.003 1.221892,-1.3712 2.590346,-2.9383 4.007735,-4.4564 4.838559,-5.3869 7.771043,-9.25571 10.312496,-13.36933 0.195343,-0.29379 0.43988,-0.44076 0.684263,-0.44076 0.146604,0 0.244464,0 0.342323,0.0488 0.488736,0.24495 0.928616,0.3918 1.466201,0.44075 0.635378,0.1469 1.515138,0.24495 2.394855,0.44076 1.124107,0.1469 2.248257,0.19573 3.323471,0 1.759478,-0.24495 3.518962,-0.63664 5.180692,-1.22429 2.492603,-0.83252 4.838565,-2.1058 6.891325,-3.77085 3.323465,-2.5955 6.549151,-5.48484 9.726012,-8.47216 1.563987,-1.51811 3.372326,-2.69345 5.376194,-3.52597 5.571678,-2.35064 11.534388,-3.86876 17.594802,-4.45645 2.248214,-0.19573 4.594209,-0.39176 6.891319,-0.4897 1.36846,-0.0981 2.78584,-0.24495 4.1543,-0.58765 1.61288,-0.44076 3.76335,-0.93046 5.91381,-1.46916 2.24825,-0.63665 3.81224,-1.0774 5.27845,-1.66505 2.49263,-0.93046 4.93634,-2.00786 7.3312,-3.08522 l 0.73312,0.29379 c 0.87972,0.44072 1.85722,0.68559 2.88358,0.78353 3.22573,0.1469 6.5003,-0.19573 9.62828,-1.12635 l 2.68809,-0.73458 1.3196,-0.39177 1.3196,-0.44075 1.85723,-0.58765 1.66174,-0.5387 c 1.22189,-0.34301 2.44374,-0.73458 3.71445,-1.12635 1.90612,-0.5387 3.03022,-0.83252 4.20322,-1.07739 l -0.68422,1.22428 -3.95885,7.6886 -4.05658,7.59064 -0.0487,0.1469 -1.02636,0.19573 c -0.78201,0.0981 -1.56398,0.29379 -2.2971,0.58769 -2.93249,1.1753 -5.71832,2.69345 -8.21092,4.60333 -0.83087,0.68563 -1.56399,1.51815 -2.00384,2.54656 -0.0978,0.19573 -0.2932,0.44076 -0.43988,0.63664 -0.14659,0.1469 -0.19534,0.34263 -0.19534,0.53866 0,0.24495 0.14661,0.5387 0.39099,0.68563 0.43988,0.24495 0.92862,0.5387 1.41735,0.78353 0.0979,0.0488 0.2932,0.0981 0.43988,0.14689 0.53762,0.0488 1.07525,0.0981 1.66173,0.0981 0.68427,0.0488 1.3685,0.098 2.10162,0.14689 0.63537,0.0488 1.22185,0 1.75947,-0.19574 0.92862,-0.29378 1.90609,-0.63663 2.83474,-1.07735 1.22185,-0.58769 2.39482,-1.22433 3.51896,-1.95891 0.87972,-0.58766 1.71059,-1.27325 2.44371,-2.05682 0.39099,-0.39176 1.46624,-1.51811 2.54146,-2.69345 3.07911,-3.18316 4.93634,-5.33791 6.69582,-7.54166 1.46621,-1.81198 2.78585,-3.67291 4.15434,-5.53383 1.22185,-1.76299 2.34596,-3.47703 3.37232,-5.28896 0.53763,-0.88152 0.97751,-1.763 1.46624,-2.69346 0.39099,-0.78357 0.68423,-1.66504 0.78197,-2.49757 0.19534,-0.97946 0,-2.00786 -0.48873,-2.84038 -0.39099,-0.58765 -0.87976,-1.02841 -1.51509,-1.37118 -0.34233,-0.1469 -0.68427,-0.24496 -1.07526,-0.34301 -0.24446,-0.0488 -0.48873,-0.1469 -0.73312,-0.29379 -0.68423,-0.48974 -1.46624,-0.83252 -2.29711,-1.0284 -0.34232,-0.0981 -0.78197,-0.1469 -1.17296,-0.1469 l -3.07912,0.0981 -1.66173,0.098 -2.6392,0.0981 -6.25595,0 -2.4926,0.0981 c -2.98678,0.1291 -5.97355,0.66654 -8.75667,1.50316 z"
       style="fill:#000000" />
    <text
       xml:space="preserve"
       style="font-size:17.16900826px;font-style:normal;font-variant:normal;font-weight:bold;font-stretch:normal;text-align:start;line-height:125%;letter-spacing:0px;word-spacing:0px;text-anchor:start;fill:#000000;fill-opacity:1;stroke:none;font-family:FreeSans;-inkscape-font-specification:Lato Bold"
       x="29.770643"
       y="1040.8351"
       id="text3028"
       sodipodi:linespacing="125%"><tspan
         sodipodi:role="line"
         id="tspan3030"
         x="29.770643"
         y="1040.8351"
         style="font-size:34.33801651px;font-style:normal;font-variant:normal;font-weight:bold;font-stretch:normal;text-align:start;text-anchor:start;font-family:Lato;-inkscape-font-specification:Lato Bold">libreboot</tspan></text>
  </g>
</svg>
