<svg xmlns:rdf="http://www.w3.org/1999/02/22-rdf-syntax-ns#" xmlns="http://www.w3.org/2000/svg" height="80mm" width="80mm" version="1.1" xmlns:cc="http://creativecommons.org/ns#" xmlns:dc="http://purl.org/dc/elements/1.1/" viewBox="0 0 283.46457 283.46456">
 <g transform="translate(-244 -370)">
  <path d="m461 533 0.794-2.14c1.83-4.77 3.5-9.77 4.77-14.9 0.397-1.35 0.556-2.62 0.636-3.89-0.159 2.78-0.0792 1.03 0-0.636 0.397-7.86 0.318-11.9-0.159-16-0.318-2.94-0.556-5.8-0.556-8.66-0.0792-2.54-0.159-4.93-0.397-7.31-0.0792-1.03-0.0792-2.07-0.0792-3.18 0-3.57 0.397-7.07 1.27-10.6l1.27-0.556c4.77-2.14 8.98-5.32 12.4-9.29h1.67c1.91 0 3.81-0.238 5.64-0.715 2.38-0.556 4.69-1.43 6.91-2.46 1.03-0.477 1.99-1.11 2.78-1.83 0.556-0.556 1.03-1.27 1.43-1.99 0.477-1.03 1.27-1.83 2.3-2.3 0.953-0.477 1.75-1.11 2.14-2.07 0.397-0.715 0.318-1.59-0.0792-2.3-0.477-0.794-1.27-1.51-2.14-1.75-0.953-0.397-1.91-0.715-2.78-1.11-1.59-0.715-2.86-1.27-4.05-1.83-0.636-0.318-2.62-1.03-4.61-1.51-2.14-0.636-4.21-1.11-6.28-1.67-1.59-0.477-4.05-1.51-6.28-2.94-2.94-1.75-5.96-3.26-9.06-4.45-2.22-0.874-4.69-1.35-7.15-1.51h-3.1l-0.238-0.556-1.03-4.77-0.636-3.89-0.318-1.99 0.715-0.397c3.5-2.22 6.51-5 8.98-8.26 0.556-0.636 0.715-1.43 0.556-2.22-0.159-1.11-1.19-1.91-2.3-1.91-0.477 0-0.953 0.159-1.27 0.477l-3.18 2.07c-2.14 1.51-4.37 2.78-6.67 3.97l-0.477-0.636c-2.62-3.02-4.13-6.91-4.13-11v-1.59c0.238-1.67 0.477-3.5 0.715-5.4 0.0792-0.556 0-1.11-0.159-1.59-0.318-0.715-0.556-1.43-0.874-1.99-0.159-0.556-0.636-0.953-1.19-1.03-0.636 0-1.19 0-1.75 0.238-0.556 0.238-1.19 0.477-1.75 0.794-0.556 0.318-0.874 0.794-1.03 1.43-0.953 3.02-1.35 6.12-1.35 9.29 0 3.73 0.636 7.47 1.83 11 0.556 1.27 1.11 2.54 1.83 3.65 1.19 2.07 2.22 4.13 3.18 6.28 1.27 3.1 1.91 6.36 1.91 9.69v0.715l-1.03 0.556c-2.54 1.51-4.61 3.73-5.88 6.43h-0.953c-3.65 0.318-7.23 1.11-10.6 2.46-2.07 0.794-3.97 2.07-5.48 3.57-0.318 0.397-0.636 0.874-0.794 1.35l0.874 0.397 1.19 0.715 1.19 0.715 1.03 0.636c0.477 0.318 1.03 0.556 1.59 0.715 1.35 0.238 2.62 0.477 3.97 0.477 2.3 0.0792 4.61 0.477 6.83 1.11l-0.556 1.11c-0.636 1.27-1.19 2.54-1.67 3.81-1.11 3.5-2.07 6.99-2.78 10.5-1.59 7.71-3.18 14.9-4.93 22-0.477 2.14-1.43 4.29-2.54 6.28-4.29 7.55-10.6 13.7-18.4 17.6-4.05 2.14-8.42 3.5-12.9 4.29-7.31 1.11-14.6 1.83-21.8 2.07-5.56 0.159-11.4 0.715-17 1.83-2.62 0.477-5.16 0.953-7.63 1.51-4.29 0.874-8.58 2.22-12.7 3.97-4.77 1.99-9.22 4.53-13.2 7.71-3.34 2.62-5.88 6.12-7.31 10.2-0.238 0.556-0.318 1.19-0.318 1.83 0 1.35 0.477 2.62 1.43 3.65s2.3 1.43 3.65 1.19l-1.11 1.91c-0.477 0.636-0.794 1.35-1.11 2.07-0.636 1.75-1.19 3.42-1.67 5.24-1.35 4.93-2.46 9.69-3.42 14.5-0.318 1.83-1.51 3.73-3.34 5.08-0.636 0.477-1.35 0.953-2.07 1.19-1.99 0.874-4.05 1.51-6.04 1.99-2.62 0.556-5.08 1.19-7.47 1.75-0.556 0.159-1.27 0.636-1.75 1.27-0.636 0.953-1.11 1.91-1.27 3.02-0.159 0.794-0.318 1.51-0.397 2.3-0.715 4.29-1.75 8.66-3.18 12.8-1.43 4.21-3.26 8.34-5.32 12.3-0.715 1.35-1.43 2.54-2.3 3.81-0.636 0.953-1.35 2.07-1.83 3.18-0.477 0.953-0.953 1.83-1.51 2.7-0.318 0.556-0.953 1.03-1.59 1.27l-0.874 0.159c-1.67 0.318-3.26 0.794-4.69 1.59-1.59 0.794-3.1 1.59-4.69 2.38-3.5 1.83-7.07 5.16-9.61 9.29-0.159 0.318-0.318 0.794-0.318 1.27 0 0.318 0.0792 0.715 0.238 1.11 0.477 0.953 1.51 1.51 2.54 1.51 10 0.238 19.5-3.89 26.3-11.4 1.99-2.22 4.21-4.77 6.51-7.23 7.86-8.74 12.6-15 16.8-21.7 0.318-0.477 0.715-0.715 1.11-0.715 0.238 0 0.397 0 0.556 0.0792 0.794 0.397 1.51 0.636 2.38 0.715 1.03 0.238 2.46 0.397 3.89 0.715 1.83 0.238 3.65 0.318 5.4 0 2.86-0.397 5.72-1.03 8.42-1.99 4.05-1.35 7.86-3.42 11.2-6.12 5.4-4.21 10.6-8.9 15.8-13.7 2.54-2.46 5.48-4.37 8.74-5.72 9.06-3.81 18.7-6.28 28.6-7.23 3.65-0.318 7.47-0.636 11.2-0.794 2.22-0.159 4.53-0.397 6.75-0.953 2.62-0.715 6.12-1.51 9.61-2.38 3.65-1.03 6.2-1.75 8.58-2.7 4.05-1.51 8.02-3.26 11.9-5l1.19 0.477c1.43 0.715 3.02 1.11 4.69 1.27 5.24 0.238 10.6-0.318 15.6-1.83l4.37-1.19 2.14-0.636 2.14-0.715 3.02-0.953 2.7-0.874c1.99-0.556 3.97-1.19 6.04-1.83 3.1-0.874 4.93-1.35 6.83-1.75l-1.11 1.99-6.43 12.5-6.59 12.3-0.0792 0.238-1.67 0.318c-1.27 0.159-2.54 0.477-3.73 0.953-4.77 1.91-9.29 4.37-13.3 7.47-1.35 1.11-2.54 2.46-3.26 4.13-0.159 0.318-0.477 0.715-0.715 1.03-0.238 0.238-0.318 0.556-0.318 0.874 0 0.397 0.238 0.874 0.636 1.11 0.715 0.397 1.51 0.874 2.3 1.27 0.159 0.0792 0.477 0.159 0.715 0.238 0.874 0.0792 1.75 0.159 2.7 0.159 1.11 0.0792 2.22 0.159 3.42 0.238 1.03 0.0792 1.99 0 2.86-0.318 1.51-0.477 3.1-1.03 4.61-1.75 1.99-0.953 3.89-1.99 5.72-3.18 1.43-0.953 2.78-2.07 3.97-3.34 0.636-0.636 2.38-2.46 4.13-4.37 5-5.16 8.02-8.66 10.9-12.2 2.38-2.94 4.53-5.96 6.75-8.98 1.99-2.86 3.81-5.64 5.48-8.58 0.874-1.43 1.59-2.86 2.38-4.37 0.636-1.27 1.11-2.7 1.27-4.05 0.318-1.59 0-3.26-0.794-4.61-0.636-0.953-1.43-1.67-2.46-2.22-0.556-0.238-1.11-0.397-1.75-0.556-0.397-0.0792-0.794-0.238-1.19-0.477-1.11-0.794-2.38-1.35-3.73-1.67-0.556-0.159-1.27-0.238-1.91-0.238l-5 0.159-2.7 0.159-4.29 0.159h-10.2l-4.05 0.159c-4.85 0.209-9.71 1.08-14.2 2.44z"/>
 </g>
</svg>