<?xml version="1.0" encoding="UTF-8" standalone="no"?>
<!-- Created with Inkscape (http://www.inkscape.org/) -->

<svg
   xmlns:dc="http://purl.org/dc/elements/1.1/"
   xmlns:cc="http://creativecommons.org/ns#"
   xmlns:rdf="http://www.w3.org/1999/02/22-rdf-syntax-ns#"
   xmlns:svg="http://www.w3.org/2000/svg"
   xmlns="http://www.w3.org/2000/svg"
   xmlns:sodipodi="http://sodipodi.sourceforge.net/DTD/sodipodi-0.dtd"
   xmlns:inkscape="http://www.inkscape.org/namespaces/inkscape"
   width="80mm"
   height="80mm"
   viewBox="0 0 283.46457 283.46456"
   id="svg3349"
   version="1.1"
   inkscape:version="0.91 r13725"
   sodipodi:docname="logo_grep.svg">
  <defs
     id="defs3351" />
  <sodipodi:namedview
     id="base"
     pagecolor="#ffffff"
     bordercolor="#666666"
     borderopacity="1.0"
     inkscape:pageopacity="0.0"
     inkscape:pageshadow="2"
     inkscape:zoom="1.4"
     inkscape:cx="78.363617"
     inkscape:cy="129.79266"
     inkscape:document-units="px"
     inkscape:current-layer="layer1"
     showgrid="false"
     fit-margin-top="0"
     fit-margin-left="0"
     fit-margin-right="0"
     fit-margin-bottom="0"
     inkscape:window-width="1280"
     inkscape:window-height="760"
     inkscape:window-x="0"
     inkscape:window-y="0"
     inkscape:window-maximized="1" />
  <metadata
     id="metadata3354">
    <rdf:RDF>
      <cc:Work
         rdf:about="">
        <dc:format>image/svg+xml</dc:format>
        <dc:type
           rdf:resource="http://purl.org/dc/dcmitype/StillImage" />
        <dc:title></dc:title>
      </cc:Work>
    </rdf:RDF>
  </metadata>
  <g
     inkscape:label="Ebene 1"
     inkscape:groupmode="layer"
     id="layer1"
     transform="translate(-244.04728,-370.46192)">
    <path
       inkscape:connector-curvature="0"
       id="path10"
       d="m 461.38431,532.68555 0.79438,-2.14488 c 1.82712,-4.76644 3.49543,-9.77117 4.76645,-14.93478 0.39734,-1.35049 0.55641,-2.62157 0.63551,-3.89259 -0.15906,2.78039 -0.0792,1.03274 0,-0.63551 0.39734,-7.86464 0.31751,-11.91611 -0.15906,-15.96757 -0.31751,-2.93927 -0.5558,-5.79912 -0.5558,-8.65898 -0.0792,-2.54209 -0.15906,-4.92532 -0.39735,-7.30854 -0.0792,-1.03273 -0.0792,-2.06541 -0.0792,-3.17761 0,-3.57483 0.39735,-7.0702 1.27108,-10.56556 l 1.27102,-0.55641 c 4.76644,-2.14494 8.97679,-5.32255 12.39274,-9.29454 l 1.66825,0 c 1.90659,0 3.81312,-0.23829 5.64024,-0.71498 2.38322,-0.55641 4.68703,-1.4299 6.91132,-2.46263 1.03273,-0.47657 1.98599,-1.1122 2.78044,-1.82712 0.55641,-0.55641 1.03268,-1.27108 1.4299,-1.98606 0.47657,-1.03267 1.27108,-1.82712 2.30375,-2.30375 0.95333,-0.47658 1.74772,-1.11215 2.14494,-2.06547 0.39735,-0.71492 0.31751,-1.58878 -0.0792,-2.30376 -0.47657,-0.79438 -1.27108,-1.50936 -2.14494,-1.74771 -0.95327,-0.39734 -1.90653,-0.71492 -2.78039,-1.11214 -1.58883,-0.71498 -2.85985,-1.27108 -4.05146,-1.82712 -0.63551,-0.31751 -2.62151,-1.03273 -4.60751,-1.50937 -2.14493,-0.63551 -4.21034,-1.1122 -6.27581,-1.66824 -1.58883,-0.47657 -4.05146,-1.50937 -6.27581,-2.93932 -2.93926,-1.74772 -5.95799,-3.25702 -9.05619,-4.44869 -2.22429,-0.8738 -4.68698,-1.35049 -7.14961,-1.50937 l -3.0982,0 -0.23829,-0.55641 -1.03273,-4.76638 -0.63551,-3.89259 -0.31751,-1.986 0.71498,-0.39734 c 3.49536,-2.22435 6.5141,-5.0048 8.97673,-8.26181 0.5564,-0.63551 0.71497,-1.42996 0.5564,-2.22435 -0.15906,-1.11214 -1.19161,-1.90659 -2.30375,-1.90659 -0.47657,0 -0.95326,0.15906 -1.27108,0.47657 l -3.17761,2.06547 c -2.14487,1.50937 -4.36922,2.78045 -6.67297,3.97206 l -0.47657,-0.63557 c -2.62157,-3.01874 -4.13094,-6.91132 -4.13094,-10.96279 l 0,-1.58877 c 0.23829,-1.66825 0.47657,-3.49537 0.71498,-5.40196 0.0792,-0.55641 0,-1.11214 -0.15906,-1.58883 -0.31751,-0.71492 -0.55579,-1.4299 -0.8738,-1.986 -0.15906,-0.55641 -0.6355,-0.95327 -1.19161,-1.03274 -0.63551,0 -1.19161,0 -1.74771,0.23829 -0.55641,0.23829 -1.19161,0.47657 -1.74765,0.79439 -0.55641,0.31751 -0.87386,0.79438 -1.03273,1.42989 -0.95333,3.01874 -1.35049,6.11694 -1.35049,9.29455 0,3.73371 0.63551,7.46742 1.82712,11.04225 0.55641,1.27102 1.11214,2.54204 1.82712,3.65424 1.19161,2.06547 2.22434,4.13088 3.17761,6.27581 1.27108,3.09814 1.90659,6.35522 1.90659,9.69171 l 0,0.71498 -1.03274,0.55641 c -2.5421,1.50936 -4.60756,3.73371 -5.87858,6.43468 l -0.95327,0 c -3.6543,0.31751 -7.22907,1.11215 -10.56562,2.46264 -2.06541,0.79438 -3.972,2.06546 -5.48136,3.57483 -0.31751,0.39735 -0.63551,0.87386 -0.79439,1.35049 l 0.8738,0.39734 1.19161,0.71498 1.19161,0.71492 1.03273,0.63557 c 0.47657,0.31751 1.03274,0.55641 1.58884,0.71492 1.35049,0.23828 2.62151,0.47657 3.97199,0.47657 2.30376,0.0792 4.60757,0.47657 6.83192,1.1122 l -0.55641,1.11215 c -0.63557,1.27108 -1.19161,2.54209 -1.66825,3.81318 -1.1122,3.49536 -2.06546,6.99072 -2.78044,10.48609 -1.58884,7.70577 -3.17761,14.85537 -4.92532,22.00504 -0.47658,2.14487 -1.4299,4.28975 -2.5421,6.27581 -4.28976,7.54683 -10.64497,13.6637 -18.35074,17.55629 -4.05147,2.14488 -8.42069,3.49543 -12.94879,4.28981 -7.30848,1.11214 -14.61702,1.82712 -21.8461,2.06541 -5.56083,0.15906 -11.36001,0.71498 -17.00025,1.82718 -2.62157,0.47657 -5.16361,0.95326 -7.6263,1.50937 -4.28975,0.87385 -8.57956,2.22428 -12.71044,3.97199 -4.76644,1.986 -9.21513,4.5281 -13.18713,7.70571 -3.33648,2.62157 -5.87858,6.11693 -7.30854,10.1684 -0.23829,0.55641 -0.31751,1.19161 -0.31751,1.82712 0,1.35049 0.47657,2.62151 1.42996,3.65424 0.95326,1.03273 2.30375,1.42996 3.65424,1.19161 l -1.11214,1.90659 c -0.47657,0.63551 -0.79439,1.35049 -1.11214,2.06547 -0.63558,1.74765 -1.19162,3.41596 -1.66831,5.24308 -1.35049,4.92526 -2.46263,9.6917 -3.41589,14.53755 -0.31751,1.82713 -1.50937,3.73372 -3.33655,5.0842 -0.63551,0.47658 -1.35049,0.95333 -2.06541,1.19162 -1.986,0.87385 -4.05146,1.50936 -6.03746,1.98599 -2.62157,0.55641 -5.0842,1.19161 -7.46742,1.74772 -0.55641,0.15906 -1.27102,0.63551 -1.74772,1.27102 -0.63551,0.95332 -1.11214,1.90659 -1.27102,3.01873 -0.15906,0.79445 -0.3175,1.50942 -0.39734,2.30381 -0.71498,4.28975 -1.74772,8.65897 -3.17761,12.78991 -1.42996,4.21034 -3.25708,8.34122 -5.32255,12.31327 -0.71492,1.35049 -1.42989,2.5421 -2.30375,3.81312 -0.63551,0.95327 -1.35049,2.06547 -1.82712,3.17761 -0.47657,0.95327 -0.95327,1.82712 -1.50937,2.70098 -0.31751,0.55641 -0.95332,1.03273 -1.58883,1.27108 l -0.87386,0.15906 c -1.66824,0.31751 -3.25702,0.79439 -4.68697,1.58877 -1.58878,0.79445 -3.09814,1.58884 -4.68692,2.38323 -3.49542,1.82712 -7.0702,5.16367 -9.6123,9.29454 -0.15906,0.31751 -0.31751,0.79439 -0.31751,1.27102 0,0.31751 0.0792,0.71498 0.23829,1.1122 0.47657,0.95327 1.50937,1.50937 2.5421,1.50937 10.00946,0.23828 19.54229,-3.89259 26.29473,-11.36001 1.98606,-2.22429 4.21034,-4.76639 6.51416,-7.22908 7.86458,-8.73844 12.63103,-15.01425 16.7619,-21.68722 0.31751,-0.47657 0.71498,-0.71498 1.1122,-0.71498 0.23829,0 0.39735,0 0.55641,0.0792 0.79439,0.39735 1.50937,0.63557 2.38316,0.71498 1.03274,0.23829 2.4627,0.39735 3.89259,0.71498 1.82712,0.23829 3.65431,0.31751 5.40196,0 2.85985,-0.39735 5.71971,-1.03273 8.42068,-1.986 4.05147,-1.35049 7.86459,-3.41595 11.20114,-6.11693 5.40195,-4.21034 10.64497,-8.89732 15.80863,-13.74323 2.5421,-2.46263 5.48137,-4.36922 8.73845,-5.71971 9.05619,-3.81312 18.74796,-6.27575 28.59854,-7.22908 3.65424,-0.31751 7.46742,-0.63551 11.20113,-0.79438 2.22429,-0.15907 4.5281,-0.39735 6.75238,-0.95327 2.62157,-0.71498 6.11694,-1.50936 9.6123,-2.38322 3.6543,-1.03274 6.1964,-1.74771 8.57957,-2.70098 4.05152,-1.50936 8.02352,-3.25708 11.91611,-5.00473 l 1.19161,0.47657 c 1.4299,0.71492 3.01873,1.11214 4.68697,1.27102 5.24308,0.23829 10.56557,-0.31751 15.64977,-1.82712 l 4.36922,-1.19161 2.14487,-0.63551 2.14488,-0.71498 3.01873,-0.95326 2.70098,-0.87386 c 1.98606,-0.55641 3.97205,-1.19161 6.03746,-1.82712 3.0982,-0.87386 4.92532,-1.35049 6.83191,-1.74771 l -1.11214,1.98599 -6.43469,12.47216 -6.59356,12.31327 -0.0792,0.23829 -1.66824,0.31751 c -1.27108,0.15906 -2.5421,0.47657 -3.73371,0.95332 -4.76645,1.90653 -9.29454,4.36922 -13.34601,7.46736 -1.35049,1.11221 -2.5421,2.46269 -3.25702,4.13094 -0.15906,0.31751 -0.47657,0.71498 -0.71498,1.03273 -0.23828,0.23829 -0.31751,0.5558 -0.31751,0.8738 0,0.39734 0.23829,0.87385 0.63551,1.1122 0.71498,0.39735 1.50937,0.87386 2.30376,1.27102 0.15906,0.0792 0.47657,0.15906 0.71498,0.23828 0.87385,0.0792 1.74771,0.15907 2.70097,0.15907 1.11221,0.0792 2.22435,0.15906 3.41596,0.23828 1.03273,0.0792 1.986,0 2.85985,-0.31751 1.50937,-0.47657 3.09814,-1.03273 4.60757,-1.74765 1.986,-0.95333 3.89253,-1.98606 5.71971,-3.17767 1.4299,-0.95327 2.78039,-2.06541 3.972,-3.33649 0.63551,-0.63551 2.38322,-2.46263 4.13087,-4.36922 5.00479,-5.16361 8.02352,-8.65897 10.88338,-12.2338 2.38316,-2.93933 4.5281,-5.95806 6.75244,-8.97679 1.986,-2.85986 3.81312,-5.6403 5.48136,-8.57956 0.87386,-1.42996 1.58884,-2.85986 2.38323,-4.36922 0.63551,-1.27109 1.11214,-2.70098 1.27101,-4.05147 0.31751,-1.58884 0,-3.25708 -0.79438,-4.60757 -0.63551,-0.95326 -1.42996,-1.66824 -2.46263,-2.22428 -0.55641,-0.23829 -1.11221,-0.39735 -1.74772,-0.55641 -0.39734,-0.0792 -0.79438,-0.23829 -1.19161,-0.47657 -1.11214,-0.79445 -2.38322,-1.35049 -3.73371,-1.66824 -0.55641,-0.15907 -1.27102,-0.23829 -1.90653,-0.23829 l -5.00479,0.15906 -2.70097,0.15906 -4.28976,0.15907 -10.16839,0 -4.05147,0.15906 c -4.8547,0.20942 -9.70939,1.08125 -14.23307,2.43837 z"
       style="fill:#000000" />
    <path
       style="fill:#cccccc"
       d="m 14.900975,268.30213 c -0.960968,-0.96097 -0.971981,-1.34458 -0.08769,-3.0546 2.354516,-4.55313 11.959168,-11.23802 18.035897,-12.55307 1.967699,-0.42583 2.824387,-1.4587 6.395012,-7.7102 4.946951,-8.66119 8.408794,-17.59332 10.196273,-26.30808 0.7258,-3.5386 1.869589,-7.04151 2.541754,-7.78424 0.672164,-0.74273 2.559562,-1.57321 4.194218,-1.8455 6.766014,-1.12707 11.732242,-3.15714 13.976578,-5.7133 1.215395,-1.38426 2.210675,-3.06815 2.211732,-3.74198 0.0038,-2.42809 4.268464,-18.03772 5.688483,-20.8212 1.775499,-3.48026 1.780631,-3.61823 0.134586,-3.61823 -1.67012,0 -3.686942,-2.19195 -3.666447,-3.98482 0.02896,-2.53377 2.694038,-7.30227 5.725267,-10.24398 9.955595,-9.66158 26.417936,-14.81998 53.727716,-16.83534 21.09607,-1.5568 25.5946,-2.44291 33.74562,-6.6471 6.32935,-3.26459 15.62748,-12.36715 18.38986,-18.00305 1.16705,-2.38105 3.31234,-10.11863 5.44609,-19.642854 1.9363,-8.642857 4.18807,-17.462985 5.00392,-19.600283 0.81585,-2.137298 1.3623,-4.007072 1.21431,-4.155053 -0.14798,-0.147981 -2.63142,-0.608246 -5.51876,-1.022812 -2.88734,-0.414566 -6.45535,-1.416637 -7.9289,-2.226824 l -2.67919,-1.473068 1.54684,-1.646535 c 1.87753,-1.99854 7.74467,-4.280177 12.69491,-4.93685 2.91914,-0.387237 3.87129,-0.863545 4.77103,-2.386689 0.61824,-1.046596 2.18546,-2.630176 3.48271,-3.519065 2.16908,-1.486278 2.33076,-1.856778 2.01183,-4.610206 -0.51658,-4.45982 -1.54023,-7.433632 -4.5326,-13.167763 -3.49113,-6.689884 -4.73878,-13.563644 -3.65218,-20.121112 0.78651,-4.746448 1.99089,-6.490883 4.48137,-6.490883 1.80531,0 2.37751,2.44227 2.1298,9.090423 -0.18076,4.850955 0.0491,6.429751 1.31717,9.049342 2.56559,5.299811 2.91182,5.362724 9.00908,1.637042 8.91735,-5.448875 10.3258,-2.567969 2.35323,4.813404 l -5.10232,4.723974 0.84122,5.093788 c 0.46267,2.801584 0.98573,5.327603 1.16234,5.613375 0.17661,0.285772 2.25476,0.659453 4.61811,0.830401 3.41065,0.246704 5.95454,1.135741 12.33284,4.310076 4.41972,2.199593 10.50746,4.681493 13.52832,5.515333 6.85829,1.893078 14.79237,5.446128 15.33831,6.868822 0.26706,0.69596 -1.09784,2.549111 -3.8672,5.250554 -4.70951,4.594007 -10.24034,7.203466 -15.26797,7.203466 -2.40882,0 -3.5091,0.538362 -6.56667,3.21305 -2.02015,1.767178 -5.34023,4.085957 -7.37796,5.15285 -2.85776,1.496221 -3.80007,2.415264 -4.12083,4.019093 -0.54991,2.749564 -0.42139,20.581324 0.20675,28.686434 0.8489,10.95356 -0.0909,19.65262 -3.07588,28.47242 -1.44413,4.26697 -2.48362,7.90021 -2.30998,8.07385 0.17365,0.17365 2.8432,-0.16301 5.93234,-0.74812 3.27636,-0.62057 11.86663,-1.20995 20.61663,-1.41451 14.51946,-0.33942 15.12585,-0.29725 18.92857,1.31655 2.16071,0.91696 4.55671,2.50447 5.32443,3.52778 1.26327,1.68386 1.31062,2.17926 0.49849,5.21573 -1.82869,6.83727 -12.15188,21.63584 -24.13823,34.60281 -8.39422,9.08096 -9.47981,9.97387 -15.61888,12.84669 -3.91408,1.83162 -5.54862,2.19977 -9.39633,2.11633 -8.34742,-0.18101 -9.32883,-2.04022 -3.85964,-7.31182 3.73682,-3.60181 14.22449,-9.19695 17.24232,-9.19872 1.52302,-7.2e-4 2.61677,-1.67082 9.00593,-13.75 4.27209,-8.07671 6.92426,-13.8286 6.42857,-13.94197 -0.8692,-0.19878 -5.97533,1.24568 -20.8438,5.89646 -9.39814,2.93969 -20.96488,4.14899 -25.28377,2.64342 -1.91036,-0.66596 -3.06743,-0.39707 -9.05193,2.10347 -10.30973,4.30777 -23.9089,7.57434 -35.30716,8.48087 -15.29089,1.21613 -27.8967,4.25363 -37.14286,8.94992 -1.76786,0.89793 -5.94643,4.12248 -9.28571,7.16566 -9.0595,8.2562 -15.885832,13.52145 -20.132903,15.52881 -5.788065,2.73571 -13.448748,4.10783 -18.331937,3.28346 -2.21934,-0.37465 -4.637736,-0.75336 -5.374212,-0.84157 -0.949963,-0.11378 -2.689541,1.70757 -5.986802,6.2682 -5.224227,7.22592 -15.083713,18.83205 -20.659829,24.31978 -5.940037,5.84589 -12.566308,8.85624 -21.802896,9.90517 -2.465803,0.28002 -3.652477,0.0891 -4.458986,-0.71741 z"
       id="path3402"
       inkscape:connector-curvature="0"
       transform="translate(244.04728,370.46192)" />
    <path
       style="fill:#e6e6e6"
       d="m 15.398537,268.2501 c -3.887676,-1.56871 7.478,-11.97049 16.270932,-14.89104 2.994905,-0.99475 3.872726,-1.75095 6.060629,-5.221 3.525228,-5.59105 7.626596,-14.33009 7.114334,-15.15895 -0.232685,-0.37649 -0.10887,-0.68452 0.275142,-0.68452 0.83188,0 3.168045,-6.9005 4.772007,-14.09543 0.633514,-2.84177 1.68978,-5.81458 2.347257,-6.60625 0.73057,-0.87968 3.368929,-1.98925 6.784938,-2.8534 6.173818,-1.56182 10.238273,-3.58207 11.98573,-5.95755 0.630676,-0.85735 2.187788,-5.73737 3.460247,-10.84452 1.27246,-5.10714 2.969885,-10.82228 3.772056,-12.7003 0.80217,-1.87803 1.334345,-3.5021 1.18261,-3.60905 -0.151735,-0.10695 -1.197801,-0.77233 -2.32459,-1.47861 -1.804131,-1.13087 -2.005862,-1.6036 -1.689813,-3.95992 0.509408,-3.79792 3.641562,-8.14682 8.495298,-11.79543 10.271165,-7.72097 23.585056,-11.55039 47.386076,-13.62944 19.99339,-1.74645 26.82737,-2.86303 32.83813,-5.36531 2.94858,-1.2275 6.31747,-3.12524 7.4864,-4.21719 1.16894,-1.09195 2.24935,-1.86135 2.40092,-1.70978 0.15156,0.15157 2.66004,-2.22108 5.5744,-5.27255 5.21972,-5.46532 8.26475,-10.24373 7.40955,-11.62747 -0.24011,-0.3885 -0.0618,-0.70638 0.3963,-0.70638 0.45807,0 0.65581,-0.46137 0.43943,-1.02527 -0.2164,-0.56391 -0.13182,-1.12641 0.18794,-1.25 0.31976,-0.1236 2.08069,-6.49258 3.91318,-14.153297 1.83248,-7.660714 4.0022,-15.974982 4.82158,-18.476151 1.74052,-5.312931 1.80271,-5.232216 -4.98224,-6.467045 -2.62421,-0.477596 -5.8595,-1.439748 -7.18952,-2.138118 l -2.41822,-1.269762 2.49797,-1.905289 c 1.47716,-1.12669 4.94647,-2.522824 8.48964,-3.416443 5.43843,-1.371618 6.34479,-1.860754 9.81566,-5.297261 l 3.82397,-3.786106 -0.4844,-3.522004 c -0.26642,-1.937103 -1.61665,-6.058035 -3.00051,-9.157627 -3.94958,-8.846323 -5.23854,-13.495532 -5.19415,-18.734976 0.0554,-6.537543 1.20756,-9.695536 3.64002,-9.977083 1.71955,-0.199029 1.9415,0.05811 2.4018,2.782668 0.27895,1.65108 0.56371,5.44619 0.6328,8.43358 0.09,3.891248 0.51226,6.083605 1.48898,7.730645 1.40928,2.37648 3.15862,3.5241 3.88184,2.546593 0.22783,-0.307949 0.73568,-0.566559 1.12853,-0.574689 0.39286,-0.0081 2.71405,-1.052774 5.1582,-2.321429 7.7385,-4.016723 7.88083,-2.921874 0.60952,4.688921 l -5.30372,5.551338 1.00188,5.258039 c 0.55102,2.89192 1.08948,5.323161 1.19657,5.402757 0.10708,0.07959 2.3002,0.482056 4.87358,0.894358 2.78418,0.446075 7.84602,2.19611 12.5,4.321637 4.30162,1.964599 10.86424,4.599406 14.58362,5.855128 7.6855,2.594755 13.59464,5.4042 13.59464,6.463454 0,0.395016 -1.32667,2.157481 -2.94816,3.916587 -3.44283,3.73503 -10.16153,7.209844 -15.26613,7.895425 -2.6344,0.353818 -4.69585,1.304989 -7.85714,3.625353 -2.35714,1.730121 -5.73214,4.1988 -7.5,5.485943 l -3.21428,2.340264 -0.0477,23.53279 c -0.049,24.18395 -0.20355,25.8581 -3.24189,35.12302 -0.80217,2.44605 -1.25512,4.77641 -1.00657,5.17857 0.24854,0.40216 0.1115,0.7312 -0.30454,0.7312 -0.41604,0 -0.75644,0.52446 -0.75644,1.16548 0,0.96465 0.52308,1.08892 3.03571,0.72116 7.7762,-1.13813 22.73095,-1.9778 31.42723,-1.76455 9.23513,0.22647 9.71358,0.31425 13.09689,2.40307 2.88028,1.77827 3.55202,2.58325 3.73642,4.47764 0.58671,6.02732 -11.97999,24.58284 -27.48424,40.5822 -4.87472,5.03038 -7.39461,7.02384 -11.06635,8.75447 -5.43789,2.56307 -9.71285,3.31477 -13.81331,2.42889 -3.99512,-0.86312 -4.054,-2.49799 -0.22222,-6.16948 3.06161,-2.93352 13.70495,-9.02745 15.76691,-9.02745 0.57453,0 1.83707,-0.62336 2.80565,-1.38525 2.04237,-1.60652 14.76472,-26.08849 13.97067,-26.88414 -0.52818,-0.52924 -2.95086,0.0815 -19.46763,4.90792 -10.66709,3.11704 -20.09693,4.35905 -25.42457,3.34868 -2.63164,-0.49908 -3.92891,-0.4982 -4.0959,0.003 -0.13443,0.40326 -0.50708,0.57086 -0.82814,0.37243 -0.32106,-0.19842 -3.47911,0.75743 -7.01791,2.12412 -10.9375,4.22398 -29.20795,8.22766 -37.54658,8.22766 -1.4228,0 -2.58951,0.24107 -2.59269,0.53572 -0.003,0.29464 -2.00138,0.58387 -4.44043,0.64272 -2.43905,0.0589 -4.54115,0.42652 -4.67132,0.81703 -0.13017,0.39051 -0.78376,0.56875 -1.45243,0.39608 -1.6833,-0.43469 -13.1636,2.98625 -18.38624,5.47878 -2.37302,1.13254 -6.84224,4.24467 -9.93158,6.91585 -12.03002,10.40166 -16.646628,13.93153 -21.240949,16.24089 -6.09775,3.06508 -13.211642,4.32298 -19.265852,3.40665 -5.545168,-0.83928 -6.014819,-0.58267 -10.832402,5.91887 -4.943028,6.67082 -15.548022,19.01324 -20.66959,24.05591 -2.276486,2.24142 -5.818545,4.8888 -7.871243,5.88308 -6.288389,3.04595 -14.540612,4.70803 -17.482177,3.52108 z"
       id="path3404"
       inkscape:connector-curvature="0"
       transform="translate(244.04728,370.46192)" />
    <path
       style="fill:#e6e6e6"
       d="m 16.278543,269.41174 c -1.484121,-0.13906 -2.493814,-1.18992 -2.493814,-2.5955 0,-0.59621 0.191874,-1.08689 0.766673,-1.96063 1.062165,-1.61458 2.081735,-2.85032 3.616824,-4.38369 1.504126,-1.50243 2.899463,-2.6146 4.507927,-3.59308 0.845259,-0.5142 6.289146,-3.27866 7.112025,-3.61156 0.906918,-0.3669 1.937758,-0.6631 3.135266,-0.90089 0.533299,-0.1059 1.033558,-0.21029 1.111687,-0.23199 0.258376,-0.0718 0.147528,0.0429 -0.191556,0.19812 -0.183485,0.084 -0.758799,0.26514 -1.278475,0.40254 -1.820951,0.48142 -2.843885,0.87508 -4.859206,1.86997 -5.124691,2.52989 -10.261861,6.57714 -12.40147,9.77035 -0.180991,0.27011 -0.501489,0.84778 -0.712218,1.28371 -0.321039,0.66412 -0.388065,0.86137 -0.413504,1.21692 -0.0386,0.53955 0.09596,0.82444 0.652115,1.38059 0.664462,0.66446 1.372436,0.89639 2.742069,0.8983 1.277086,0.002 3.924355,-0.34026 6.155532,-0.79531 3.209033,-0.65448 5.933611,-1.56714 8.649432,-2.89734 3.070304,-1.50383 5.521955,-3.23324 8.359763,-5.89705 2.537091,-2.38153 7.954009,-8.3799 12.605349,-13.9584 3.513535,-4.21389 5.757134,-7.06819 8.843955,-11.25123 1.549298,-2.0995 2.855427,-3.75464 2.860784,-3.62521 0.0012,0.0302 -0.462633,0.75464 -1.030848,1.60993 -2.966041,4.46454 -6.263319,8.76779 -10.555525,13.77593 -1.601604,1.86875 -3.886234,4.44994 -5.080056,5.73949 -0.962385,1.03955 -1.94262,2.12622 -4.301072,4.76808 -3.112241,3.48623 -5.013604,5.20794 -7.819577,7.08075 -5.24796,3.50269 -11.139343,5.41818 -17.545102,5.70451 -1.47222,0.0658 -1.759997,0.0661 -2.436978,0.003 z"
       id="path3406"
       inkscape:connector-curvature="0"
       transform="translate(244.04728,370.46192)" />
    <path
       style="fill:#e6e6e6"
       d="m 35.944951,250.25506 c 0,-0.0269 0.110328,-0.23859 0.245173,-0.47035 0.134845,-0.23177 0.506416,-0.94405 0.825713,-1.58285 0.678134,-1.35671 0.864711,-1.67463 2.02315,-3.44736 1.167403,-1.78646 1.624296,-2.58075 2.723704,-4.73509 0.513892,-1.007 0.935092,-1.79517 0.936001,-1.75148 0.0023,0.1091 -1.382487,2.86729 -2.194039,4.37014 -1.756098,3.25198 -4.559702,7.9354 -4.559702,7.61699 z"
       id="path3408"
       inkscape:connector-curvature="0"
       transform="translate(244.04728,370.46192)" />
    <path
       style="fill:#e6e6e6"
       d="m 45.353916,232.07177 c -0.0011,-0.0307 0.195844,-0.58699 0.437555,-1.2362 0.604834,-1.62452 1.375697,-3.95932 1.793377,-5.43181 0.84039,-2.9627 1.740172,-7.02709 2.089536,-9.43861 0.165139,-1.13989 0.533123,-2.91734 0.690582,-3.33567 0.359757,-0.95578 0.907739,-1.85583 1.416699,-2.3269 0.670085,-0.62019 0.829613,-0.67647 4.159013,-1.46725 1.659246,-0.3941 3.542405,-0.83598 4.184799,-0.98196 2.12377,-0.4826 4.263773,-1.15359 6.024661,-1.889 0.344661,-0.14394 0.657177,-0.25109 0.69448,-0.23812 0.09762,0.034 -1.240487,0.66503 -2.271251,1.07118 -2.204108,0.86846 -4.495295,1.49385 -7.573049,2.06708 -1.984661,0.36965 -2.650532,0.57481 -3.8263,1.17895 -0.911456,0.46832 -1.235379,0.76449 -1.589915,1.45365 -0.700575,1.36182 -1.493957,4.02135 -2.255761,7.56163 -0.392158,1.82245 -0.951017,4.05025 -1.425393,5.68211 -0.726706,2.49987 -2.536204,7.70391 -2.549033,7.33092 z"
       id="path3410"
       inkscape:connector-curvature="0"
       transform="translate(244.04728,370.46192)" />
    <path
       style="fill:#e6e6e6"
       d="m 74.761417,230.04777 c -0.405526,-0.046 -0.8743,-0.11546 -1.04172,-0.15443 -0.279587,-0.0651 -2.48254,-0.45422 -3.839934,-0.67827 -0.526921,-0.087 -1.55646,-0.39034 -1.79216,-0.52807 -0.247606,-0.1447 0.215553,-0.0848 3.654629,0.473 2.640254,0.4282 3.492148,0.50173 5.240166,0.45231 2.572382,-0.0727 5.073396,-0.43764 7.923384,-1.15607 2.219602,-0.55952 5.308451,-1.67705 7.035565,-2.54542 4.126342,-2.07469 10.468043,-6.97129 18.975863,-14.65178 2.57746,-2.32683 4.82979,-4.22996 4.82979,-4.08099 0,0.13753 -4.72286,4.51246 -7.95495,7.36891 -3.21845,2.84439 -7.886892,6.70501 -9.9789,8.25217 -3.357608,2.48313 -7.328423,4.42709 -11.682848,5.71948 -1.925464,0.57147 -3.634731,0.95097 -6.055236,1.34443 -1.31799,0.21423 -1.53258,0.23209 -2.997966,0.24952 -1.019315,0.0121 -1.839518,-0.0108 -2.315683,-0.0648 z"
       id="path3412"
       inkscape:connector-curvature="0"
       transform="translate(244.04728,370.46192)" />
    <path
       style="fill:#e6e6e6"
       d=""
       id="path3414"
       inkscape:connector-curvature="0"
       transform="translate(244.04728,370.46192)" />
    <path
       style="fill:#e6e6e6"
       d="m 151.36756,195.19172 c 0.0906,-0.0905 2.60082,-0.36708 5.9851,-0.65933 1.2327,-0.10645 2.63902,-0.23602 3.12516,-0.28793 9.77828,-1.04415 20.7163,-3.62148 29.75119,-7.0103 0.7905,-0.29651 2.43433,-0.94835 3.65297,-1.44855 2.60408,-1.06887 3.93753,-1.57552 4.28716,-1.62894 0.22448,-0.0343 0.19994,-0.0136 -0.22097,0.18662 -0.26043,0.12386 -1.55311,0.688 -2.87263,1.25364 -7.42038,3.18092 -11.12541,4.41984 -18.78252,6.28069 -1.89246,0.4599 -3.98063,0.97606 -4.64039,1.14701 -3.33088,0.86308 -5.54201,1.20096 -9.02824,1.3796 -2.71215,0.13898 -6.64656,0.42264 -9.65025,0.69577 -1.47298,0.13394 -1.65944,0.14459 -1.60658,0.0917 z"
       id="path3416"
       inkscape:connector-curvature="0"
       transform="translate(244.04728,370.46192)" />
    <path
       style="fill:#e6e6e6"
       d="m 117.1991,205.98952 c 0,-0.0555 1.44829,-1.11269 2.34766,-1.71369 2.53037,-1.6909 8.11529,-3.96994 13.58945,-5.54545 3.18237,-0.91591 7.68335,-1.97709 7.87383,-1.85639 0.0665,0.0422 0.0611,0.0544 -0.0246,0.0551 -0.18022,0.002 -2.75166,0.60832 -4.27781,1.00936 -4.39011,1.15362 -8.9456,2.70135 -13.09302,4.44834 -2.19875,0.92617 -4.18073,2.03608 -5.89133,3.29915 -0.43669,0.32244 -0.52422,0.37312 -0.52422,0.30355 z"
       id="path3418"
       inkscape:connector-curvature="0"
       transform="translate(244.04728,370.46192)" />
    <path
       style="fill:#e6e6e6"
       d="m 206.08005,185.05865 c -1.39116,-0.11632 -3.18383,-0.59543 -4.56478,-1.21998 -0.46987,-0.21251 -0.4891,-0.22848 -0.27588,-0.2292 0.12606,-4.4e-4 0.62325,0.11343 1.10486,0.253 1.97037,0.57103 4.11869,0.76254 7.0944,0.63244 3.51555,-0.1537 7.09471,-0.60919 10.97475,-1.39668 3.22249,-0.65404 4.7901,-1.07578 9.95435,-2.67808 13.03828,-4.04537 17.71825,-5.35085 18.03752,-5.03158 0.059,0.0589 0.0474,0.0758 -0.0519,0.0758 -0.43508,0 -5.21064,1.29246 -8.36095,2.2628 -1.12667,0.34704 -2.40362,0.73509 -2.83767,0.86235 -0.93794,0.27499 -5.75516,1.80302 -7.76555,2.46325 -1.80052,0.59131 -2.58693,0.82328 -5.43074,1.60191 -1.26678,0.34685 -2.66432,0.73017 -3.10564,0.85182 -2.55147,0.70334 -5.50783,1.21527 -8.44681,1.46265 -1.3692,0.11525 -5.34531,0.17152 -6.32592,0.0895 z"
       id="path3420"
       inkscape:connector-curvature="0"
       transform="translate(244.04728,370.46192)" />
    <path
       style="fill:#e6e6e6"
       d="m 221.93929,220.11737 c -0.26264,-0.0135 -2.94454,-0.17841 -5.43968,-0.3344 -0.74822,-0.0468 -1.16156,-0.10282 -1.43201,-0.19415 -0.2091,-0.0706 -0.92853,-0.43308 -1.59873,-0.80547 -1.49786,-0.83227 -1.59954,-0.94059 -1.59954,-1.70409 l 0,-0.48493 0.3927,-0.52116 c 0.21599,-0.28663 0.54866,-0.82604 0.73927,-1.19868 1.09627,-2.1432 2.38625,-3.41362 5.74969,-5.66253 2.94871,-1.9716 6.26137,-3.73464 9.75429,-5.19136 1.84196,-0.76818 2.66503,-1.00948 4.48255,-1.31416 0.53822,-0.0902 1.04961,-0.17864 1.13642,-0.19647 0.15546,-0.0319 0.15498,-0.03 -0.0316,0.13061 -0.22861,0.1968 -0.70767,0.34993 -1.10053,0.35179 -2.33658,0.0111 -10.3643,3.99871 -15.03035,7.46608 -1.17511,0.87323 -1.84085,1.45627 -2.87262,2.51579 -1.82817,1.87733 -2.61517,3.11645 -2.61875,4.12318 -0.005,1.2682 1.28173,1.94117 4.37444,2.28874 1.42837,0.16053 5.59153,0.1608 6.60357,4.5e-4 1.94448,-0.30815 3.63153,-0.93406 7.17184,-2.66085 2.80726,-1.36925 4.47838,-2.45356 6.33272,-4.10903 1.73014,-1.5446 4.95648,-4.88062 8.75973,-9.05752 8.56199,-9.40317 16.55093,-20.08777 20.54699,-27.48005 0.52379,-0.96895 0.54159,-0.99275 0.7429,-0.99318 l 0.20625,-4.4e-4 -0.16379,0.32322 c -0.21672,0.42766 -1.20231,2.139 -2.06821,3.59112 -2.14147,3.59127 -4.68423,7.27827 -8.67352,12.57659 -3.65635,4.85614 -7.27867,9.08352 -12.26698,14.31603 -0.74657,0.78312 -1.95402,2.06231 -2.68322,2.84265 -1.8787,2.01045 -3.56514,3.72135 -4.2459,4.30748 -1.83653,1.58124 -4.12222,3.01845 -7.30772,4.59499 -1.65434,0.81875 -2.68355,1.24291 -4.5286,1.86633 -1.56545,0.52895 -2.31036,0.6661 -3.33165,0.61342 z"
       id="path3422"
       inkscape:connector-curvature="0"
       transform="translate(244.04728,370.46192)" />
    <path
       style="fill:#e6e6e6"
       d="m 235.76776,200.58296 c -0.001,-0.0223 1.31198,-2.49498 2.91796,-5.49492 1.60599,-2.99994 4.29789,-8.12771 5.982,-11.39505 1.68411,-3.26734 3.06982,-5.92064 3.07936,-5.89622 0.0547,0.14026 -2.37909,5.17851 -4.15446,8.60011 -1.20873,2.32955 -3.41578,6.49238 -4.5301,8.54447 -1.6759,3.08628 -3.28486,5.8413 -3.29476,5.64161 z"
       id="path3424"
       inkscape:connector-curvature="0"
       transform="translate(244.04728,370.46192)" />
    <path
       style="fill:#e6e6e6"
       d="m 266.82794,175.06366 c 0,-0.012 0.23776,-0.51632 0.52836,-1.12064 0.90767,-1.88757 1.35938,-3.10953 1.78284,-4.82288 0.28642,-1.15882 0.3849,-2.02666 0.28396,-2.50219 -0.18542,-0.87351 -0.93632,-1.98485 -1.86311,-2.75741 -1.8535,-1.54507 -5.14429,-3.1864 -7.48744,-3.73446 -2.02783,-0.47431 -5.90483,-0.53538 -16.19401,-0.2551 -9.73544,0.26519 -16.79265,0.77628 -20.94171,1.51661 -2.29262,0.40909 -4.56866,0.71998 -4.4691,0.61045 0.10305,-0.11335 3.60831,-0.9308 5.30246,-1.23656 4.67965,-0.84459 8.56143,-1.08077 17.76305,-1.08077 5.16628,0 6.85089,-0.0367 10.07928,-0.21928 2.98549,-0.16889 6.42495,-0.24806 7.09775,-0.16337 1.45658,0.18334 3.19489,0.83434 4.39273,1.64508 0.55666,0.37677 0.81218,0.48421 1.79354,0.75416 1.13338,0.31177 1.68388,0.56132 2.34178,1.06156 1.11616,0.84869 1.7442,1.71806 2.13397,2.95399 0.34949,1.10819 0.39928,2.15088 0.16869,3.53274 -0.25836,1.54826 -0.64905,2.62859 -1.66069,4.59219 -0.63418,1.23094 -0.64446,1.24607 -0.84716,1.24691 -0.11285,4.4e-4 -0.20519,-0.009 -0.20519,-0.021 z"
       id="path3426"
       inkscape:connector-curvature="0"
       transform="translate(244.04728,370.46192)" />
    <path
       style="fill:#e6e6e6"
       d="m 218.40623,158.97756 c -0.003,-0.24065 0.46487,-1.76999 1.51223,-4.94739 0.34338,-1.04172 0.76697,-2.39122 0.9413,-2.99889 2.12593,-7.41036 2.8413,-15.11958 2.24671,-24.21209 -0.0499,-0.76393 -0.10861,-1.58073 -0.13034,-1.81512 l -0.0395,-0.42616 0.19079,0 c 0.23292,0 0.22827,-0.0182 0.3554,1.38896 0.34465,3.81497 0.35909,6.93943 0.0637,13.7949 -0.0591,1.37307 -0.14761,2.63197 -0.22343,3.18003 -0.2695,1.94785 -1.92318,7.84103 -3.39495,12.09852 -0.5487,1.58727 -1.28511,3.62733 -1.42864,3.95778 l -0.0908,0.2091 -0.002,-0.22964 z"
       id="path3428"
       inkscape:connector-curvature="0"
       transform="translate(244.04728,370.46192)" />
    <path
       style="fill:#e6e6e6"
       d="m 222.76586,97.964185 c -0.004,-0.657791 0.0236,-1.065152 0.0898,-1.325825 0.0994,-0.391203 0.52415,-1.32433 0.57817,-1.270307 0.017,0.01699 -0.0458,0.38136 -0.13953,0.809699 -0.0937,0.42834 -0.24968,1.219163 -0.34654,1.757385 l -0.1761,0.978585 -0.006,-0.949537 z"
       id="path3430"
       inkscape:connector-curvature="0"
       transform="translate(244.04728,370.46192)" />
    <path
       style="fill:#e6e6e6"
       d="m 224.149,94.588025 c 0.5895,-0.464776 1.62322,-1.135597 2.43068,-1.577358 1.9044,-1.041902 3.4819,-2.061762 5.36643,-3.469426 1.03014,-0.769467 1.43978,-1.099651 3.09989,-2.498586 1.71311,-1.443599 1.74162,-1.380937 0.10446,0.22957 -2.61206,2.569544 -5.26061,4.511194 -8.41474,6.16884 -0.79945,0.420151 -2.61808,1.275889 -2.70498,1.272806 -0.0218,-7.72e-4 0.0314,-0.0574 0.11826,-0.125846 z"
       id="path3434"
       inkscape:connector-curvature="0"
       transform="translate(244.04728,370.46192)" />
    <path
       style="fill:#e6e6e6"
       d="m 238.03859,85.038503 c 0.0174,-0.01868 0.32988,-0.138339 0.69448,-0.265918 0.65034,-0.227564 0.68866,-0.233074 2.02031,-0.290484 2.19871,-0.09479 3.5941,-0.331904 5.33487,-0.906528 2.64314,-0.872497 5.06032,-2.194989 7.52481,-4.116993 0.67949,-0.52992 1.82064,-1.520828 2.16294,-1.878168 0.11966,-0.124923 0.23843,-0.227133 0.26392,-0.227133 0.065,0 -0.79451,1.473963 -1.1045,1.894036 -0.39372,0.533536 -0.71952,0.865168 -1.27103,1.293794 -0.7252,0.563614 -1.21422,0.856196 -2.31263,1.383644 -3.13626,1.506008 -6.92944,2.646588 -9.9986,3.006507 -0.62305,0.07306 -3.36528,0.161789 -3.31457,0.107243 z"
       id="path3436"
       inkscape:connector-curvature="0"
       transform="translate(244.04728,370.46192)" />
    <path
       style="fill:#e6e6e6"
       d="m 257.68214,75.66443 c 1.00568,-1.052781 1.9696,-2.327595 2.22564,-2.943466 0.15029,-0.361506 0.13121,-0.732634 -0.0503,-0.978677 -0.38275,-0.5188 -1.53846,-1.26649 -3.3788,-2.185931 -3.26675,-1.63208 -7.18869,-3.116049 -11.84251,-4.480929 -1.32689,-0.389153 -3.62606,-1.181716 -3.52541,-1.215268 0.10005,-0.03335 4.16869,1.033694 6.83998,1.793858 1.37488,0.391248 2.38329,0.77237 4.10374,1.550985 2.73609,1.238256 3.68616,1.647161 5.0801,2.186446 0.72797,0.281639 1.46794,0.607914 1.64436,0.725055 1.03782,0.689069 1.67905,1.799573 1.5922,2.757399 -0.073,0.804817 -0.74971,1.845037 -1.55651,2.392544 -0.36384,0.246907 -1.48979,0.887277 -1.56008,0.887277 -0.0219,0 0.17054,-0.220182 0.42761,-0.489293 z"
       id="path3438"
       inkscape:connector-curvature="0"
       transform="translate(244.04728,370.46192)" />
    <path
       style="fill:#e6e6e6"
       d="m 234.079,60.972592 c -0.49366,-0.223101 -1.87158,-0.880131 -3.06202,-1.460067 -4.13739,-2.015553 -5.86746,-2.771296 -7.70955,-3.367743 -1.54858,-0.501413 -2.59949,-0.70346 -4.62286,-0.888789 -1.48967,-0.136445 -2.94109,-0.330701 -3.50068,-0.468526 -0.32407,-0.07982 -0.24827,-0.08599 1.13642,-0.09245 4.4363,-0.02072 7.72396,0.860397 13.06885,3.502527 1.75289,0.866499 2.96062,1.519682 4.51412,2.441396 1.53004,0.90779 1.55625,0.957558 0.17572,0.333654 z"
       id="path3440"
       inkscape:connector-curvature="0"
       transform="translate(244.04728,370.46192)" />
    <path
       style="fill:#e6e6e6"
       d="m 214.31912,54.530111 c -0.0744,-0.0521 -0.17909,-0.229671 -0.23267,-0.394591 -0.25716,-0.79157 -0.69621,-3.10635 -1.4356,-7.568915 -0.3944,-2.380418 -0.44917,-2.80158 -0.37585,-2.889931 0.0472,-0.05688 0.0952,-0.09404 0.10669,-0.08256 0.0115,0.01147 0.23404,1.326146 0.49459,2.921498 0.45108,2.762005 1.35982,7.24809 1.58218,7.810627 0.13562,0.343111 0.11096,0.379194 -0.13934,0.203876 z"
       id="path3442"
       inkscape:connector-curvature="0"
       transform="translate(244.04728,370.46192)" />
    <path
       style="fill:#e6e6e6"
       d="m 213.13324,42.890399 c 0.1035,-0.09945 0.98368,-0.914765 1.95595,-1.811802 3.57027,-3.293997 4.62841,-4.351617 5.73187,-5.72907 0.9073,-1.132579 1.56081,-2.256994 1.67726,-2.885874 l 0.0524,-0.283133 0.0573,0.252538 c 0.0952,0.419456 0.0646,1.167544 -0.063,1.539642 -0.26314,0.767717 -2.60344,3.506887 -4.43904,5.195625 -1.42766,1.313444 -2.65572,2.29049 -4.18931,3.333039 -0.85438,0.580817 -1.12066,0.713037 -0.78346,0.389035 z"
       id="path3444"
       inkscape:connector-curvature="0"
       transform="translate(244.04728,370.46192)" />
    <path
       style="fill:#e6e6e6"
       d="m 212.09773,35.659418 c 1.20213,-0.692891 2.10288,-1.259288 3.88662,-2.443908 2.47987,-1.646946 3.17554,-2.101391 3.50515,-2.289744 0.62273,-0.355851 1.48247,-0.276994 2.19725,0.201536 l 0.34724,0.232469 -0.66291,0.03626 c -1.45556,0.07962 -3.3614,0.921801 -6.91323,3.054917 -1.87812,1.127936 -2.99179,1.738613 -3.17066,1.738613 -0.0601,0 0.30467,-0.238565 0.81054,-0.530144 z"
       id="path3446"
       inkscape:connector-curvature="0"
       transform="translate(244.04728,370.46192)" />
    <path
       style="fill:#e6e6e6"
       d="m 208.62178,36.610504 c -0.58176,-0.291231 -1.05535,-0.864237 -1.72882,-2.091753 -0.22187,-0.404402 -0.84337,-1.640929 -1.09682,-2.182221 -0.29693,-0.634152 -0.62447,-1.454052 -0.67894,-1.69955 -0.0494,-0.222432 -0.205,-1.635067 -0.20108,-1.825 9.3e-4,-0.04524 0.0336,0.06483 0.0758,0.255299 0.59153,2.671905 1.79678,5.140239 3.51499,7.198661 0.2947,0.353054 0.36588,0.446428 0.34031,0.446428 -0.0121,0 -0.11349,-0.04584 -0.22541,-0.101864 z"
       id="path3448"
       inkscape:connector-curvature="0"
       transform="translate(244.04728,370.46192)" />
    <path
       style="fill:#e6e6e6"
       d="m 203.22508,44.854109 c -0.74116,-1.554293 -1.90397,-3.74936 -2.45062,-4.626116 -0.51121,-0.819902 -1.5398,-2.963981 -1.79366,-3.738839 -0.83296,-2.542477 -1.41249,-5.423252 -1.62105,-8.058036 -0.0721,-0.91044 -0.083,-1.183666 -0.0949,-2.371651 l -0.0123,-1.222099 0.17206,0 0.17206,0 -0.0151,0.373884 c -0.0171,0.424236 0.018,1.651923 0.0676,2.370098 0.23811,3.442831 1.09284,6.964897 2.52055,10.386343 0.46741,1.120139 0.84073,1.914886 1.51786,3.231283 0.58101,1.12954 1.12337,2.21348 1.41002,2.818015 0.22621,0.477067 0.5445,1.172498 0.5445,1.189673 0,0.0056 -0.0549,0.01017 -0.12206,0.01017 l -0.12205,0 -0.17297,-0.362724 z"
       id="path3450"
       inkscape:connector-curvature="0"
       transform="translate(244.04728,370.46192)" />
    <path
       style="fill:#e6e6e6"
       d="m 197.28238,24.300459 c 0.11642,-2.757566 0.52234,-5.215042 1.26576,-7.662954 0.37675,-1.240557 0.61884,-1.465455 2.37711,-2.20827 0.88205,-0.37264 0.95865,-0.389918 1.74355,-0.393265 l 0.64842,-0.0028 0.24045,0.118667 c 0.28378,0.140046 0.51326,0.371184 0.6422,0.646847 0.0467,0.09983 0.15326,0.323556 0.23681,0.497176 0.25646,0.532964 0.75299,1.76676 0.82215,2.042931 0.0403,0.160797 0.0717,0.413417 0.0816,0.656071 0.017,0.416277 -0.0528,1.032996 -0.45056,3.977475 -0.0786,0.581627 -0.15106,1.132081 -0.1611,1.223232 -0.01,0.09115 -0.0305,0.165728 -0.0454,0.165728 -0.0328,0 -0.0344,-0.08885 -0.0419,-2.30441 -0.009,-2.648195 -0.12396,-3.892946 -0.46257,-5.003412 -0.28038,-0.919482 -0.76532,-1.478963 -1.38161,-1.593981 -0.56333,-0.105135 -1.43373,0.03399 -2.00158,0.319939 -1.39544,0.702698 -2.25559,2.572293 -2.84451,6.182752 -0.18483,1.133155 -0.36379,2.959392 -0.36578,3.732829 l -3.1e-4,0.118377 -0.16223,0 -0.16223,0 0.0217,-0.512968 z"
       id="path3452"
       inkscape:connector-curvature="0"
       transform="translate(244.04728,370.46192)" />
    <path
       style="fill:#e6e6e6"
       d="m 205.98456,56.31756 c -0.012,-3.615902 -0.76237,-7.11531 -2.2033,-10.275145 -0.1821,-0.399326 -0.33824,-0.743804 -0.34699,-0.765507 -0.011,-0.02728 0.0198,-0.03946 0.0998,-0.03946 0.11361,0 0.11764,0.0043 0.22738,0.244647 0.48961,1.072125 1.12302,2.788399 1.4592,3.9538 0.55407,1.920742 1.02394,4.820421 1.02817,6.34502 0.002,0.632539 -0.0396,0.900469 -0.18736,1.21534 l -0.0741,0.157837 -0.003,-0.836533 z"
       id="path3454"
       inkscape:connector-curvature="0"
       transform="translate(244.04728,370.46192)" />
    <path
       style="fill:#e6e6e6"
       d="m 69.958832,203.3847 c 0.730327,-0.75739 1.444476,-1.9389 1.776024,-2.9383 0.07386,-0.22265 0.254186,-0.99609 0.400718,-1.71875 0.932772,-4.60023 1.815863,-8.37207 2.977719,-12.71836 0.688462,-2.57541 0.979205,-3.53952 1.589121,-5.26956 0.448891,-1.2733 0.829129,-2.11177 1.25046,-2.75743 0.342666,-0.52511 1.34659,-2.24093 1.323505,-2.26202 -0.009,-0.008 -0.147032,0.004 -0.30663,0.0277 -0.584892,0.0862 -1.490416,-0.0522 -2.074278,-0.31692 -1.069016,-0.48471 -2.006127,-1.60357 -2.430227,-2.90156 -0.173253,-0.53025 -0.244018,-1.01983 -0.242592,-1.67831 0.002,-0.94395 0.06852,-1.2269 0.608053,-2.58821 0.691897,-1.74575 1.699913,-3.56522 2.778072,-5.01444 l 0.305576,-0.41074 0.284694,0 c 0.263921,0 0.280437,0.006 0.226358,0.0784 -0.03208,0.0431 -0.231508,0.30931 -0.443165,0.59152 -2.105048,2.80668 -3.570379,6.11938 -3.463754,7.83056 0.05466,0.87727 0.487144,1.76006 1.254606,2.56093 0.813799,0.84923 1.625779,1.26 2.490681,1.26 0.372955,0 0.376803,0.001 0.74663,0.22877 l 0.371744,0.22878 -0.02608,0.19027 c -0.04086,0.29814 -0.250472,0.78731 -0.965811,2.25397 -0.702571,1.44047 -0.912038,1.96117 -1.481607,3.68303 -1.718132,5.19407 -3.964284,13.71376 -4.472508,16.96429 -0.08577,0.54856 -0.168488,0.88163 -0.356531,1.43556 -0.134668,0.3967 -0.284354,0.81058 -0.332634,0.91973 -0.255092,0.57667 -1.739377,2.5331 -1.921794,2.5331 -0.04591,0 0.0011,-0.0746 0.133651,-0.21205 z"
       id="path3456"
       inkscape:connector-curvature="0"
       transform="translate(244.04728,370.46192)" />
    <path
       style="fill:#e6e6e6"
       d="m 77.984066,162.7597 c 0.0675,-0.11919 0.622285,-0.77378 1.178499,-1.39052 1.959983,-2.17323 5.897434,-5.07336 9.941112,-7.3221 0.857374,-0.4768 3.199597,-1.65555 4.040179,-2.03327 4.767974,-2.14249 9.245174,-3.63058 14.107144,-4.68879 4.38183,-0.95371 9.73926,-1.95737 12.74553,-2.38776 4.15775,-0.59523 7.37936,-0.86697 12.45536,-1.05058 1.04353,-0.0377 2.23884,-0.088 2.65625,-0.11166 0.98054,-0.0556 0.91518,-0.0585 0.91518,0.0406 0,0.1047 0.10154,0.0929 -2.54464,0.29531 -20.28131,1.55118 -34.174603,4.75236 -44.099908,10.16115 -4.409532,2.40297 -8.30307,5.44621 -10.774445,8.42145 -0.111139,0.1338 -0.139752,0.14433 -0.392195,0.14433 -0.246436,0 -0.268106,-0.007 -0.228066,-0.0781 z"
       id="path3458"
       inkscape:connector-curvature="0"
       transform="translate(244.04728,370.46192)" />
    <path
       style="fill:#e6e6e6"
       d="m 131.84384,144.24593 c 0.004,-0.004 0.97475,-0.082 2.06131,-0.16499 1.7096,-0.13061 1.99466,-0.15771 2.08289,-0.198 0.034,-0.0155 0.0405,-0.0275 0.0403,-0.0743 -1.8e-4,-0.0717 -0.0117,-0.0756 -0.21197,-0.0714 -0.0813,0.002 -0.25837,0.009 -0.39341,0.0172 -0.29232,0.0169 -0.61525,0.0339 -0.79241,0.0418 -0.7345,0.0326 -1.33418,0.0567 -2.14844,0.0865 -0.29158,0.0106 -0.55462,0.0208 -0.58454,0.0226 -0.0454,0.003 -0.0544,0.002 -0.0544,-0.005 0,-0.01 0.0409,-0.0128 0.226,-0.0176 0.50584,-0.0131 1.73929,-0.0611 2.58092,-0.10048 2.38865,-0.11167 5.01052,-0.28985 7.34822,-0.49938 0.10221,-0.009 0.19073,-0.0167 0.19671,-0.0167 0.0103,0 0.0109,0.004 0.0109,0.0834 l 0,0.0834 -0.0237,0.003 c -0.013,0.002 -0.0978,0.009 -0.18833,0.017 -0.0905,0.008 -0.31153,0.0263 -0.49107,0.0416 -1.96922,0.16775 -4.22271,0.3448 -7.31864,0.57501 -0.95072,0.0707 -2.06721,0.15696 -2.24052,0.17311 -0.0625,0.006 -0.10389,0.007 -0.0998,0.003 z"
       id="path3462"
       inkscape:connector-curvature="0"
       transform="translate(244.04728,370.46192)" />
    <path
       style="fill:#e6e6e6"
       d="m 154.16719,141.92431 0.002,-0.11221 0.16741,-0.0297 c 2.53746,-0.45006 5.04532,-1.09593 7.2951,-1.87879 l 0.20248,-0.0704 0.32995,0.001 0.32995,0.001 -0.19481,0.0738 c -2.36808,0.89703 -4.83265,1.5496 -7.82595,2.07215 -0.15807,0.0276 -0.29184,0.0512 -0.29727,0.0523 -0.009,0.002 -0.01,-0.005 -0.008,-0.11003 z"
       id="path3464"
       inkscape:connector-curvature="0"
       transform="translate(244.04728,370.46192)" />
  </g>
</svg>
