<?xml version="1.0" encoding="UTF-8" standalone="no"?>
<!-- Created with Inkscape (http://www.inkscape.org/) -->

<svg
   xmlns:dc="http://purl.org/dc/elements/1.1/"
   xmlns:cc="http://creativecommons.org/ns#"
   xmlns:rdf="http://www.w3.org/1999/02/22-rdf-syntax-ns#"
   xmlns:svg="http://www.w3.org/2000/svg"
   xmlns="http://www.w3.org/2000/svg"
   xmlns:sodipodi="http://sodipodi.sourceforge.net/DTD/sodipodi-0.dtd"
   xmlns:inkscape="http://www.inkscape.org/namespaces/inkscape"
   width="56.700001"
   height="70.866142"
   id="svg2"
   version="1.1"
   inkscape:version="0.48.4 r9939"
   sodipodi:docname="libreboot-inside-simple-bold-1.60cmx2.00cm-diecut-3.svg">
  <defs
     id="defs4" />
  <sodipodi:namedview
     id="base"
     pagecolor="#ffffff"
     bordercolor="#666666"
     borderopacity="1.0"
     inkscape:pageopacity="0.0"
     inkscape:pageshadow="2"
     inkscape:zoom="1"
     inkscape:cx="28.35"
     inkscape:cy="35.433071"
     inkscape:document-units="cm"
     inkscape:current-layer="layer3"
     showgrid="false"
     units="cm"
     inkscape:showpageshadow="false"
     inkscape:window-width="1366"
     inkscape:window-height="713"
     inkscape:window-x="0"
     inkscape:window-y="33"
     inkscape:window-maximized="1"
     showguides="true">
    <inkscape:grid
       type="xygrid"
       id="grid3129"
       empspacing="1"
       visible="true"
       enabled="true"
       snapvisiblegridlinesonly="true"
       units="in"
       originx="0.451in"
       spacingx="0.031in"
       spacingy="0.031in"
       originy="0.79in" />
  </sodipodi:namedview>
  <metadata
     id="metadata7">
    <rdf:RDF>
      <cc:Work
         rdf:about="">
        <dc:format>image/svg+xml</dc:format>
        <dc:type
           rdf:resource="http://purl.org/dc/dcmitype/StillImage" />
        <dc:title></dc:title>
      </cc:Work>
    </rdf:RDF>
  </metadata>
  <g
     inkscape:groupmode="layer"
     id="layer4"
     inkscape:label="Background"
     transform="translate(0,-0.23385847)">
    <rect
       style="fill:#ff00ff;fill-opacity:1;fill-rule:nonzero;stroke:none"
       id="rect3140"
       width="1856.7"
       height="1871.1"
       x="-900"
       y="-900" />
  </g>
  <g
     inkscape:groupmode="layer"
     id="layer3"
     inkscape:label="Outline"
     transform="translate(0,-0.23385847)">
    <path
       style="fill:#ffffff"
       d="M 40.59375 0 C 40.432654 0 39.857001 -0.01865625 39.15625 0.28125 C 39.16923 0.275706 38.946438 0.32547656 38.53125 0.5625 C 37.812968 0.97188117 37.2696 1.803425 37.0625 2.4375 C 37.0545 2.462772 37.03896 2.505982 37.03125 2.53125 C 37.02325 2.558594 37.00661 2.567334 37 2.59375 C 36.747142 3.4568248 36.65625 4.3146861 36.65625 5.125 C 36.65625 6.1933907 36.831319 7.2138913 37.15625 8.1875 C 37.18176 8.267712 37.21731 8.3599281 37.25 8.4375 C 37.34215 8.647752 37.49588 9.0152846 37.75 9.4375 C 37.89215 9.6835922 38.003712 9.962411 38.125 10.21875 C 37.57441 10.332502 37.037581 10.473251 36.5 10.6875 C 36.491 10.691 36.47776 10.684 36.46875 10.6875 C 35.666865 11.003112 34.990912 11.478508 34.4375 12.03125 C 34.36464 12.10422 34.314303 12.169398 34.25 12.25 C 34.116729 12.416581 33.824395 12.652672 33.59375 13.34375 C 33.37917 13.984646 33.420011 14.723022 33.6875 15.34375 C 33.954989 15.964478 34.448964 16.496342 35.0625 16.78125 L 35.1875 16.8125 L 35.21875 16.84375 L 35.4375 17 L 35.4375 16.96875 L 35.5625 17.0625 C 35.58031 17.07434 35.57609 17.08238 35.59375 17.09375 C 35.717035 17.17313 35.851268 17.222454 35.96875 17.28125 C 35.93482 17.429369 35.87443 17.569176 35.84375 17.71875 C 35.532871 19.224324 35.215062 20.610542 34.875 22 C 34.8706 22.01865 34.879 22.04376 34.875 22.0625 C 34.86324 22.11536 34.78117 22.304658 34.65625 22.53125 C 34.064846 23.565037 33.196859 24.412473 32.15625 24.9375 C 32.13952 24.9457 32.14156 24.929 32.125 24.9375 C 31.633112 25.197592 31.047554 25.413234 30.40625 25.53125 C 29.057483 25.735352 27.717112 25.862561 26.40625 25.90625 C 26.40215 25.906388 26.37911 25.906114 26.375 25.90625 C 23.27925 26.210974 23.272851 26.218136 19.34375 26.8125 C 19.33285 26.82635 19.32338 26.82993 19.3125 26.84375 C 8.4179563 28.248668 -2.3684758e-15 37.507781 0 48.75 C 0 48.77061 -5.6563028e-05 48.7919 0 48.8125 L 0 66.625 C 0 68.9685 1.8752359 70.875 4.21875 70.875 L 22.1875 70.875 L 52.46875 70.875 C 54.81225 70.875 56.6875 68.9685 56.6875 66.625 L 56.6875 41.09375 L 56.6875 15.15625 C 56.6875 13.655371 55.726568 12.423955 54.375 11.96875 C 54.3768 11.95646 54.3731 11.95013 54.375 11.9375 C 53.019819 11.461341 53.004516 11.448223 52.625 11.3125 C 52.28385 11.170475 52.115238 11.137629 52.15625 11.15625 L 52.125 11.125 C 51.841971 10.99779 51.646225 10.909465 51.4375 10.8125 C 51.41869 10.8037 51.39363 10.78993 51.375 10.78125 C 50.771191 10.485711 50.506355 10.445359 50.0625 10.34375 C 50.01634 10.33008 49.98221 10.3253 49.9375 10.3125 C 49.92488 10.3095 49.91926 10.3156 49.90625 10.3125 C 49.462025 10.186521 49.076105 10.07802 48.78125 10 C 48.74293 9.9852 48.451244 9.8591501 48.28125 9.75 C 48.2545 9.732928 48.21482 9.703657 48.1875 9.6875 C 47.637393 9.3607984 47.050261 9.0771685 46.4375 8.8125 C 46.45405 8.791893 46.48362 8.770737 46.5 8.75 C 46.51793 8.729537 46.51393 8.708488 46.53125 8.6875 C 46.55154 8.661369 46.57173 8.618404 46.59375 8.59375 C 47.144738 7.8644464 47.36345 6.8845981 47.25 6.09375 L 47.28125 6.09375 C 47.27525 6.052252 47.25729 6.0094564 47.25 5.96875 C 47.2482 5.95898 47.252 5.947203 47.25 5.9375 L 47.21875 5.9375 C 46.911349 4.3082742 45.562644 3.3125 44.0625 3.3125 C 43.988 3.3125 43.889176 3.30831 43.8125 3.3125 C 43.78934 3.0118279 43.74307 2.7598858 43.65625 2.5 C 43.62906 2.41547 43.59766 2.3315448 43.5625 2.25 C 43.57326 2.274191 43.53494 2.1226712 43.25 1.625 C 42.786172 0.7779425 41.953544 0.16734873 41 0.03125 C 40.869764 0.013679 40.725164 -0.0009713 40.59375 0 z "
       transform="translate(0,0.23385847)"
       id="path3133" />
  </g>
  <g
     inkscape:groupmode="layer"
     id="layer6"
     inkscape:label="Dynamic offset"
     style="display:none"
     transform="translate(0,-0.23385847)">
    <path
       transform="matrix(0.19968748,0,0,0.20008551,-48.685348,-74.132638)"
       sodipodi:type="inkscape:offset"
       inkscape:radius="13.939407"
       inkscape:original="M 447.15625 384.4375 C 446.52074 384.4375 445.96235 384.44921 445.40625 384.6875 C 444.84984 384.92579 444.21229 385.15093 443.65625 385.46875 C 443.09984 385.78626 442.78387 386.27074 442.625 386.90625 C 441.67167 389.92499 441.28125 393.04114 441.28125 396.21875 C 441.28125 399.95246 441.93339 403.67517 443.125 407.25 C 443.68141 408.52102 444.22252 409.79405 444.9375 410.90625 C 446.12911 412.97172 447.17173 415.04257 448.125 417.1875 C 449.39608 420.28564 450.03125 423.53851 450.03125 426.875 L 450.03125 427.59375 L 449 428.15625 C 446.4579 429.66561 444.39602 431.86153 443.125 434.5625 L 442.15625 434.5625 C 438.50195 434.88001 434.9303 435.68076 431.59375 437.03125 C 429.52834 437.82563 427.63436 439.11563 426.125 440.625 C 425.80749 441.02235 425.47138 441.49212 425.3125 441.96875 L 426.1875 442.375 L 427.375 443.0625 L 428.5625 443.78125 L 429.59375 444.4375 C 430.07032 444.75501 430.6314 444.99774 431.1875 445.15625 C 432.53799 445.39453 433.80577 445.625 435.15625 445.625 C 437.46001 445.7042 439.77565 446.08312 442 446.71875 L 441.4375 447.84375 C 440.80193 449.11483 440.25789 450.38516 439.78125 451.65625 C 438.66905 455.15161 437.71498 458.66088 437 462.15625 C 435.41116 469.86202 433.81021 477.00658 432.0625 484.15625 C 431.58592 486.30112 430.64345 488.45144 429.53125 490.4375 C 425.24149 497.98433 418.89327 504.07616 411.1875 507.96875 C 407.13603 510.11363 402.74685 511.48687 398.21875 512.28125 C 390.91027 513.39339 383.60408 514.10546 376.375 514.34375 C 370.81417 514.50281 365.01524 515.04405 359.375 516.15625 C 356.75343 516.63282 354.21269 517.10014 351.75 517.65625 C 347.46025 518.5301 343.16213 519.90854 339.03125 521.65625 C 334.26481 523.64225 329.847 526.16614 325.875 529.34375 C 322.53852 531.96532 319.99246 535.47978 318.5625 539.53125 C 318.32421 540.08766 318.21875 540.70824 318.21875 541.34375 C 318.21875 542.69424 318.70286 543.96727 319.65625 545 C 320.60951 546.03273 321.96201 546.42585 323.3125 546.1875 L 322.21875 548.09375 C 321.74218 548.72926 321.4115 549.44127 321.09375 550.15625 C 320.45817 551.9039 319.91419 553.57913 319.4375 555.40625 C 318.08701 560.33151 316.95326 565.09165 316 569.9375 C 315.68249 571.76463 314.51468 573.68077 312.6875 575.03125 C 312.05199 575.50783 311.30867 575.98046 310.59375 576.21875 C 308.60775 577.0926 306.5485 577.74212 304.5625 578.21875 C 301.94093 578.77516 299.47697 579.38139 297.09375 579.9375 C 296.53734 580.09656 295.82045 580.58324 295.34375 581.21875 C 294.70824 582.17207 294.25263 583.13786 294.09375 584.25 C 293.93469 585.04445 293.76734 585.73686 293.6875 586.53125 C 292.97252 590.821 291.92989 595.21281 290.5 599.34375 C 289.07004 603.55409 287.25297 607.6842 285.1875 611.65625 C 284.47258 613.00674 283.74886 614.19773 282.875 615.46875 C 282.23949 616.42202 281.53913 617.51286 281.0625 618.625 C 280.58593 619.57827 280.08735 620.46989 279.53125 621.34375 C 279.21374 621.90016 278.60426 622.38665 277.96875 622.625 L 277.09375 622.78125 C 275.42551 623.09876 273.8362 623.58062 272.40625 624.375 C 270.81747 625.16945 269.30753 625.95561 267.71875 626.75 C 264.22333 628.57712 260.63585 631.90038 258.09375 636.03125 C 257.93469 636.34876 257.78125 636.83587 257.78125 637.3125 C 257.78125 637.63001 257.87216 638.00903 258.03125 638.40625 C 258.50782 639.35952 259.52977 639.9375 260.5625 639.9375 C 270.57196 640.17578 280.09131 636.02992 286.84375 628.5625 C 288.82981 626.33821 291.07118 623.80644 293.375 621.34375 C 301.23958 612.60531 305.99413 606.32922 310.125 599.65625 C 310.44251 599.17968 310.85278 598.9375 311.25 598.9375 C 311.48829 598.9375 311.65344 598.95205 311.8125 599.03125 C 312.60689 599.4286 313.31371 599.63934 314.1875 599.71875 C 315.22024 599.95704 316.63261 600.11987 318.0625 600.4375 C 319.88962 600.67579 321.7211 600.75501 323.46875 600.4375 C 326.3286 600.04015 329.20528 599.42202 331.90625 598.46875 C 335.95772 597.11826 339.7572 595.04473 343.09375 592.34375 C 348.4957 588.13341 353.74259 583.43966 358.90625 578.59375 C 361.44835 576.13112 364.39917 574.22549 367.65625 572.875 C 376.71244 569.06188 386.39942 566.60958 396.25 565.65625 C 399.90424 565.33874 403.70379 565.00262 407.4375 564.84375 C 409.66179 564.68468 411.96322 564.46217 414.1875 563.90625 C 416.80907 563.19127 420.31714 562.40511 423.8125 561.53125 C 427.4668 560.49851 429.99183 559.76577 432.375 558.8125 C 436.42652 557.30314 440.41991 555.56015 444.3125 553.8125 L 445.5 554.28125 C 446.9299 554.99617 448.51926 555.40362 450.1875 555.5625 C 455.43058 555.80079 460.75955 555.25961 465.84375 553.75 L 470.21875 552.53125 L 472.34375 551.90625 L 474.5 551.1875 L 477.5 550.25 L 480.21875 549.375 C 482.20481 548.81859 484.18459 548.16676 486.25 547.53125 C 489.3482 546.65739 491.18716 546.17847 493.09375 545.78125 L 491.96875 547.78125 L 485.53125 560.25 L 478.9375 572.5625 L 478.875 572.8125 L 477.1875 573.125 C 475.91642 573.28406 474.66036 573.58575 473.46875 574.0625 C 468.7023 575.96903 464.17647 578.43311 460.125 581.53125 C 458.77451 582.64346 457.55867 583.988 456.84375 585.65625 C 456.68469 585.97376 456.39466 586.401 456.15625 586.71875 C 455.91797 586.95704 455.8125 587.2445 455.8125 587.5625 C 455.8125 587.95984 456.07153 588.44915 456.46875 588.6875 C 457.18373 589.08485 457.95561 589.57159 458.75 589.96875 C 458.90906 590.04795 459.23034 590.10828 459.46875 590.1875 C 460.3426 590.2667 461.23424 590.34375 462.1875 590.34375 C 463.29971 590.42295 464.40214 590.51453 465.59375 590.59375 C 466.62648 590.67295 467.5949 590.59876 468.46875 590.28125 C 469.97812 589.80468 471.55307 589.24617 473.0625 588.53125 C 475.0485 587.57792 476.95407 586.53536 478.78125 585.34375 C 480.21115 584.39048 481.55839 583.30233 482.75 582.03125 C 483.38551 581.39574 485.12735 579.56284 486.875 577.65625 C 491.87979 572.49264 494.92139 568.98108 497.78125 565.40625 C 500.16441 562.46692 502.30691 559.45623 504.53125 556.4375 C 506.51725 553.57764 508.33176 550.78301 510 547.84375 C 510.87386 546.41379 511.58061 545.00936 512.375 543.5 C 513.01051 542.22891 513.49738 540.78799 513.65625 539.4375 C 513.97376 537.84866 513.66938 536.19424 512.875 534.84375 C 512.23949 533.89049 511.43892 533.14979 510.40625 532.59375 C 509.84984 532.35546 509.29176 532.22156 508.65625 532.0625 C 508.25891 531.9833 507.86598 531.80078 507.46875 531.5625 C 506.35661 530.76805 505.06924 530.224 503.71875 529.90625 C 503.16234 529.74718 502.44801 529.65625 501.8125 529.65625 L 496.8125 529.8125 L 494.125 529.96875 L 489.8125 530.15625 L 479.65625 530.15625 L 475.59375 530.3125 C 470.73905 530.52192 465.89868 531.39288 461.375 532.75 L 461.375 532.6875 L 462.1875 530.53125 C 464.01462 525.76481 465.66648 520.75736 466.9375 515.59375 C 467.33484 514.24326 467.51465 512.98977 467.59375 511.71875 C 467.43469 514.49914 467.51455 512.73075 467.59375 511.0625 C 467.99109 503.19786 467.88282 499.17646 467.40625 495.125 C 467.08874 492.18573 466.875 489.29736 466.875 486.4375 C 466.7958 483.89541 466.70704 481.53947 466.46875 479.15625 C 466.38955 478.12352 466.375 477.08095 466.375 475.96875 C 466.375 472.39392 466.78252 468.90161 467.65625 465.40625 L 468.9375 464.84375 C 473.70394 462.69881 477.89655 459.53449 481.3125 455.5625 L 483 455.5625 C 484.90659 455.5625 486.79788 455.32044 488.625 454.84375 C 491.00822 454.28734 493.30696 453.40773 495.53125 452.375 C 496.56398 451.89843 497.51805 451.24617 498.3125 450.53125 C 498.86891 449.97484 499.35278 449.27748 499.75 448.5625 C 500.22657 447.52983 501.02983 446.72663 502.0625 446.25 C 503.01583 445.77342 503.79028 445.14082 504.1875 444.1875 C 504.58485 443.47258 504.52171 442.58998 504.125 441.875 C 503.64843 441.08062 502.84261 440.36335 501.96875 440.125 C 501.01548 439.72766 500.06136 439.42847 499.1875 439.03125 C 497.59867 438.31627 496.34786 437.74354 495.15625 437.1875 C 494.52074 436.86999 492.51725 436.16414 490.53125 435.6875 C 488.38632 435.05199 486.31547 434.58729 484.25 434.03125 C 482.66117 433.55468 480.22435 432.5237 478 431.09375 C 475.06074 429.34603 472.0357 427.81667 468.9375 426.625 C 466.71321 425.7512 464.24388 425.28388 461.78125 425.125 L 458.6875 425.125 L 458.4375 424.5625 L 457.40625 419.8125 L 456.78125 415.90625 L 456.46875 413.90625 L 457.1875 413.53125 C 460.68286 411.3069 463.69362 408.50701 466.15625 405.25 C 466.71265 404.61449 466.87732 403.82564 466.71875 403.03125 C 466.55969 401.91911 465.51839 401.125 464.40625 401.125 C 463.92968 401.125 463.44282 401.27624 463.125 401.59375 L 459.96875 403.6875 C 457.82388 405.19687 455.585 406.46464 453.28125 407.65625 L 452.8125 407 C 450.19093 403.98126 448.6875 400.11397 448.6875 396.0625 L 448.6875 394.46875 C 448.92579 392.8005 449.13659 390.96909 449.375 389.0625 C 449.4542 388.50609 449.37781 387.94544 449.21875 387.46875 C 448.90124 386.75383 448.66176 386.02485 448.34375 385.46875 C 448.18469 384.91234 447.71236 384.51697 447.15625 384.4375 z "
       style="fill:#ffffff"
       id="path3133-8"
       d="m 447.15625,370.5 c -0.80674,0 -3.74076,-0.12871 -7.25,1.375 0.065,-0.0278 -1.07706,0.31158 -3.15625,1.5 -3.59703,2.05261 -6.30663,6.19579 -7.34375,9.375 l -0.0625,-0.0312 c -0.04,0.12671 -0.0551,0.24831 -0.0937,0.375 -0.0402,0.1371 -0.12314,0.30505 -0.15625,0.4375 l 0.0625,0 c -1.26627,4.3274 -1.8125,8.62464 -1.8125,12.6875 0,5.35684 0.9353,10.55589 2.5625,15.4375 a 13.940801,13.940801 0 0 0 0.4375,1.1875 c 0.46149,1.05419 1.28991,2.88304 2.5625,5 l -0.0312,0.0312 c 0.71186,1.23389 1.29886,2.49598 1.90625,3.78125 -2.75726,0.57034 -5.49539,1.33202 -8.1875,2.40625 l 0,-0.0312 c -0.0453,0.0174 -0.0799,0.0449 -0.125,0.0625 -0.031,0.0125 -0.0628,0.0187 -0.0937,0.0312 -4.0157,1.58246 -7.32236,3.88484 -10.09375,6.65625 A 13.940801,13.940801 0 0 0 415.25,431.9375 c -0.6674,0.83523 -2.00122,2.15998 -3.15625,5.625 a 13.940801,13.940801 0 0 0 7.34375,17.0625 l 0.53125,0.25 0.1875,0.125 1.1875,0.71875 0,-0.0312 0.53125,0.34375 c 0.0892,0.0594 0.16154,0.0992 0.25,0.15625 0.61739,0.39803 1.22417,0.67395 1.8125,0.96875 -0.16994,0.74266 -0.4401,1.43755 -0.59375,2.1875 -0.002,0.01 0.002,0.0213 0,0.0312 -1.55683,7.54885 -3.10953,14.5021 -4.8125,21.46875 a 13.940801,13.940801 0 0 0 -0.0625,0.28125 c -0.0589,0.26503 -0.43695,1.30138 -1.0625,2.4375 -0.0164,0.0298 -0.0145,0.0325 -0.0312,0.0625 -2.96165,5.18334 -7.25756,9.2738 -12.46875,11.90625 a 13.940801,13.940801 0 0 0 -0.25,0.125 c -2.46329,1.30408 -5.31971,2.25203 -8.53125,2.84375 -0.0412,0.006 -0.0838,-0.006 -0.125,0 -6.75439,1.02335 -13.46668,1.6872 -20.03125,1.90625 -0.0206,6.9e-4 -0.0419,-6.8e-4 -0.0625,0 -6.10985,0.17741 -12.53954,0.76425 -19.03125,2.03125 -0.0194,0.004 -0.0431,-0.004 -0.0625,0 -0.0426,0.008 -0.0824,0.0228 -0.125,0.0312 -2.49251,0.45324 -5.05278,0.9368 -7.71875,1.53125 -0.0423,0.009 -0.0828,0.0226 -0.125,0.0312 -0.0541,0.0121 -0.10212,0.019 -0.15625,0.0312 -5.19149,1.07886 -10.2334,2.69321 -15.03125,4.71875 -0.0212,0.009 -0.0413,0.0223 -0.0625,0.0312 -5.7572,2.40494 -11.28895,5.56489 -16.34375,9.59375 l 0,-0.0312 c -0.0349,0.0274 -0.059,0.0662 -0.0937,0.0937 -5.09071,4.03012 -9.02264,9.41619 -11.375,15.5625 l -0.0312,0 c -0.0417,0.0973 -0.0542,0.18435 -0.0937,0.28125 -0.0749,0.20085 -0.17853,0.39127 -0.25,0.59375 l 0.0625,0.0312 c -0.83669,2.29142 -1.1875,4.48601 -1.1875,6.40625 0,2.9711 0.83269,6.00789 2.21875,8.75 -0.16343,0.5575 -0.34731,1.04635 -0.5,1.625 -0.0151,0.0571 -0.0475,0.0989 -0.0625,0.15625 l 0.0312,0 c -1.12183,4.10182 -2.03817,8.14868 -2.90625,12.21875 -0.59519,0.1925 -1.11987,0.41127 -1.75,0.5625 l 0,0.0312 c -2.73985,0.58887 -5.20647,1.18149 -7.375,1.6875 a 13.940801,13.940801 0 0 0 -0.6875,0.15625 c -4.73895,1.35472 -6.61025,3.0433 -9.0625,6.3125 A 13.940801,13.940801 0 0 0 283.75,573.5 c -1.23619,1.85439 -2.6201,4.68625 -3.25,8 l -0.0625,0 c -0.0156,0.0781 -0.0677,0.476 -0.0937,0.59375 -0.0107,0.0691 -0.0526,0.11793 -0.0625,0.1875 l 0.0312,0 c -0.0954,0.43294 -0.21689,1.10942 -0.34375,1.96875 l -0.0312,0 c -0.60734,3.64391 -1.50892,7.3069 -2.625,10.53125 a 13.940801,13.940801 0 0 0 0,0.0937 c -1.1548,3.40016 -2.67542,6.85056 -4.4375,10.25 -0.0175,0.0338 -0.045,0.06 -0.0625,0.0937 -0.45536,0.85296 -0.85503,1.49655 -1.4375,2.34375 a 13.940801,13.940801 0 0 0 -0.0937,0.1875 c -0.3588,0.5382 -0.96022,1.77299 -1.46875,2.625 -1.16791,0.4087 -2.39853,0.92053 -3.625,1.5625 l 0,-0.0312 c -0.18288,0.0914 -0.32167,0.1602 -0.5,0.25 -0.0218,0.012 -0.0407,0.0191 -0.0625,0.0312 -1.47123,0.74145 -2.84128,1.45189 -4.125,2.09375 a 13.940801,13.940801 0 0 0 -0.25,0.125 c -6.17499,3.22778 -11.17015,8.03827 -15.03125,14.3125 a 13.940801,13.940801 0 0 0 -0.59375,1.0625 c -1.10831,2.21237 -1.78125,4.06297 -1.78125,7.53125 0,2.97828 0.63448,4.74442 1.25,6.28125 a 13.940801,13.940801 0 0 0 0.46875,1.03125 c 2.97609,5.95299 8.55862,9.10223 14.65625,9.21875 l 0,0.0312 c 0.0941,0.002 0.1872,-0.002 0.28125,0 0.0209,3.7e-4 0.0416,-3.5e-4 0.0625,0 13.94081,0.23111 27.29968,-5.65602 36.625,-15.96875 a 13.940801,13.940801 0 0 0 0.0625,-0.0625 c 2.01585,-2.25765 4.18338,-4.6928 6.3125,-6.96875 a 13.940801,13.940801 0 0 0 0.1875,-0.21875 c 5.53138,-6.14599 9.55504,-11.31234 13.15625,-16.34375 2.35824,0.28065 5.19244,0.42227 8.46875,-0.0937 l 0,0.0312 c 0.14277,-0.0198 0.29405,-0.073 0.4375,-0.0937 0.0493,-0.007 0.10687,0.007 0.15625,0 3.31043,-0.48656 6.7819,-1.23106 10.34375,-2.46875 0.0739,-0.0257 0.14477,-0.0364 0.21875,-0.0625 l 0,-0.0312 c 5.46229,-1.84986 10.59182,-4.62104 15.125,-8.25 0.0227,-0.0182 0.0398,-0.0443 0.0625,-0.0625 0.0475,-0.0371 0.10881,-0.0566 0.15625,-0.0937 5.83265,-4.5614 11.30186,-9.50057 16.5625,-14.4375 a 13.940801,13.940801 0 0 0 0.15625,-0.15625 c 1.25134,-1.21223 2.68323,-2.12933 4.40625,-2.84375 a 13.940801,13.940801 0 0 0 0.0625,-0.0312 c 7.74967,-3.26301 16.08988,-5.37055 24.53125,-6.1875 3.62452,-0.31492 7.17567,-0.61121 10.4375,-0.75 a 13.940801,13.940801 0 0 0 0.40625,-0.0312 c 2.46445,-0.17624 5.55521,-0.42029 9.125,-1.3125 a 13.940801,13.940801 0 0 0 0.28125,-0.0937 c 2.07855,-0.56688 5.62778,-1.35224 9.34375,-2.28125 a 13.940801,13.940801 0 0 0 0.40625,-0.125 c 3.58243,-1.01243 6.52291,-1.86159 9.65625,-3.09375 l 0,0.0312 c 0.0873,-0.0325 0.16289,-0.0611 0.25,-0.0937 0.0228,-0.009 0.0398,-0.0227 0.0625,-0.0312 2.56407,-0.96286 4.86153,-2.00423 7.25,-3.03125 1.37278,0.33095 2.74745,0.59351 4.0625,0.71875 a 13.940801,13.940801 0 0 0 0.6875,0.0625 c 1.24514,0.0566 2.52137,-0.11068 3.78125,-0.125 -0.54919,0.39302 -1.14772,0.68098 -1.6875,1.09375 a 13.940801,13.940801 0 0 0 -0.40625,0.3125 c -2.15069,1.77122 -4.6029,4.32385 -6.46875,7.9375 0.0246,-0.0196 0.18196,-0.32597 0.21875,-0.375 l 0.0937,0.0625 c -0.13658,0.18671 -0.30871,0.33641 -0.4375,0.53125 -0.009,0.014 -0.0199,0.0437 -0.0312,0.0625 -0.0735,0.14736 -0.14748,0.28653 -0.21875,0.4375 l -0.0312,-0.0312 c 0.24659,-0.49223 0.17259,-0.2777 0.25,-0.40625 -1.72849,2.64112 -2.75,5.93083 -2.75,8.5625 0,6.4555 2.08435,9.86912 7.40625,13.0625 a 13.940801,13.940801 0 0 0 0.40625,0.25 c 0.21355,0.11868 1.20528,0.74334 2.84375,1.5625 4.33501,2.15851 3.8394,1.40343 2.53125,0.96875 a 13.940801,13.940801 0 0 0 3.15625,0.65625 c 0.68314,0.0619 1.82893,0.11555 2.96875,0.15625 l 0,0.0312 c 0.96779,0.0689 2.0719,0.16418 3.34375,0.25 0.0473,0.003 0.0772,-0.003 0.125,0 2.19134,0.15876 4.94045,-0.0132 7.96875,-1 l 0.0312,0.0625 c 0.10925,-0.0345 0.26344,-0.12053 0.375,-0.15625 0.0649,-0.0228 0.12237,-0.008 0.1875,-0.0312 l 0,-0.0312 c 1.7261,-0.55687 3.66003,-1.19926 5.8125,-2.21875 a 13.940801,13.940801 0 0 0 0.0625,-0.0312 c 2.42428,-1.16372 4.88703,-2.48071 7.3125,-4.0625 a 13.940801,13.940801 0 0 0 0.0937,-0.0937 c 2.032,-1.35467 4.12359,-3.0181 6.09375,-5.0625 0.0529,-0.0549 0.10351,-0.10077 0.15625,-0.15625 0.0379,-0.0381 0.11733,-0.11689 0.15625,-0.15625 1.02058,-1.03206 2.37559,-2.48535 3.96875,-4.21875 0.10936,-0.11899 0.16984,-0.15971 0.28125,-0.28125 l -0.0312,0 c 5.02785,-5.20445 8.45632,-9.11276 11.46875,-12.875 0.0202,-0.0249 0.0423,-0.0376 0.0625,-0.0625 2.71465,-3.35405 4.975,-6.53082 7.09375,-9.40625 a 13.940801,13.940801 0 0 0 0.21875,-0.34375 c 2.05944,-2.96562 4.03548,-6.02016 5.90625,-9.28125 l 0.0312,0.0312 c 0.0985,-0.16114 0.12514,-0.24928 0.21875,-0.40625 1.0925,-1.83194 1.9291,-3.4559 2.59375,-4.71875 a 13.940801,13.940801 0 0 0 0.125,-0.28125 c 1.10229,-2.20469 1.95788,-4.63356 2.4375,-7.5625 l 0.0312,0 c 0.0293,-0.1467 0.005,-0.29096 0.0312,-0.4375 0.0344,-0.2363 0.12755,-0.4123 0.15625,-0.65625 l -0.0625,0 c 0.68462,-4.70792 -0.21759,-9.29478 -2.5625,-13.28125 A 13.940801,13.940801 0 0 0 524.46875,527.125 C 522.6848,524.44909 519.93459,521.89263 517,520.3125 a 13.940801,13.940801 0 0 0 -1.09375,-0.53125 c -1.26763,-0.54288 -1.84821,-0.62733 -2.5625,-0.8125 -1.91567,-1.07108 -3.85272,-1.90096 -5.78125,-2.40625 l 0,-0.0625 c -0.12106,-0.0346 -0.19538,5.3e-4 -0.3125,-0.0312 -0.11464,-0.0286 -0.22939,-0.0981 -0.34375,-0.125 l 0,0.0625 c -1.85319,-0.47103 -3.35308,-0.6875 -5.09375,-0.6875 a 13.940801,13.940801 0 0 0 -0.4375,0 l -5,0.15625 a 13.940801,13.940801 0 0 0 -0.375,0.0312 l -2.46875,0.15625 0,-0.0312 -4.3125,0.1875 -8.34375,0 c 0.18599,-1.10371 0.49293,-2.28668 0.5625,-3.25 0.001,0.13643 7.1e-4,0.32165 0,0.375 0.002,-0.0548 0.0213,-0.39927 0.0312,-0.625 0.002,-0.0456 0.029,-0.0749 0.0312,-0.125 0.0154,-0.34651 0.0124,-0.47813 0.0312,-0.875 l -0.0312,0 c 0.40822,-8.1233 0.30946,-13.27102 -0.25,-18.09375 -0.005,-0.0456 0.005,-0.0795 0,-0.125 -0.27555,-2.58003 -0.4375,-4.93469 -0.4375,-7.0625 a 13.940801,13.940801 0 0 0 0,-0.4375 c -0.0779,-2.49913 -0.16858,-5.09013 -0.4375,-7.90625 -0.0345,-0.44935 -0.0625,-1.13437 -0.0625,-2.125 0,-0.56828 0.15904,-1.07538 0.1875,-1.625 2.42075,-1.51482 4.69555,-3.19374 6.8125,-5.09375 1.50633,-0.17935 2.99443,-0.47573 4.46875,-0.84375 0.12321,-0.0308 0.25208,-0.0304 0.375,-0.0625 l 0,-0.0312 c 3.44639,-0.83944 6.51701,-2.02813 9.21875,-3.28125 0.009,-0.004 0.0226,0.004 0.0312,0 2.44896,-1.13336 4.43942,-2.52379 6.21875,-4.125 a 13.940801,13.940801 0 0 0 0.53125,-0.53125 c 1.26201,-1.26201 2.11685,-2.42771 2.84375,-3.5625 1.91859,-1.39232 3.82688,-3.18546 5.28125,-5.875 l 0.0937,0.0312 c 0.10805,-0.19441 0.11989,-0.39847 0.21875,-0.59375 0.14139,-0.28871 0.34232,-0.50908 0.46875,-0.8125 l -0.125,-0.0625 c 2.21601,-5.08595 1.61373,-10.3402 -0.625,-14.375 a 13.940801,13.940801 0 0 0 -0.21875,-0.40625 c -1.89573,-3.15994 -4.36023,-5.77435 -8.78125,-7.40625 l 0.0312,-0.0625 c -1.70842,-0.7121 -2.58038,-0.99961 -2.375,-0.90625 a 13.940801,13.940801 0 0 0 -0.0625,-0.0312 c -1.41736,-0.63782 -2.48599,-1.10758 -3.53125,-1.59375 -0.0942,-0.0438 -0.21923,-0.11273 -0.3125,-0.15625 l 0,0.0312 c -3.02377,-1.48181 -4.33975,-1.77179 -6.5625,-2.28125 -0.23116,-0.0685 -0.3386,-0.0921 -0.5625,-0.15625 -0.0632,-0.015 -0.0911,-0.0156 -0.15625,-0.0312 -2.2246,-0.63165 -4.17967,-1.10881 -5.65625,-1.5 -0.19192,-0.0742 -1.74245,-0.70273 -2.59375,-1.25 a 13.940801,13.940801 0 0 0 -0.40625,-0.25 c -2.75484,-1.63806 -5.71265,-3.11047 -8.78125,-4.4375 0.0829,-0.10332 0.19923,-0.17728 0.28125,-0.28125 l 0.0312,0.0312 c 0.0898,-0.1026 0.132,-0.23852 0.21875,-0.34375 0.12194,-0.15722 0.28628,-0.27883 0.40625,-0.4375 l -0.0625,-0.0625 c 2.75925,-3.65668 3.78689,-8.56599 3.21875,-12.53125 l 0.0937,0 c -0.0298,-0.20807 -0.11972,-0.38965 -0.15625,-0.59375 -0.009,-0.049 0.01,-0.1076 0,-0.15625 l -0.0312,0 c -1.53941,-8.16883 -8.42504,-13.125 -15.9375,-13.125 -0.37307,0 -0.77227,0.0727 -1.15625,0.0937 -0.11597,-1.50755 -0.3777,-2.9157 -0.8125,-4.21875 a 13.940801,13.940801 0 0 0 -0.46875,-1.25 c 0.0539,0.12129 -0.1043,-0.75471 -1.53125,-3.25 l -0.0937,0.0312 c -2.32277,-4.24709 -6.44357,-7.28636 -11.21875,-7.96875 a 13.940801,13.940801 0 0 0 -1.96875,-0.125 z m 19.53125,128.75 c -5e-5,0 13.09379,7.34383 13.09375,7.34375 -4e-5,-8e-5 1.28129,3.37517 1.28125,3.375 -4e-5,-1.7e-4 0.20927,0.99045 0.25,1.28125 0.0508,0.36299 0.0125,0.27305 0.0312,0.46875 l -13.75,-0.65625 13.75,0.71875 c 0.0272,0.31086 0.0941,0.69891 0.0937,0.8125 l -13.84375,-0.875 L 453.75,510.9375 c 0.003,-0.0168 -0.003,-0.0135 0,-0.0312 0.0327,-0.19931 0.0617,-0.44126 0.1875,-0.96875 0.0629,-0.26374 0.34381,-1.15642 0.34375,-1.15625 -6e-5,1.7e-4 1.2813,-2.78134 1.28125,-2.78125 -5e-5,9e-5 11.12505,-6.75 11.125,-6.75 z m 47.5,20.1875 c -0.0109,0.13509 0.23499,0.4154 0.40625,0.21875 -0.1329,-0.0854 -0.27275,-0.1367 -0.40625,-0.21875 z" />
  </g>
  <g
     inkscape:label="Foreground"
     inkscape:groupmode="layer"
     id="layer1"
     transform="translate(0,-981.49359)">
    <g
       transform="matrix(0.19968748,0,0,0.20008551,-48.685348,907.12711)"
       id="layer1-9"
       inkscape:label="Ebene 1">
      <path
         style="fill:#000000"
         d="m 461.38431,532.68555 0.79438,-2.14488 c 1.82712,-4.76644 3.49543,-9.77117 4.76645,-14.93478 0.39734,-1.35049 0.55641,-2.62157 0.63551,-3.89259 -0.15906,2.78039 -0.0792,1.03274 0,-0.63551 0.39734,-7.86464 0.31751,-11.91611 -0.15906,-15.96757 -0.31751,-2.93927 -0.5558,-5.79912 -0.5558,-8.65898 -0.0792,-2.54209 -0.15906,-4.92532 -0.39735,-7.30854 -0.0792,-1.03273 -0.0792,-2.06541 -0.0792,-3.17761 0,-3.57483 0.39735,-7.0702 1.27108,-10.56556 l 1.27102,-0.55641 c 4.76644,-2.14494 8.97679,-5.32255 12.39274,-9.29454 l 1.66825,0 c 1.90659,0 3.81312,-0.23829 5.64024,-0.71498 2.38322,-0.55641 4.68703,-1.4299 6.91132,-2.46263 1.03273,-0.47657 1.98599,-1.1122 2.78044,-1.82712 0.55641,-0.55641 1.03268,-1.27108 1.4299,-1.98606 0.47657,-1.03267 1.27108,-1.82712 2.30375,-2.30375 0.95333,-0.47658 1.74772,-1.11215 2.14494,-2.06547 0.39735,-0.71492 0.31751,-1.58878 -0.0792,-2.30376 -0.47657,-0.79438 -1.27108,-1.50936 -2.14494,-1.74771 -0.95327,-0.39734 -1.90653,-0.71492 -2.78039,-1.11214 -1.58883,-0.71498 -2.85985,-1.27108 -4.05146,-1.82712 -0.63551,-0.31751 -2.62151,-1.03273 -4.60751,-1.50937 -2.14493,-0.63551 -4.21034,-1.1122 -6.27581,-1.66824 -1.58883,-0.47657 -4.05146,-1.50937 -6.27581,-2.93932 -2.93926,-1.74772 -5.95799,-3.25702 -9.05619,-4.44869 -2.22429,-0.8738 -4.68698,-1.35049 -7.14961,-1.50937 l -3.0982,0 -0.23829,-0.55641 -1.03273,-4.76638 -0.63551,-3.89259 -0.31751,-1.986 0.71498,-0.39734 c 3.49536,-2.22435 6.5141,-5.0048 8.97673,-8.26181 0.5564,-0.63551 0.71497,-1.42996 0.5564,-2.22435 -0.15906,-1.11214 -1.19161,-1.90659 -2.30375,-1.90659 -0.47657,0 -0.95326,0.15906 -1.27108,0.47657 l -3.17761,2.06547 c -2.14487,1.50937 -4.36922,2.78045 -6.67297,3.97206 l -0.47657,-0.63557 c -2.62157,-3.01874 -4.13094,-6.91132 -4.13094,-10.96279 l 0,-1.58877 c 0.23829,-1.66825 0.47657,-3.49537 0.71498,-5.40196 0.0792,-0.55641 0,-1.11214 -0.15906,-1.58883 -0.31751,-0.71492 -0.55579,-1.4299 -0.8738,-1.986 -0.15906,-0.55641 -0.6355,-0.95327 -1.19161,-1.03274 -0.63551,0 -1.19161,0 -1.74771,0.23829 -0.55641,0.23829 -1.19161,0.47657 -1.74765,0.79439 -0.55641,0.31751 -0.87386,0.79438 -1.03273,1.42989 -0.95333,3.01874 -1.35049,6.11694 -1.35049,9.29455 0,3.73371 0.63551,7.46742 1.82712,11.04225 0.55641,1.27102 1.11214,2.54204 1.82712,3.65424 1.19161,2.06547 2.22434,4.13088 3.17761,6.27581 1.27108,3.09814 1.90659,6.35522 1.90659,9.69171 l 0,0.71498 -1.03274,0.55641 c -2.5421,1.50936 -4.60756,3.73371 -5.87858,6.43468 l -0.95327,0 c -3.6543,0.31751 -7.22907,1.11215 -10.56562,2.46264 -2.06541,0.79438 -3.972,2.06546 -5.48136,3.57483 -0.31751,0.39735 -0.63551,0.87386 -0.79439,1.35049 l 0.8738,0.39734 1.19161,0.71498 1.19161,0.71492 1.03273,0.63557 c 0.47657,0.31751 1.03274,0.55641 1.58884,0.71492 1.35049,0.23828 2.62151,0.47657 3.97199,0.47657 2.30376,0.0792 4.60757,0.47657 6.83192,1.1122 l -0.55641,1.11215 c -0.63557,1.27108 -1.19161,2.54209 -1.66825,3.81318 -1.1122,3.49536 -2.06546,6.99072 -2.78044,10.48609 -1.58884,7.70577 -3.17761,14.85537 -4.92532,22.00504 -0.47658,2.14487 -1.4299,4.28975 -2.5421,6.27581 -4.28976,7.54683 -10.64497,13.6637 -18.35074,17.55629 -4.05147,2.14488 -8.42069,3.49543 -12.94879,4.28981 -7.30848,1.11214 -14.61702,1.82712 -21.8461,2.06541 -5.56083,0.15906 -11.36001,0.71498 -17.00025,1.82718 -2.62157,0.47657 -5.16361,0.95326 -7.6263,1.50937 -4.28975,0.87385 -8.57956,2.22428 -12.71044,3.97199 -4.76644,1.986 -9.21513,4.5281 -13.18713,7.70571 -3.33648,2.62157 -5.87858,6.11693 -7.30854,10.1684 -0.23829,0.55641 -0.31751,1.19161 -0.31751,1.82712 0,1.35049 0.47657,2.62151 1.42996,3.65424 0.95326,1.03273 2.30375,1.42996 3.65424,1.19161 l -1.11214,1.90659 c -0.47657,0.63551 -0.79439,1.35049 -1.11214,2.06547 -0.63558,1.74765 -1.19162,3.41596 -1.66831,5.24308 -1.35049,4.92526 -2.46263,9.6917 -3.41589,14.53755 -0.31751,1.82713 -1.50937,3.73372 -3.33655,5.0842 -0.63551,0.47658 -1.35049,0.95333 -2.06541,1.19162 -1.986,0.87385 -4.05146,1.50936 -6.03746,1.98599 -2.62157,0.55641 -5.0842,1.19161 -7.46742,1.74772 -0.55641,0.15906 -1.27102,0.63551 -1.74772,1.27102 -0.63551,0.95332 -1.11214,1.90659 -1.27102,3.01873 -0.15906,0.79445 -0.3175,1.50942 -0.39734,2.30381 -0.71498,4.28975 -1.74772,8.65897 -3.17761,12.78991 -1.42996,4.21034 -3.25708,8.34122 -5.32255,12.31327 -0.71492,1.35049 -1.42989,2.5421 -2.30375,3.81312 -0.63551,0.95327 -1.35049,2.06547 -1.82712,3.17761 -0.47657,0.95327 -0.95327,1.82712 -1.50937,2.70098 -0.31751,0.55641 -0.95332,1.03273 -1.58883,1.27108 l -0.87386,0.15906 c -1.66824,0.31751 -3.25702,0.79439 -4.68697,1.58877 -1.58878,0.79445 -3.09814,1.58884 -4.68692,2.38323 -3.49542,1.82712 -7.0702,5.16367 -9.6123,9.29454 -0.15906,0.31751 -0.31751,0.79439 -0.31751,1.27102 0,0.31751 0.0792,0.71498 0.23829,1.1122 0.47657,0.95327 1.50937,1.50937 2.5421,1.50937 10.00946,0.23828 19.54229,-3.89259 26.29473,-11.36001 1.98606,-2.22429 4.21034,-4.76639 6.51416,-7.22908 7.86458,-8.73844 12.63103,-15.01425 16.7619,-21.68722 0.31751,-0.47657 0.71498,-0.71498 1.1122,-0.71498 0.23829,0 0.39735,0 0.55641,0.0792 0.79439,0.39735 1.50937,0.63557 2.38316,0.71498 1.03274,0.23829 2.4627,0.39735 3.89259,0.71498 1.82712,0.23829 3.65431,0.31751 5.40196,0 2.85985,-0.39735 5.71971,-1.03273 8.42068,-1.986 4.05147,-1.35049 7.86459,-3.41595 11.20114,-6.11693 5.40195,-4.21034 10.64497,-8.89732 15.80863,-13.74323 2.5421,-2.46263 5.48137,-4.36922 8.73845,-5.71971 9.05619,-3.81312 18.74796,-6.27575 28.59854,-7.22908 3.65424,-0.31751 7.46742,-0.63551 11.20113,-0.79438 2.22429,-0.15907 4.5281,-0.39735 6.75238,-0.95327 2.62157,-0.71498 6.11694,-1.50936 9.6123,-2.38322 3.6543,-1.03274 6.1964,-1.74771 8.57957,-2.70098 4.05152,-1.50936 8.02352,-3.25708 11.91611,-5.00473 l 1.19161,0.47657 c 1.4299,0.71492 3.01873,1.11214 4.68697,1.27102 5.24308,0.23829 10.56557,-0.31751 15.64977,-1.82712 l 4.36922,-1.19161 2.14487,-0.63551 2.14488,-0.71498 3.01873,-0.95326 2.70098,-0.87386 c 1.98606,-0.55641 3.97205,-1.19161 6.03746,-1.82712 3.0982,-0.87386 4.92532,-1.35049 6.83191,-1.74771 l -1.11214,1.98599 -6.43469,12.47216 -6.59356,12.31327 -0.0792,0.23829 -1.66824,0.31751 c -1.27108,0.15906 -2.5421,0.47657 -3.73371,0.95332 -4.76645,1.90653 -9.29454,4.36922 -13.34601,7.46736 -1.35049,1.11221 -2.5421,2.46269 -3.25702,4.13094 -0.15906,0.31751 -0.47657,0.71498 -0.71498,1.03273 -0.23828,0.23829 -0.31751,0.5558 -0.31751,0.8738 0,0.39734 0.23829,0.87385 0.63551,1.1122 0.71498,0.39735 1.50937,0.87386 2.30376,1.27102 0.15906,0.0792 0.47657,0.15906 0.71498,0.23828 0.87385,0.0792 1.74771,0.15907 2.70097,0.15907 1.11221,0.0792 2.22435,0.15906 3.41596,0.23828 1.03273,0.0792 1.986,0 2.85985,-0.31751 1.50937,-0.47657 3.09814,-1.03273 4.60757,-1.74765 1.986,-0.95333 3.89253,-1.98606 5.71971,-3.17767 1.4299,-0.95327 2.78039,-2.06541 3.972,-3.33649 0.63551,-0.63551 2.38322,-2.46263 4.13087,-4.36922 5.00479,-5.16361 8.02352,-8.65897 10.88338,-12.2338 2.38316,-2.93933 4.5281,-5.95806 6.75244,-8.97679 1.986,-2.85986 3.81312,-5.6403 5.48136,-8.57956 0.87386,-1.42996 1.58884,-2.85986 2.38323,-4.36922 0.63551,-1.27109 1.11214,-2.70098 1.27101,-4.05147 0.31751,-1.58884 0,-3.25708 -0.79438,-4.60757 -0.63551,-0.95326 -1.42996,-1.66824 -2.46263,-2.22428 -0.55641,-0.23829 -1.11221,-0.39735 -1.74772,-0.55641 -0.39734,-0.0792 -0.79438,-0.23829 -1.19161,-0.47657 -1.11214,-0.79445 -2.38322,-1.35049 -3.73371,-1.66824 -0.55641,-0.15907 -1.27102,-0.23829 -1.90653,-0.23829 l -5.00479,0.15906 -2.70097,0.15906 -4.28976,0.15907 -10.16839,0 -4.05147,0.15906 c -4.8547,0.20942 -9.70939,1.08125 -14.23307,2.43837 z"
         id="path10"
         inkscape:connector-curvature="0" />
    </g>
    <text
       xml:space="preserve"
       style="font-size:5.57256985px;font-style:normal;font-variant:normal;font-weight:bold;font-stretch:normal;text-align:start;line-height:125%;letter-spacing:0px;word-spacing:0px;text-anchor:start;fill:#000000;fill-opacity:1;stroke:none;font-family:FreeSans;-inkscape-font-specification:Lato Bold"
       x="8.9334288"
       y="1042.3706"
       id="text3028"
       sodipodi:linespacing="125%"><tspan
         sodipodi:role="line"
         id="tspan3030"
         x="8.9334288"
         y="1042.3706"
         style="font-size:11.14513969px;font-style:normal;font-variant:normal;font-weight:bold;font-stretch:normal;text-align:start;text-anchor:start;font-family:Lato;-inkscape-font-specification:Lato Bold">libreboot</tspan></text>
    <text
       xml:space="preserve"
       style="font-size:7.58667564px;font-style:italic;font-variant:normal;font-weight:bold;font-stretch:normal;text-align:end;line-height:125%;letter-spacing:0px;word-spacing:0px;text-anchor:end;fill:#000000;fill-opacity:1;stroke:none;font-family:Lato;-inkscape-font-specification:Lato Bold Italic"
       x="54.29002"
       y="1049.509"
       id="text3032"
       sodipodi:linespacing="125%"><tspan
         sodipodi:role="line"
         id="tspan3034"
         x="54.29002"
         y="1049.509">inside</tspan></text>
  </g>
</svg>
