<?xml version="1.0" encoding="UTF-8" standalone="no"?>
<!-- Created with Inkscape (http://www.inkscape.org/) -->

<svg
   xmlns:dc="http://purl.org/dc/elements/1.1/"
   xmlns:cc="http://creativecommons.org/ns#"
   xmlns:rdf="http://www.w3.org/1999/02/22-rdf-syntax-ns#"
   xmlns:svg="http://www.w3.org/2000/svg"
   xmlns="http://www.w3.org/2000/svg"
   xmlns:sodipodi="http://sodipodi.sourceforge.net/DTD/sodipodi-0.dtd"
   xmlns:inkscape="http://www.inkscape.org/namespaces/inkscape"
   width="180"
   height="202.5"
   id="svg3240"
   version="1.1"
   inkscape:version="0.48.4 r9939"
   sodipodi:docname="libreboot-simple-bold-2.00x2.25-diecut.svg">
  <defs
     id="defs3242" />
  <sodipodi:namedview
     id="base"
     pagecolor="#ffffff"
     bordercolor="#666666"
     borderopacity="1.0"
     inkscape:pageopacity="0.0"
     inkscape:pageshadow="2"
     inkscape:zoom="1.12"
     inkscape:cx="90"
     inkscape:cy="101.25"
     inkscape:document-units="cm"
     inkscape:current-layer="layer1"
     showgrid="false"
     units="cm"
     inkscape:showpageshadow="false"
     inkscape:window-width="1366"
     inkscape:window-height="713"
     inkscape:window-x="0"
     inkscape:window-y="33"
     inkscape:window-maximized="1"
     borderlayer="false">
    <inkscape:grid
       empspacing="1"
       visible="true"
       enabled="true"
       snapvisiblegridlinesonly="true"
       units="in"
       spacingx="0.125in"
       spacingy="0.125in"
       originx="1.4196in"
       type="xygrid"
       id="grid5122" />
  </sodipodi:namedview>
  <metadata
     id="metadata3245">
    <rdf:RDF>
      <cc:Work
         rdf:about="">
        <dc:format>image/svg+xml</dc:format>
        <dc:type
           rdf:resource="http://purl.org/dc/dcmitype/StillImage" />
        <dc:title></dc:title>
      </cc:Work>
    </rdf:RDF>
  </metadata>
  <g
     inkscape:groupmode="layer"
     id="layer3"
     inkscape:label="Background"
     transform="translate(0,-22.500001)">
    <rect
       style="fill:#ff00ff;fill-opacity:1;fill-rule:nonzero;stroke:none"
       id="rect3158"
       width="1980"
       height="2002.5"
       x="-900"
       y="-877.5" />
  </g>
  <g
     inkscape:groupmode="layer"
     id="layer2"
     inkscape:label="Outline"
     style="display:none"
     transform="translate(0,-22.500001)">
    <path
       style="fill:#ffffff;display:inline"
       d="m 128.3125,0 c -0.84353,0.02174373 -2.29955,0.1585342 -3.96875,0.875 0.0413,-0.0190474 -0.68134,0.1825268 -2,0.9375 -2.28127,1.3037906 -3.99849,3.9493507 -4.65625,5.96875 L 117.65625,7.75 c -0.0254,0.080316 -0.038,0.1696837 -0.0625,0.25 -0.0254,0.086983 -0.0727,0.1971242 -0.0937,0.28125 l 0.0312,0 c -0.80306,2.74869 -1.15625,5.481839 -1.15625,8.0625 0,3.402586 0.59302,6.711783 1.625,9.8125 0.0811,0.255461 0.17738,0.502956 0.28125,0.75 0.29251,0.669609 0.81791,1.811603 1.625,3.15625 l -0.0312,0.03125 c 0.45147,0.783735 0.83353,1.589881 1.21875,2.40625 -1.74869,0.36228 -3.48013,0.848911 -5.1875,1.53125 l 0,-0.03125 c -0.0286,0.0127 -0.0653,0.02014 -0.0937,0.03125 -0.019,0.0063 -0.0428,0.0249 -0.0625,0.03125 -2.54679,1.00516 -4.61735,2.458394 -6.375,4.21875 -0.23141,0.232417 -0.45202,0.493299 -0.65625,0.75 -0.42327,0.5305 -1.26748,1.36158 -2,3.5625 -1.36303,4.082206 0.75904,9.029019 4.65625,10.84375 l 0.3125,0.15625 0.125,0.09375 0.75,0.4375 0.34375,0.21875 c 0.0565,0.03778 0.10035,0.05725 0.15625,0.09375 0.39154,0.252694 0.78313,0.406515 1.15625,0.59375 -0.10767,0.471739 -0.27763,0.929876 -0.375,1.40625 -0.001,0.0063 10e-4,0.0249 0,0.03125 -0.98737,4.794883 -1.98246,9.199922 -3.0625,13.625 -0.0139,0.05944 -0.0186,0.127789 -0.0312,0.1875 -0.0375,0.168251 -0.29059,0.80961 -0.6875,1.53125 -0.01,0.01905 0.009,0.01062 0,0.03125 -1.87831,3.292365 -4.60124,5.890398 -7.90625,7.5625 -0.0531,0.02592 -0.10369,0.06677 -0.15625,0.09375 -1.56226,0.828337 -3.369431,1.436665 -5.40625,1.8125 -0.02541,0.0032 -0.06739,-0.0032 -0.09375,0 -4.283702,0.650023 -8.555388,1.079609 -12.71875,1.21875 -0.0127,4.13e-4 -0.01696,-4.44e-4 -0.03125,0 -3.874947,0.112697 -7.94535,0.476468 -12.0625,1.28125 -0.0127,0.0025 -0.02014,-0.0025 -0.03125,0 -0.02541,0.0063 -0.06644,-0.0032 -0.09375,0 -1.580773,0.287932 -3.215459,0.622418 -4.90625,1 -0.02541,0.0063 -0.03551,-0.0032 -0.0625,0 -0.0343,0.0063 -0.05945,0.0249 -0.09375,0.03125 -3.292495,0.68526 -6.488391,1.713416 -9.53125,3 -0.0127,0.0063 -0.04821,-0.0063 -0.0625,0 -3.651591,1.527597 -7.13808,3.534676 -10.3439,6.09375 C 46.54027,93.95337 46.52191,93.98254 46.5,94 c -3.228593,2.559836 -5.726841,5.970958 -7.21875,9.875 l -0.03125,0 c -0.02541,0.0619 -0.03741,0.12592 -0.0625,0.1875 -0.04764,0.12762 -0.110833,0.24643 -0.15625,0.375 l 0.0625,0 c -0.530619,1.45547 -0.75,2.84278 -0.75,4.0625 0,1.88718 0.527188,3.82078 1.40625,5.5625 -0.103539,0.35412 -0.247199,0.6637 -0.34375,1.03125 -0.0095,0.0362 -0.02331,0.0885 -0.03125,0.125 l 0.03125,0 c -0.711463,2.60542 -1.293186,5.16473 -1.84375,7.75 -0.377471,0.12222 -0.72536,0.24775 -1.125,0.34375 l 0,0.0312 c -1.737669,0.37406 -3.280934,0.74107 -4.65625,1.0625 -0.146141,0.0294 -0.293033,0.0571 -0.4375,0.0937 -3.005509,0.8605 -4.194761,1.95471 -5.75,4.03125 -0.09643,0.13634 -0.192675,0.26466 -0.28125,0.40625 -0.784002,1.17789 -1.662987,2.9889 -2.0625,5.09375 l -0.03125,0 c -0.0095,0.0495 -0.04599,0.30008 -0.0625,0.375 -0.0064,0.0438 -0.05615,0.0808 -0.0625,0.125 l 0.03125,0 c -0.06034,0.27491 -0.138396,0.70417 -0.21875,1.25 -0.385189,2.31454 -0.979659,4.63943 -1.6875,6.6875 -6.6e-5,0.0198 -6.6e-5,0.0427 0,0.0625 -0.732393,2.15972 -1.694982,4.34076 -2.8125,6.5 -0.0095,0.0222 -0.02013,0.0409 -0.03125,0.0625 -0.288701,0.5418 -0.536815,0.93063 -0.90625,1.46875 -0.02009,0.0395 -0.043,0.0852 -0.0625,0.125 -0.227404,0.34187 -0.614974,1.14631 -0.9375,1.6875 -0.740682,0.25968 -1.534658,0.56097 -2.3125,0.96875 -0.115925,0.0581 -0.199434,0.0991 -0.3125,0.15625 -0.0127,0.006 -0.01696,-0.006 -0.03125,0 -0.933086,0.47098 -1.810857,0.93607 -2.625,1.34375 -0.05309,0.0259 -0.103689,0.0668 -0.15625,0.0937 C 7.1147607,156.98858 3.9487823,160.01472 1.5,164 1.3647304,164.21927 1.2406609,164.45725 1.125,164.6875 0.4220811,166.09609 0,167.26576 0,169.46875 L 0,213.75 C 0,219.9632 5.0367966,225 11.25,225 l 157.5,0 c 6.2132,0 11.25,-5.0368 11.25,-11.25 l 0,-44.28125 0,-34.46875 0,-10.53125 0,-18.09375 -0.0312,0 c -0.005,-2.29049 -0.59226,-4.49729 -1.75,-6.46875 -0.082,-0.141359 -0.16032,-0.269653 -0.25,-0.40625 -1.1314,-1.699721 -2.8576,-3.340082 -4.71875,-4.34375 -0.22618,-0.122506 -0.48277,-0.241449 -0.71875,-0.34375 -0.80395,-0.34482 -1.17197,-0.382382 -1.625,-0.5 -1.21493,-0.680339 -2.43316,-1.210302 -3.65625,-1.53125 l 0,-0.03125 c -0.0769,-0.02222 -0.11318,-0.01185 -0.1875,-0.03125 -0.0727,-0.01905 -0.14634,-0.07661 -0.21875,-0.09375 l 0,0.0625 c -1.17507,-0.299043 -2.14605,-0.4375 -3.25,-0.4375 -0.0925,-0.0015 -0.15748,-0.0015 -0.25,0 l -3.1875,0.09375 c -0.0794,0.0053 -0.17079,0.02383 -0.25,0.03125 l -1.5625,0.09375 0,-0.03125 -2.71875,0.125 -5.28125,0 c 0.11784,-0.701069 0.29954,-1.450636 0.34375,-2.0625 6.3e-4,0.08667 4.4e-4,0.216349 0,0.25 0.001,-0.03492 0.0249,-0.262887 0.0312,-0.40625 0.001,-0.02857 0,-0.06201 0,-0.09375 0.01,-0.219997 0.0182,-0.310535 0.0312,-0.5625 l -0.0312,0 c 0.25884,-5.159798 0.19852,-8.405429 -0.15625,-11.46875 -0.003,-0.02857 0.003,-0.06487 0,-0.09375 -0.17468,-1.63877 -0.28125,-3.117214 -0.28125,-4.46875 0.001,-0.09258 0.001,-0.188667 0,-0.28125 C 150.23165,71.787594 150.17056,70.132518 150,68.34375 149.9778,68.058358 149.9688,67.629229 149.9688,67 c 0,-0.360947 0.10721,-0.682144 0.125,-1.03125 1.53526,-0.962177 2.9699,-2.043161 4.3125,-3.25 0.95535,-0.113967 1.90873,-0.297507 2.84375,-0.53125 0.0781,-0.01905 0.14062,-0.01062 0.21875,-0.03125 l 0,-0.03125 c 2.18577,-0.533199 4.13028,-1.266543 5.84375,-2.0625 0.006,-0.0025 0.0283,0.0025 0.0312,0 1.55318,-0.719894 2.80902,-1.607935 3.9375,-2.625 0.1153,-0.109427 0.2345,-0.228261 0.34375,-0.34375 0.80039,-0.801576 1.3515,-1.529185 1.8125,-2.25 1.2168,-0.884368 2.42137,-2.041644 3.34375,-3.75 l 0.0625,0.03125 c 0.0686,-0.12349 0.0621,-0.250875 0.125,-0.375 0.0896,-0.18349 0.23247,-0.338523 0.3125,-0.53125 l -0.0937,-0.03125 c 1.40543,-3.230525 1.04485,-6.56218 -0.375,-9.125 -0.0448,-0.08679 -0.10856,-0.195995 -0.15625,-0.28125 -1.20229,-2.007145 -2.75861,-3.650944 -5.5625,-4.6875 l 0.0312,-0.03125 c -1.08351,-0.452311 -1.66153,-0.653051 -1.53125,-0.59375 -0.0132,-0.0064 -0.018,0.0063 -0.0312,0 -0.89891,-0.405137 -1.5871,-0.722461 -2.25,-1.03125 -0.0597,-0.02857 -0.12842,-0.06582 -0.1875,-0.09375 l 0,0.03125 c -1.91772,-0.941225 -2.74656,-1.145135 -4.15625,-1.46875 -0.14673,-0.04349 -0.23296,-0.0528 -0.375,-0.09375 -0.04,-0.0095 -0.0524,-0.0217 -0.0937,-0.03125 -1.41089,-0.4012 -2.62602,-0.688995 -3.5625,-0.9375 -0.12164,-0.04698 -1.11632,-0.433636 -1.65625,-0.78125 -0.0849,-0.05438 -0.16325,-0.136067 -0.25,-0.1875 -1.74682,-1.040652 -3.64758,-1.969592 -5.59375,-2.8125 0.0524,-0.06571 0.13541,-0.09022 0.1875,-0.15625 l 0.0312,0 c 0.0568,-0.06508 0.07,-0.151767 0.125,-0.21875 0.0775,-0.1 0.17409,-0.180617 0.25,-0.28125 L 148,27.375 c 1.75008,-2.322665 2.42282,-5.450089 2.0625,-7.96875 l 0.0312,0 c -0.0191,-0.132062 -0.0705,-0.245478 -0.0937,-0.375 -0.006,-0.03175 0.006,-0.06264 0,-0.09375 -0.97644,-5.188719 -5.36052,-8.34375 -10.125,-8.34375 -0.23662,0 -0.47524,0.04917 -0.71875,0.0625 -0.0737,-0.9575416 -0.25541,-1.8597977 -0.53125,-2.6875 -0.0864,-0.2691073 -0.16959,-0.5216466 -0.28125,-0.78125 0.0343,0.077142 -0.0637,-0.4775389 -0.96875,-2.0625 l -0.0625,0.03125 c -1.47314,-2.6976751 -4.09653,-4.62904597 -7.125,-5.0625 -0.41299,-0.05572833 -0.83329,-0.09686872 -1.25,-0.09375 -0.12791,0 -0.34382,-0.00724791 -0.625,0 z"
       id="path3133-8"
       inkscape:connector-curvature="0" />
  </g>
  <g
     inkscape:groupmode="layer"
     id="layer4"
     inkscape:label="Outline bigger"
     style="display:none"
     transform="translate(0,-22.500001)">
    <path
       style="fill:#ffffff"
       d="m 128.28125,-0.03125 c -0.83419,0.02726003 -2.26868,0.18973383 -3.9375,0.90625 0.0412,-0.017661 -0.68165,0.1199589 -2,0.875 -2.28076,1.3040886 -3.99864,3.9488964 -4.65625,5.96875 -0.0254,0.080503 -0.0692,0.2007593 -0.0937,0.28125 -0.0254,0.087105 -0.0727,0.1346013 -0.0937,0.21875 -0.8029,2.749335 -1.09375,5.543736 -1.09375,8.125 0,3.403372 0.53075,6.617308 1.5625,9.71875 0.081,0.255517 0.2087,0.565393 0.3125,0.8125 0.29261,0.66976 0.78685,1.811278 1.59375,3.15625 0.45137,0.78393 0.80238,1.683427 1.1875,2.5 -1.74829,0.362356 -3.44927,0.786257 -5.15625,1.46875 -0.0286,0.01111 -0.0652,-0.01111 -0.0937,0 -2.54623,1.005386 -4.7115,2.520485 -6.46875,4.28125 -0.23135,0.232464 -0.38957,0.430742 -0.59375,0.6875 -0.42318,0.530647 -1.36139,1.361063 -2.09375,3.5625 -0.68136,2.041583 -0.53686,4.397663 0.3125,6.375 0.84936,1.977336 2.42684,3.654923 4.375,4.5625 l 0.375,0.09375 0.125,0.09375 0.6875,0.5 0,-0.09375 0.375,0.28125 c 0.0566,0.03772 0.069,0.05752 0.125,0.09375 0.39147,0.252881 0.81446,0.437705 1.1875,0.625 -0.10774,0.471837 -0.30884,0.898533 -0.40625,1.375 -0.98714,4.796026 -1.9827,9.167615 -3.0625,13.59375 -0.014,0.05941 0.0127,0.127804 0,0.1875 -0.0373,0.168386 -0.32209,0.871937 -0.71875,1.59375 -1.87788,3.29314 -4.63325,5.983771 -7.9375,7.65625 -0.0531,0.02604 -0.0412,-0.02699 -0.0937,0 -1.56189,0.828525 -3.401166,1.49906 -5.4375,1.875 -4.282742,0.650169 -8.556367,1.04833 -12.71875,1.1875 -0.01302,4.38e-4 -0.0807,-4.32e-4 -0.09375,0 -9.829941,0.970703 -9.836418,0.981644 -22.3125,2.875 C 61.40289,85.45036 61.34705,85.45599 61.3125,85.5 26.718989,89.975379 0,119.46903 0,155.28125 c 0,0.0657 -1.7960468e-4,0.12186 0,0.1875 L 0,225 l 180,0 0,-94.15625 0,-82.53125 c 0,-4.781068 -3.05212,-8.768691 -7.34375,-10.21875 0.006,-0.03915 -0.006,-0.08477 0,-0.125 -4.30311,-1.51681 -4.35742,-1.536401 -5.5625,-1.96875 -1.08326,-0.45242 -1.59898,-0.559314 -1.46875,-0.5 L 165.5,35.40625 c -0.8987,-0.405229 -1.49349,-0.691119 -2.15625,-1 -0.0597,-0.02794 -0.15959,-0.06609 -0.21875,-0.09375 -1.91727,-0.941442 -2.74688,-1.082573 -4.15625,-1.40625 -0.14657,-0.04353 -0.26429,-0.05298 -0.40625,-0.09375 -0.0401,-0.0095 -0.0524,0.0098 -0.0937,0 -1.41055,-0.401307 -2.62624,-0.720216 -3.5625,-0.96875 -0.12167,-0.04715 -1.05397,-0.464802 -1.59375,-0.8125 -0.0849,-0.05438 -0.22575,-0.136032 -0.3125,-0.1875 -1.74676,-1.040712 -3.58555,-1.938146 -5.53125,-2.78125 0.0526,-0.06564 0.13548,-0.152694 0.1875,-0.21875 0.0569,-0.06518 0.0387,-0.120644 0.0937,-0.1875 0.0644,-0.08324 0.11758,-0.202715 0.1875,-0.28125 1.74955,-2.323205 2.45399,-5.418244 2.09375,-7.9375 l 0.0937,0 c -0.0189,-0.132194 -0.0707,-0.276578 -0.0937,-0.40625 -0.006,-0.03112 0.006,-0.06284 0,-0.09375 l -0.0937,0 c -0.97609,-5.189918 -5.26784,-8.34375 -10.03125,-8.34375 -0.23656,0 -0.53778,-0.01334 -0.78125,0 -0.0735,-0.9577947 -0.22431,-1.8596308 -0.5,-2.6875 -0.0863,-0.2692725 -0.20085,-0.5214881 -0.3125,-0.78125 0.0342,0.07706 -0.064,-0.4146627 -0.96875,-2 -1.47279,-2.6983118 -4.12846,-4.62895588 -7.15625,-5.0625 -0.41354,-0.05597273 -0.86397,-0.09684407 -1.28125,-0.09375 -0.12788,0 -0.34694,-0.0090867 -0.625,0 z"
       id="path3133"
       inkscape:connector-curvature="0" />
  </g>
  <g
     inkscape:groupmode="layer"
     id="layer6"
     inkscape:label="Outline fixed"
     transform="translate(0,-22.500001)">
    <path
       style="fill:#ffffff;display:inline"
       d="m 127.15625,0 c -0.9844,0.02445942 -2.77251,0.18718325 -4.8125,1.0625 0.15777,-0.06766 -0.65011,0.164693 -2.21875,1.0625 -2.78162,1.589439 -4.90403,4.830671 -5.71875,7.28125 L 114.34375,9.375 c -0.043,0.136497 -0.053,0.269888 -0.0937,0.40625 -0.0238,0.08344 -0.0735,0.200272 -0.0937,0.28125 l 0.0625,0 C 113.38393,12.968834 113,15.828895 113,18.5 c 0,3.610265 0.63445,7.086477 1.71875,10.34375 0.10705,0.326443 0.23854,0.653497 0.375,0.96875 0.23511,0.537806 0.66067,1.508821 1.3125,2.6875 -0.71722,0.227548 -1.44585,0.40492 -2.15625,0.6875 -0.0632,0.02515 -0.12436,0.03692 -0.1875,0.0625 l 0,0.03125 c -2.83678,1.12395 -5.14981,2.709683 -7.09375,4.65625 -0.29906,0.292134 -0.57907,0.613815 -0.84375,0.9375 -0.47718,0.597967 -1.47517,1.578169 -2.375,4.28125 -0.86001,2.587384 -0.73323,5.495373 0.34375,8 1.07698,2.504626 3.09438,4.597556 5.5625,5.75 L 109.84375,57 110,57.09375 l 0.0625,0.03125 0.3125,0.1875 0.125,0.0625 c -0.91785,4.430231 -1.84163,8.551171 -2.84375,12.65625 -0.0136,0.07692 -0.0505,0.172811 -0.0625,0.25 0.0385,-0.173688 -0.0769,0.244496 -0.34375,0.75 -0.0215,0.04081 -0.0387,0.02009 -0.0625,0.0625 -1.57111,2.740945 -3.83081,4.868222 -6.5625,6.25 -0.0644,0.03149 -0.12368,0.09228 -0.1875,0.125 -1.267719,0.672043 -2.786268,1.17684 -4.59375,1.5 -0.02124,0.004 -0.04126,-0.0037 -0.0625,0 -4.004943,0.60122 -7.973563,0.99564 -11.84375,1.125 -0.01268,4.2e-4 -0.01857,-4.2e-4 -0.03125,0 -3.862942,0.11225 -7.940175,0.50428 -12.09375,1.3125 l 0,-0.03125 c -0.05498,0.01 -0.132352,0.0525 -0.1875,0.0625 -1.506599,0.27435 -3.084291,0.56688 -4.75,0.9375 l 0,-0.03125 c -0.06603,0.0134 -0.121566,0.0488 -0.1875,0.0625 -0.01225,0.002 -0.019,-0.002 -0.03125,0 -3.361602,0.70322 -6.609988,1.76248 -9.6875,3.0625 -0.01853,0.008 -0.04397,0.02345 -0.0625,0.03125 -3.7297,1.56138 -7.341806,3.57647 -10.65625,6.21875 -0.0071,0.005 -0.02417,0.02565 -0.03125,0.03125 -0.01835,0.0147 -0.01297,0.01665 -0.03125,0.03125 -3.478301,2.75836 -6.190507,6.45444 -7.8125,10.65625 -0.02739,0.0755 -0.06278,0.14218 -0.09375,0.21875 -0.05676,0.15158 -0.133596,0.31583 -0.1875,0.46875 l 0.0625,0 c -0.633386,1.74447 -0.90625,3.40742 -0.90625,4.84375 0,1.87839 0.436164,3.79409 1.1875,5.59375 -0.0094,0.0352 -0.02189,0.0584 -0.03125,0.0937 l -0.03125,0 c -0.571626,2.08754 -0.969657,4.17738 -1.4375,6.25 -1.464213,0.32478 -2.885443,0.63852 -4.03125,0.90625 -0.174187,0.0408 -0.359209,0.1072 -0.53125,0.15625 -3.71,1.06201 -5.08472,2.32868 -6.96875,4.84375 -0.119922,0.16378 -0.232867,0.32995 -0.34375,0.5 -0.881782,1.32452 -1.901524,3.43452 -2.375,5.90625 l -0.09375,0 c -0.01151,0.0576 -0.06458,0.46205 -0.09375,0.59375 -0.05479,0.24736 -0.110183,0.65985 -0.1875,1.15625 -0.353496,2.12378 -0.872369,4.24684 -1.5,6.0625 -0.0065,0.0192 -0.0249,0.0432 -0.03125,0.0625 -0.65928,1.94378 -1.534845,3.98136 -2.5625,5.96875 -0.01361,0.0263 -0.04883,0.0361 -0.0625,0.0625 -0.229256,0.42877 -0.415145,0.74532 -0.71875,1.1875 -0.02589,0.0384 -0.03709,0.0863 -0.0625,0.125 -0.178754,0.2685 -0.430659,0.68383 -0.6875,1.09375 -0.473963,0.19829 -0.94846,0.33904 -1.4375,0.59375 l 0,-0.0312 c -1.083007,0.54227 -2.033247,1.03166 -2.90625,1.46875 -0.058,0.0316 -0.09882,0.0611 -0.15625,0.0937 -4.3092744,2.25557 -7.6855439,5.50675 -10.3125,9.78125 -0.1729523,0.28169 -0.3212689,0.57913 -0.46875,0.875 -0.86212795,1.72329 -1.375,3.10679 -1.375,5.8125 L 0,167.125 0,185.65625 C 0,194.9512 7.5487978,202.5 16.84375,202.5 l 21.84375,0 124.46875,0 C 172.4512,202.5 180,194.9512 180,185.65625 l 0,-18.53125 0,-60.3125 c 0.17985,-3.02914 -0.51116,-5.97478 -2.03125,-8.5625 -0.11028,-0.18305 -0.22322,-0.3548 -0.34375,-0.53125 -1.31587,-1.97646 -3.33298,-3.86285 -5.5,-5.03125 -0.29493,-0.15461 -0.59877,-0.30975 -0.90625,-0.4375 -0.80893,-0.34691 -1.07187,-0.36382 -1.5625,-0.5 -1.30774,-0.70604 -2.60805,-1.28255 -3.90625,-1.625 -0.10321,-0.0295 -0.18225,-0.0357 -0.28125,-0.0625 -0.0762,-0.0189 -0.14273,-0.07585 -0.21875,-0.09375 l 0,0.03125 c -1.39526,-0.35658 -2.45393,-0.46875 -3.75,-0.46875 -0.11542,-0.002 -0.22833,-0.002 -0.34375,0 L 158.0625,89.625 c -0.10269,0.005 -0.20999,0.02345 -0.3125,0.03125 l -1.46875,0.0625 -2.65625,0.125 -1.96875,0 c 0.25576,-5.08292 0.14257,-8.46503 -0.21875,-11.59375 l 0.0312,0 c -0.16891,-1.56578 -0.28125,-2.921946 -0.28125,-4.125 0.002,-0.115577 0.002,-0.228173 0,-0.34375 -0.0478,-1.535443 -0.11021,-3.186133 -0.28125,-5 l 0.0312,0 c -0.007,-0.09044 -0.0265,-0.416778 -0.0312,-0.625 0.97712,-0.670376 1.91485,-1.387678 2.8125,-2.15625 0.74414,-0.114957 1.48643,-0.254886 2.21875,-0.4375 l 0,0.03125 c 0.0897,-0.02096 0.16124,-0.07211 0.25,-0.09375 2.32407,-0.568617 4.36497,-1.339834 6.125,-2.15625 0.007,-0.0031 0.0241,-0.02792 0.0312,-0.03125 1.76668,-0.821422 3.22273,-1.817799 4.5,-2.96875 0.14481,-0.137472 0.26897,-0.261244 0.40625,-0.40625 0.73792,-0.738914 1.31686,-1.429582 1.78125,-2.09375 1.32933,-1.034717 2.64059,-2.477786 3.65625,-4.34375 l 0.0625,0.03125 c 0.0993,-0.178884 0.1294,-0.351514 0.21875,-0.53125 0.10154,-0.209387 0.25243,-0.374278 0.34375,-0.59375 l -0.0937,-0.0625 c 1.7098,-3.960525 1.22856,-8.036719 -0.5,-11.15625 -0.0622,-0.110218 -0.12161,-0.20445 -0.1875,-0.3125 -1.43736,-2.399095 -3.25012,-4.396722 -6.625,-5.65625 l -0.0312,0 c -1.14658,-0.477592 -1.6996,-0.710252 -1.375,-0.5625 -0.0128,-0.0064 -0.0183,0.0064 -0.0312,0 -0.83228,-0.37503 -1.45077,-0.652978 -2.0625,-0.9375 -0.0813,-0.03785 -0.16991,-0.11883 -0.25,-0.15625 l 0,0.03125 c -2.53691,-1.242926 -3.08917,-1.228286 -5,-1.6875 -1.31253,-0.369426 -2.43914,-0.663326 -3.25,-0.875 0.26357,0.07917 -0.70282,-0.308706 -1,-0.5 -0.10792,-0.06605 -0.23366,-0.125137 -0.34375,-0.1875 -0.91194,-0.542979 -1.87285,-1.060985 -2.84375,-1.5625 1.19214,-2.490556 1.55387,-5.316013 1.21875,-7.6875 l 0.0625,0 c -0.0165,-0.115685 -0.0745,-0.198393 -0.0937,-0.3125 -0.0147,-0.08531 0.0172,-0.197423 0,-0.28125 l -0.0625,0 c -1.10333,-5.828845 -5.66349,-9.503421 -10.90625,-10.09375 -0.0756,-0.279626 -0.0974,-0.573383 -0.1875,-0.84375 -0.10514,-0.3183173 -0.21062,-0.6611157 -0.34375,-0.96875 -0.002,-0.00109 0.004,-0.025831 0,-0.03125 -0.0279,-0.1543267 -0.27729,-0.8516037 -1.09375,-2.28125 L 138.25,6.34375 C 136.41569,3.020768 133.17873,0.660353 129.4375,0.125 128.90889,0.04849 128.37785,4.21e-4 127.84375,0 c -0.13228,0 -0.35936,-0.00815314 -0.6875,0 z m 42.625,91.8125 c 0.46289,0.19982 0.77518,0.38373 0.96875,0.5 l -0.0312,0.03125 c -0.31343,-0.19976 -0.62099,-0.35691 -0.9375,-0.53125 z"
       transform="translate(0,22.5)"
       id="path5124"
       inkscape:connector-curvature="0" />
  </g>
  <g
     inkscape:label="Foreground"
     inkscape:groupmode="layer"
     id="layer1"
     transform="translate(0,-849.85975)"
     style="display:inline">
    <path
       inkscape:connector-curvature="0"
       id="path10"
       d="m 136.51463,952.49186 0.48873,-1.32223 c 1.12411,-2.93833 2.15051,-6.02355 2.93249,-9.20671 0.24445,-0.83252 0.34232,-1.61609 0.39098,-2.39963 -0.0979,1.714 -0.0487,0.63665 0,-0.39176 0.24446,-4.84824 0.19535,-7.34582 -0.0979,-9.84338 -0.19534,-1.81195 -0.34194,-3.57493 -0.34194,-5.33792 -0.0487,-1.5671 -0.0979,-3.03627 -0.24447,-4.50543 -0.0487,-0.63664 -0.0487,-1.27324 -0.0487,-1.95887 0,-2.20374 0.24446,-4.3585 0.78201,-6.51325 l 0.78197,-0.34301 c 2.93248,-1.32227 5.52283,-3.28114 7.62444,-5.72972 l 1.02637,0 c 1.173,0 2.34596,-0.14689 3.47007,-0.44075 1.46624,-0.34301 2.88362,-0.88148 4.25208,-1.51812 0.63537,-0.29378 1.22185,-0.68562 1.71062,-1.12634 0.34232,-0.34301 0.63534,-0.78358 0.87972,-1.22433 0.29321,-0.6366 0.78202,-1.12635 1.41735,-1.42017 0.58652,-0.2938 1.07526,-0.6856 1.31964,-1.27328 0.24446,-0.44072 0.19534,-0.97942 -0.0487,-1.42018 -0.2932,-0.48971 -0.78201,-0.93046 -1.31964,-1.0774 -0.58648,-0.24494 -1.17296,-0.44072 -1.71059,-0.68559 -0.9775,-0.44075 -1.75948,-0.78357 -2.4926,-1.12634 -0.39098,-0.19574 -1.61284,-0.63664 -2.83469,-0.93047 -1.31964,-0.39177 -2.59035,-0.68563 -3.8611,-1.02841 -0.9775,-0.29378 -2.49259,-0.93046 -3.86109,-1.81197 -1.80833,-1.0774 -3.66556,-2.00783 -5.57168,-2.74244 -1.36846,-0.53867 -2.88359,-0.83253 -4.39868,-0.93047 l -1.90612,0 -0.14661,-0.343 -0.63537,-2.93829 -0.39099,-2.39963 -0.19534,-1.22429 0.43988,-0.24494 c 2.15047,-1.37123 4.0077,-3.08527 5.52279,-5.09308 0.34232,-0.39177 0.43988,-0.88152 0.34232,-1.37123 -0.0979,-0.68559 -0.73312,-1.17534 -1.41735,-1.17534 -0.2932,0 -0.58647,0.0981 -0.78201,0.29379 l -1.95497,1.27328 c -1.3196,0.93047 -2.6881,1.71404 -4.10544,2.44862 l -0.29321,-0.3918 c -1.61288,-1.86094 -2.54149,-4.26056 -2.54149,-6.75813 l 0,-0.97942 c 0.1466,-1.02841 0.2932,-2.15476 0.43988,-3.33009 0.0487,-0.34301 0,-0.68559 -0.0979,-0.97945 -0.19534,-0.44072 -0.34194,-0.88148 -0.53759,-1.22429 -0.0979,-0.34301 -0.39098,-0.58766 -0.73312,-0.63665 -0.39099,0 -0.73312,0 -1.07525,0.1469 -0.34232,0.14689 -0.73312,0.29378 -1.07522,0.48971 -0.34232,0.19573 -0.53763,0.4897 -0.63537,0.88147 -0.58652,1.86093 -0.83087,3.77085 -0.83087,5.72972 0,2.30169 0.39099,4.60337 1.12411,6.80712 0.34232,0.78353 0.68423,1.56706 1.12411,2.25269 0.73312,1.27328 1.36849,2.54653 1.95497,3.86879 0.78202,1.90988 1.173,3.91774 1.173,5.97456 l 0,0.44076 -0.63537,0.343 c -1.56399,0.93046 -2.83473,2.30169 -3.61671,3.96673 l -0.58648,0 c -2.24825,0.19573 -4.44757,0.68559 -6.50033,1.51812 -1.27072,0.4897 -2.44372,1.27327 -3.37233,2.20374 -0.19534,0.24495 -0.39098,0.5387 -0.48873,0.83252 l 0.53759,0.24495 0.73312,0.44076 0.73312,0.44072 0.63537,0.3918 c 0.2932,0.19573 0.63538,0.343 0.97751,0.44072 0.83087,0.14689 1.61284,0.29379 2.4437,0.29379 1.41736,0.0488 2.83474,0.29378 4.20323,0.68562 l -0.34232,0.6856 c -0.39102,0.78357 -0.73312,1.5671 -1.02636,2.35068 -0.68427,2.15475 -1.27074,4.3095 -1.71062,6.46426 -0.97751,4.7503 -1.95498,9.15775 -3.03023,13.56524 -0.29321,1.32223 -0.87972,2.64446 -1.56399,3.86879 -2.6392,4.65232 -6.54915,8.42313 -11.29,10.82276 -2.49261,1.32223 -5.1807,2.15479 -7.966542,2.6445 -4.496427,0.68559 -8.992892,1.12635 -13.44047,1.27324 -3.421213,0.0981 -6.989067,0.44076 -10.459137,1.12639 -1.612879,0.29378 -3.17683,0.58764 -4.691961,0.93046 -2.639201,0.5387 -5.278439,1.37118 -7.819899,2.44858 -2.932477,1.22429 -5.669464,2.79139 -8.113174,4.75027 -2.052717,1.61609 -3.616704,3.77084 -4.496465,6.26841 -0.146604,0.34301 -0.195343,0.73458 -0.195343,1.12635 0,0.83253 0.293202,1.61606 0.879761,2.2527 0.586478,0.63663 1.417346,0.88151 2.248213,0.73458 l -0.684226,1.17534 c -0.293202,0.39176 -0.488736,0.83252 -0.684227,1.27328 -0.391031,1.07735 -0.733125,2.1058 -1.026401,3.23215 -0.830868,3.03623 -1.515095,5.97455 -2.101573,8.96183 -0.195343,1.12635 -0.928616,2.30169 -2.05276,3.1342 -0.390988,0.2938 -0.830868,0.5877 -1.270711,0.73459 -1.221856,0.5387 -2.492597,0.93046 -3.714453,1.22429 -1.612879,0.343 -3.127974,0.73458 -4.594213,1.0774 -0.342322,0.0981 -0.781975,0.39176 -1.075257,0.78353 -0.390987,0.58768 -0.684227,1.17534 -0.781975,1.86093 -0.09786,0.48975 -0.195337,0.9305 -0.244457,1.42021 -0.43988,2.64446 -1.075257,5.33791 -1.954975,7.88447 -0.87976,2.59551 -2.003867,5.14204 -3.274615,7.59063 -0.439843,0.8325 -0.879718,1.5671 -1.417346,2.3507 -0.390988,0.5876 -0.830868,1.2732 -1.124107,1.9588 -0.293202,0.5877 -0.586484,1.1264 -0.928616,1.6651 -0.195343,0.343 -0.586515,0.6366 -0.977503,0.7835 l -0.537629,0.098 c -1.026358,0.1957 -2.00383,0.4897 -2.883584,0.9794 -0.977472,0.4898 -1.906082,0.9795 -2.883554,1.4692 -2.150503,1.1263 -4.34983,3.1832 -5.913817,5.7297 -0.09786,0.1957 -0.195343,0.4897 -0.195343,0.7835 0,0.1958 0.04873,0.4408 0.146604,0.6857 0.293202,0.5876 0.928616,0.9304 1.563987,0.9304 6.158163,0.1469 12.023087,-2.3996 16.17742,-7.003 1.221892,-1.3712 2.590346,-2.9383 4.007735,-4.4564 4.838559,-5.3869 7.771043,-9.25571 10.312496,-13.36933 0.195343,-0.29379 0.43988,-0.44076 0.684263,-0.44076 0.146604,0 0.244464,0 0.342323,0.0488 0.488736,0.24495 0.928616,0.3918 1.466201,0.44075 0.635378,0.1469 1.515138,0.24495 2.394855,0.44076 1.124107,0.1469 2.248257,0.19573 3.323471,0 1.759478,-0.24495 3.518962,-0.63664 5.180692,-1.22429 2.492603,-0.83252 4.838565,-2.1058 6.891325,-3.77085 3.323465,-2.5955 6.549151,-5.48484 9.726012,-8.47216 1.563987,-1.51811 3.372326,-2.69345 5.376194,-3.52597 5.571678,-2.35064 11.534388,-3.86876 17.594802,-4.45645 2.248214,-0.19573 4.594209,-0.39176 6.891319,-0.4897 1.36846,-0.0981 2.78584,-0.24495 4.1543,-0.58765 1.61288,-0.44076 3.76335,-0.93046 5.91381,-1.46916 2.24825,-0.63665 3.81224,-1.0774 5.27845,-1.66505 2.49263,-0.93046 4.93634,-2.00786 7.3312,-3.08522 l 0.73312,0.29379 c 0.87972,0.44072 1.85722,0.68559 2.88358,0.78353 3.22573,0.1469 6.5003,-0.19573 9.62828,-1.12635 l 2.68809,-0.73458 1.3196,-0.39177 1.3196,-0.44075 1.85723,-0.58765 1.66174,-0.5387 c 1.22189,-0.34301 2.44374,-0.73458 3.71445,-1.12635 1.90612,-0.5387 3.03022,-0.83252 4.20322,-1.07739 l -0.68422,1.22428 -3.95885,7.6886 -4.05658,7.59064 -0.0487,0.1469 -1.02636,0.19573 c -0.78201,0.0981 -1.56398,0.29379 -2.2971,0.58769 -2.93249,1.1753 -5.71832,2.69345 -8.21092,4.60333 -0.83087,0.68563 -1.56399,1.51815 -2.00384,2.54656 -0.0978,0.19573 -0.2932,0.44076 -0.43988,0.63664 -0.14659,0.1469 -0.19534,0.34263 -0.19534,0.53866 0,0.24495 0.14661,0.5387 0.39099,0.68563 0.43988,0.24495 0.92862,0.5387 1.41735,0.78353 0.0979,0.0488 0.2932,0.0981 0.43988,0.14689 0.53762,0.0488 1.07525,0.0981 1.66173,0.0981 0.68427,0.0488 1.3685,0.098 2.10162,0.14689 0.63537,0.0488 1.22185,0 1.75947,-0.19574 0.92862,-0.29378 1.90609,-0.63663 2.83474,-1.07735 1.22185,-0.58769 2.39482,-1.22433 3.51896,-1.95891 0.87972,-0.58766 1.71059,-1.27325 2.44371,-2.05682 0.39099,-0.39176 1.46624,-1.51811 2.54146,-2.69345 3.07911,-3.18316 4.93634,-5.33791 6.69582,-7.54166 1.46621,-1.81198 2.78585,-3.67291 4.15434,-5.53383 1.22185,-1.76299 2.34596,-3.47703 3.37232,-5.28896 0.53763,-0.88152 0.97751,-1.763 1.46624,-2.69346 0.39099,-0.78357 0.68423,-1.66504 0.78197,-2.49757 0.19534,-0.97946 0,-2.00786 -0.48873,-2.84038 -0.39099,-0.58765 -0.87976,-1.02841 -1.51509,-1.37118 -0.34233,-0.1469 -0.68427,-0.24496 -1.07526,-0.34301 -0.24446,-0.0488 -0.48873,-0.1469 -0.73312,-0.29379 -0.68423,-0.48974 -1.46624,-0.83252 -2.29711,-1.0284 -0.34232,-0.0981 -0.78197,-0.1469 -1.17296,-0.1469 l -3.07912,0.0981 -1.66173,0.098 -2.6392,0.0981 -6.25595,0 -2.4926,0.0981 c -2.98678,0.1291 -5.97355,0.66654 -8.75667,1.50316 z"
       style="fill:#000000" />
    <text
       xml:space="preserve"
       style="font-size:17.16900826px;font-style:normal;font-variant:normal;font-weight:bold;font-stretch:normal;text-align:start;line-height:125%;letter-spacing:0px;word-spacing:0px;text-anchor:start;fill:#000000;fill-opacity:1;stroke:none;font-family:FreeSans;-inkscape-font-specification:Lato Bold"
       x="29.770643"
       y="1040.8351"
       id="text3028"
       sodipodi:linespacing="125%"><tspan
         sodipodi:role="line"
         id="tspan3030"
         x="29.770643"
         y="1040.8351"
         style="font-size:34.33801651px;font-style:normal;font-variant:normal;font-weight:bold;font-stretch:normal;text-align:start;text-anchor:start;font-family:Lato;-inkscape-font-specification:Lato Bold">libreboot</tspan></text>
  </g>
</svg>
